STARTFONT 2.1
COMMENT
COMMENT Converted from OpenType font "Q:\font stuff\winfont\Commador Wide Normal.ttf" by "otf2bdf 3.0".
COMMENT
FONT -FreeType-Commador Wide-Medium-R-Normal--221-1600-100-100-P-829-ISO10646-1
SIZE 160 100 100
FONTBOUNDINGBOX 456 301 -12 -53
STARTPROPERTIES 19
FOUNDRY "FreeType"
FAMILY_NAME "Commador Wide"
WEIGHT_NAME "Medium"
SLANT "R"
SETWIDTH_NAME "Normal"
ADD_STYLE_NAME ""
PIXEL_SIZE 221
POINT_SIZE 1600
RESOLUTION_X 100
RESOLUTION_Y 100
SPACING "P"
AVERAGE_WIDTH 829
CHARSET_REGISTRY "ISO10646"
CHARSET_ENCODING "1"
FONT_ASCENT 247
FONT_DESCENT 52
COPYRIGHT "Copyright 1994 Bay Animation Inc. All Rights Reserved."
_OTF_FONTFILE "Q:\font stuff\winfont\Commador Wide Normal.ttf"
_OTF_PSNAME "CommadorWideNormal"
ENDPROPERTIES
CHARS 203
STARTCHAR 0000
ENCODING 0
SWIDTH 0 0
DWIDTH 0 0
BBX 0 0 0 0
BITMAP
ENDCHAR
STARTCHAR 0008
ENCODING 8
SWIDTH 0 0
DWIDTH 0 0
BBX 0 0 0 0
BITMAP
ENDCHAR
STARTCHAR 0009
ENCODING 9
SWIDTH 229 0
DWIDTH 51 0
BBX 0 0 0 0
BITMAP
ENDCHAR
STARTCHAR 000D
ENCODING 13
SWIDTH 229 0
DWIDTH 51 0
BBX 0 0 0 0
BITMAP
ENDCHAR
STARTCHAR 001D
ENCODING 29
SWIDTH 0 0
DWIDTH 0 0
BBX 0 0 0 0
BITMAP
ENDCHAR
STARTCHAR 0020
ENCODING 32
SWIDTH 229 0
DWIDTH 51 0
BBX 0 0 0 0
BITMAP
ENDCHAR
STARTCHAR 0021
ENCODING 33
SWIDTH 234 0
DWIDTH 52 0
BBX 37 180 8 0
BITMAP
FFFFFFFFF8
FFFFFFFFF8
FFFFFFFFF8
FFFFFFFFF8
FFFFFFFFF8
FFFFFFFFF8
FFFFFFFFF8
7FFFFFFFF8
7FFFFFFFF8
7FFFFFFFF8
7FFFFFFFF8
7FFFFFFFF8
7FFFFFFFF0
7FFFFFFFF0
7FFFFFFFF0
7FFFFFFFF0
7FFFFFFFF0
7FFFFFFFF0
7FFFFFFFF0
7FFFFFFFF0
7FFFFFFFF0
7FFFFFFFF0
7FFFFFFFF0
7FFFFFFFF0
7FFFFFFFF0
7FFFFFFFF0
7FFFFFFFF0
7FFFFFFFF0
7FFFFFFFF0
3FFFFFFFF0
3FFFFFFFF0
3FFFFFFFF0
3FFFFFFFF0
3FFFFFFFF0
3FFFFFFFE0
3FFFFFFFE0
3FFFFFFFE0
3FFFFFFFE0
3FFFFFFFE0
3FFFFFFFE0
3FFFFFFFE0
3FFFFFFFE0
3FFFFFFFE0
3FFFFFFFE0
3FFFFFFFE0
3FFFFFFFE0
3FFFFFFFE0
3FFFFFFFE0
3FFFFFFFE0
3FFFFFFFE0
3FFFFFFFE0
1FFFFFFFE0
1FFFFFFFE0
1FFFFFFFE0
1FFFFFFFE0
1FFFFFFFE0
1FFFFFFFC0
1FFFFFFFC0
1FFFFFFFC0
1FFFFFFFC0
1FFFFFFFC0
1FFFFFFFC0
1FFFFFFFC0
1FFFFFFFC0
1FFFFFFFC0
1FFFFFFFC0
1FFFFFFFC0
1FFFFFFFC0
1FFFFFFFC0
1FFFFFFFC0
1FFFFFFFC0
1FFFFFFFC0
1FFFFFFFC0
0FFFFFFFC0
0FFFFFFFC0
0FFFFFFFC0
0FFFFFFFC0
0FFFFFFFC0
0FFFFFFF80
0FFFFFFF80
0FFFFFFF80
0FFFFFFF80
0FFFFFFF80
0FFFFFFF80
0FFFFFFF80
0FFFFFFF80
0FFFFFFF80
0FFFFFFF80
0FFFFFFF80
0FFFFFFF80
0FFFFFFF80
0FFFFFFF80
0FFFFFFF80
0FFFFFFF80
0FFFFFFF80
07FFFFFF80
07FFFFFF80
07FFFFFF80
07FFFFFF80
07FFFFFF80
07FFFFFF00
07FFFFFF00
07FFFFFF00
07FFFFFF00
07FFFFFF00
07FFFFFF00
07FFFFFF00
07FFFFFF00
07FFFFFF00
07FFFFFF00
07FFFFFF00
07FFFFFF00
07FFFFFF00
07FFFFFF00
07FFFFFF00
07FFFFFF00
07FFFFFF00
03FFFFFF00
03FFFFFF00
03FFFFFF00
03FFFFFF00
03FFFFFF00
03FFFFFE00
03FFFFFE00
03FFFFFE00
03FFFFFE00
03FFFFFE00
03FFFFFE00
03FFFFFE00
03FFFFFE00
03FFFFFE00
03FFFFFE00
03FFFFFE00
03FFFFFE00
03FFFFFE00
03FFFFFE00
0000000000
0000000000
0000000000
0000000000
0000000000
0000000000
0000000000
0000000000
0000000000
0000000000
0000000000
0000000000
0000000000
FFFFFFFFF8
FFFFFFFFF8
FFFFFFFFF8
FFFFFFFFF8
FFFFFFFFF8
FFFFFFFFF8
FFFFFFFFF8
FFFFFFFFF8
FFFFFFFFF8
FFFFFFFFF8
FFFFFFFFF8
FFFFFFFFF8
FFFFFFFFF8
FFFFFFFFF8
FFFFFFFFF8
FFFFFFFFF8
FFFFFFFFF8
FFFFFFFFF8
FFFFFFFFF8
FFFFFFFFF8
FFFFFFFFF8
FFFFFFFFF8
FFFFFFFFF8
FFFFFFFFF8
FFFFFFFFF8
FFFFFFFFF8
FFFFFFFFF8
FFFFFFFFF8
FFFFFFFFF8
FFFFFFFFF8
FFFFFFFFF8
ENDCHAR
STARTCHAR 0022
ENCODING 34
SWIDTH 378 0
DWIDTH 84 0
BBX 62 61 11 95
BITMAP
FFFFFC0000FFFFFC
FFFFFC0000FFFFFC
FFFFFC0000FFFFFC
FFFFFC0000FFFFFC
FFFFFC0000FFFFFC
FFFFFC0000FFFFFC
FFFFFC0000FFFFFC
FFFFFC0000FFFFFC
FFFFFC0000FFFFFC
FFFFFC0000FFFFFC
FFFFFC0000FFFFFC
FFFFFC0000FFFFFC
FFFFFC0000FFFFFC
FFFFFC0000FFFFFC
FFFFFC0000FFFFFC
FFFFFC0000FFFFFC
FFFFFC0000FFFFFC
FFFFFC0000FFFFFC
FFFFFC0000FFFFFC
FFFFFC0000FFFFFC
FFFFFC0000FFFFFC
FFFFFC0000FFFFFC
FFFFFC0000FFFFFC
FFFFFC0000FFFFFC
FFFFFC0000FFFFFC
FFFFFC0000FFFFFC
FFFFFC0000FFFFFC
FFFFFC0000FFFFFC
FFFFFC0000FFFFFC
FFFFFC0000FFFFFC
FFFFFC0000FFFFFC
FFFFFC0000FFFFFC
FFFFFC0000FFFFFC
FFFFFC0000FFFFFC
FFFFFC0000FFFFFC
FFFFFC0000FFFFFC
FFFFFC0000FFFFFC
FFFFFC0000FFFFFC
FFFFFC0000FFFFFC
FFFFFC0000FFFFFC
FFFFFC0000FFFFFC
FFFFFC0000FFFFFC
FFFFFC0000FFFFFC
FFFFFC0000FFFFFC
FFFFFC0000FFFFFC
FFFFFC0000FFFFFC
FFFFFC0000FFFFFC
FFFFFC0000FFFFFC
FFFFFC0000FFFFFC
FFFFFC0000FFFFFC
FFFFFC0000FFFFFC
FFFFFC0000FFFFFC
FFFFFC0000FFFFFC
FFFFFC0000FFFFFC
FFFFFC0000FFFFFC
FFFFFC0000FFFFFC
FFFFFC0000FFFFFC
FFFFFC0000FFFFFC
FFFFFC0000FFFFFC
FFFFFC0000FFFFFC
FFFFFC0000FFFFFC
ENDCHAR
STARTCHAR 0023
ENCODING 35
SWIDTH 922 0
DWIDTH 205 0
BBX 187 158 9 1
BITMAP
0000000000000000000003FFFFFE00000000FFFFFF800000
0000000000000000000003FFFFFE00000001FFFFFF000000
0000000000000000000003FFFFFC00000001FFFFFF000000
0000000000000000000007FFFFFC00000001FFFFFF000000
0000000000000000000007FFFFF800000003FFFFFE000000
000000000000000000000FFFFFF800000003FFFFFE000000
000000000000000000000FFFFFF800000007FFFFFC000000
000000000000000000001FFFFFF000000007FFFFFC000000
000000000000000000001FFFFFF00000000FFFFFFC000000
000000000000000000001FFFFFE00000000FFFFFF8000000
000000000000000000003FFFFFE00000000FFFFFF8000000
000000000000000000003FFFFFC00000001FFFFFF0000000
000000000000000000007FFFFFC00000001FFFFFF0000000
000000000000000000007FFFFFC00000003FFFFFE0000000
00000000000000000000FFFFFF800000003FFFFFE0000000
00000000000000000000FFFFFF800000007FFFFFE0000000
00000000000000000000FFFFFF000000007FFFFFC0000000
00000000000000000001FFFFFF000000007FFFFFC0000000
00000000000000000001FFFFFF00000000FFFFFF80000000
00000000000000000003FFFFFE00000000FFFFFF80000000
00000000000000000003FFFFFE00000001FFFFFF00000000
00000000000000000007FFFFFC00000001FFFFFF00000000
00000000000000000007FFFFFC00000003FFFFFF00000000
00000000000000000007FFFFF800000003FFFFFE00000000
0000000000000000000FFFFFF800000003FFFFFE00000000
0000000000000000000FFFFFF800000007FFFFFC00000000
0000000000000000001FFFFFF000000007FFFFFC00000000
0000000000000000001FFFFFF00000000FFFFFF800000000
0000000000000000003FFFFFE00000000FFFFFF800000000
0000000000000000003FFFFFE00000000FFFFFF800000000
0000000000000000003FFFFFC00000001FFFFFF000000000
0000000000000000007FFFFFC00000001FFFFFF000000000
0000000000000000007FFFFFC00000003FFFFFE000000000
000000000000000000FFFFFF800000003FFFFFE000000000
000000000000000000FFFFFF800000007FFFFFE000000000
000000000000000001FFFFFF000000007FFFFFC000000000
000000000000000001FFFFFF000000007FFFFFC000000000
000000000000000001FFFFFE00000000FFFFFF8000000000
000000000000000003FFFFFE00000000FFFFFF8000000000
000000000000000003FFFFFE00000001FFFFFF0000000000
000000000000000007FFFFFC00000001FFFFFF0000000000
000000000000000007FFFFFC00000003FFFFFF0000000000
00000000000000000FFFFFF800000003FFFFFE0000000000
00000000000000000FFFFFF800000003FFFFFE0000000000
00000000000000000FFFFFF000000007FFFFFC0000000000
00000000000000001FFFFFF000000007FFFFFC0000000000
00000000000000001FFFFFF00000000FFFFFF80000000000
0000007FFFFFFFFFFFFFFFFFFFFFFFFFFFFFFFFFFFFFFFE0
0000007FFFFFFFFFFFFFFFFFFFFFFFFFFFFFFFFFFFFFFFC0
000000FFFFFFFFFFFFFFFFFFFFFFFFFFFFFFFFFFFFFFFFC0
000000FFFFFFFFFFFFFFFFFFFFFFFFFFFFFFFFFFFFFFFFC0
000001FFFFFFFFFFFFFFFFFFFFFFFFFFFFFFFFFFFFFFFF80
000001FFFFFFFFFFFFFFFFFFFFFFFFFFFFFFFFFFFFFFFF80
000001FFFFFFFFFFFFFFFFFFFFFFFFFFFFFFFFFFFFFFFF00
000003FFFFFFFFFFFFFFFFFFFFFFFFFFFFFFFFFFFFFFFF00
000003FFFFFFFFFFFFFFFFFFFFFFFFFFFFFFFFFFFFFFFF00
000007FFFFFFFFFFFFFFFFFFFFFFFFFFFFFFFFFFFFFFFE00
000007FFFFFFFFFFFFFFFFFFFFFFFFFFFFFFFFFFFFFFFE00
000007FFFFFFFFFFFFFFFFFFFFFFFFFFFFFFFFFFFFFFFC00
00000FFFFFFFFFFFFFFFFFFFFFFFFFFFFFFFFFFFFFFFFC00
00000FFFFFFFFFFFFFFFFFFFFFFFFFFFFFFFFFFFFFFFF800
00001FFFFFFFFFFFFFFFFFFFFFFFFFFFFFFFFFFFFFFFF800
00001FFFFFFFFFFFFFFFFFFFFFFFFFFFFFFFFFFFFFFFF800
00003FFFFFFFFFFFFFFFFFFFFFFFFFFFFFFFFFFFFFFFF000
00003FFFFFFFFFFFFFFFFFFFFFFFFFFFFFFFFFFFFFFFF000
00003FFFFFFFFFFFFFFFFFFFFFFFFFFFFFFFFFFFFFFFE000
000000000000003FFFFFE00000000FFFFFF8000000000000
000000000000003FFFFFE00000000FFFFFF8000000000000
000000000000007FFFFFC00000001FFFFFF0000000000000
000000000000007FFFFFC00000001FFFFFF0000000000000
000000000000007FFFFF800000001FFFFFE0000000000000
00000000000000FFFFFF800000003FFFFFE0000000000000
00000000000000FFFFFF000000003FFFFFC0000000000000
00000000000001FFFFFF000000007FFFFFC0000000000000
00000000000001FFFFFF000000007FFFFFC0000000000000
00000000000003FFFFFE00000000FFFFFF80000000000000
00000000000003FFFFFE00000000FFFFFF80000000000000
00000000000007FFFFFC00000000FFFFFF00000000000000
00000000000007FFFFFC00000001FFFFFF00000000000000
00000000000007FFFFF800000001FFFFFE00000000000000
0000000000000FFFFFF800000003FFFFFE00000000000000
0000000000000FFFFFF000000003FFFFFC00000000000000
0000000000001FFFFFF000000007FFFFFC00000000000000
0000000000001FFFFFF000000007FFFFFC00000000000000
0000000000003FFFFFE00000000FFFFFF800000000000000
0000000000003FFFFFE00000000FFFFFF800000000000000
0000000000003FFFFFC00000000FFFFFF000000000000000
0000000000007FFFFFC00000001FFFFFF000000000000000
0000000000007FFFFF800000001FFFFFE000000000000000
000000000000FFFFFF800000003FFFFFE000000000000000
000000000000FFFFFF800000003FFFFFE000000000000000
000000000001FFFFFF000000007FFFFFC000000000000000
000000000001FFFFFF000000007FFFFFC000000000000000
00FFFFFFFFFFFFFFFFFFFFFFFFFFFFFFFFFFFFFFFF800000
01FFFFFFFFFFFFFFFFFFFFFFFFFFFFFFFFFFFFFFFF800000
01FFFFFFFFFFFFFFFFFFFFFFFFFFFFFFFFFFFFFFFF800000
01FFFFFFFFFFFFFFFFFFFFFFFFFFFFFFFFFFFFFFFF000000
03FFFFFFFFFFFFFFFFFFFFFFFFFFFFFFFFFFFFFFFF000000
03FFFFFFFFFFFFFFFFFFFFFFFFFFFFFFFFFFFFFFFE000000
07FFFFFFFFFFFFFFFFFFFFFFFFFFFFFFFFFFFFFFFE000000
07FFFFFFFFFFFFFFFFFFFFFFFFFFFFFFFFFFFFFFFE000000
0FFFFFFFFFFFFFFFFFFFFFFFFFFFFFFFFFFFFFFFFC000000
0FFFFFFFFFFFFFFFFFFFFFFFFFFFFFFFFFFFFFFFFC000000
0FFFFFFFFFFFFFFFFFFFFFFFFFFFFFFFFFFFFFFFF8000000
1FFFFFFFFFFFFFFFFFFFFFFFFFFFFFFFFFFFFFFFF8000000
1FFFFFFFFFFFFFFFFFFFFFFFFFFFFFFFFFFFFFFFF0000000
3FFFFFFFFFFFFFFFFFFFFFFFFFFFFFFFFFFFFFFFF0000000
3FFFFFFFFFFFFFFFFFFFFFFFFFFFFFFFFFFFFFFFF0000000
7FFFFFFFFFFFFFFFFFFFFFFFFFFFFFFFFFFFFFFFE0000000
7FFFFFFFFFFFFFFFFFFFFFFFFFFFFFFFFFFFFFFFE0000000
7FFFFFFFFFFFFFFFFFFFFFFFFFFFFFFFFFFFFFFFC0000000
FFFFFFFFFFFFFFFFFFFFFFFFFFFFFFFFFFFFFFFFC0000000
0000000001FFFFFF000000007FFFFF800000000000000000
0000000003FFFFFE00000000FFFFFF800000000000000000
0000000003FFFFFE00000000FFFFFF800000000000000000
0000000007FFFFFE00000001FFFFFF000000000000000000
0000000007FFFFFC00000001FFFFFF000000000000000000
0000000007FFFFFC00000003FFFFFE000000000000000000
000000000FFFFFF800000003FFFFFE000000000000000000
000000000FFFFFF800000007FFFFFC000000000000000000
000000001FFFFFF000000007FFFFFC000000000000000000
000000001FFFFFF000000007FFFFF8000000000000000000
000000003FFFFFE00000000FFFFFF8000000000000000000
000000003FFFFFE00000000FFFFFF8000000000000000000
000000007FFFFFE00000001FFFFFF0000000000000000000
000000007FFFFFC00000001FFFFFF0000000000000000000
000000007FFFFFC00000003FFFFFE0000000000000000000
00000000FFFFFF800000003FFFFFE0000000000000000000
00000000FFFFFF800000003FFFFFC0000000000000000000
00000001FFFFFF000000007FFFFFC0000000000000000000
00000001FFFFFF000000007FFFFFC0000000000000000000
00000003FFFFFE00000000FFFFFF80000000000000000000
00000003FFFFFE00000000FFFFFF80000000000000000000
00000007FFFFFC00000001FFFFFF00000000000000000000
00000007FFFFFC00000001FFFFFF00000000000000000000
00000007FFFFFC00000003FFFFFE00000000000000000000
0000000FFFFFF800000003FFFFFE00000000000000000000
0000000FFFFFF800000003FFFFFC00000000000000000000
0000001FFFFFF000000007FFFFFC00000000000000000000
0000001FFFFFF000000007FFFFFC00000000000000000000
0000003FFFFFE00000000FFFFFF800000000000000000000
0000003FFFFFE00000000FFFFFF800000000000000000000
0000007FFFFFC00000001FFFFFF000000000000000000000
0000007FFFFFC00000001FFFFFF000000000000000000000
0000007FFFFFC00000003FFFFFE000000000000000000000
000000FFFFFF800000003FFFFFE000000000000000000000
000000FFFFFF800000003FFFFFC000000000000000000000
000001FFFFFF000000007FFFFFC000000000000000000000
000001FFFFFF000000007FFFFFC000000000000000000000
000003FFFFFE00000000FFFFFF8000000000000000000000
000003FFFFFE00000000FFFFFF8000000000000000000000
000003FFFFFC00000001FFFFFF0000000000000000000000
000007FFFFFC00000001FFFFFF0000000000000000000000
000007FFFFF800000003FFFFFE0000000000000000000000
00000FFFFFF800000003FFFFFE0000000000000000000000
00000FFFFFF800000003FFFFFC0000000000000000000000
00001FFFFFF000000007FFFFFC0000000000000000000000
00001FFFFFF000000007FFFFFC0000000000000000000000
ENDCHAR
STARTCHAR 0024
ENCODING 36
SWIDTH 459 0
DWIDTH 102 0
BBX 85 208 8 -14
BITMAP
00000001FFFFFF00000000
00000001FFFFFF00000000
00000001FFFFFF00000000
00000001FFFFFF00000000
00000001FFFFFF00000000
00000001FFFFFF00000000
00000001FFFFFF00000000
00000001FFFFFF00000000
00000001FFFFFF00000000
00000001FFFFFF00000000
00000001FFFFFF00000000
00000001FFFFFF00000000
00000001FFFFFF00000000
000003FFFFFFFFFE000000
00007FFFFFFFFFFFF80000
0003FFFFFFFFFFFFFF0000
000FFFFFFFFFFFFFFFC000
003FFFFFFFFFFFFFFFE000
00FFFFFFFFFFFFFFFFF800
01FFFFFFFFFFFFFFFFFC00
03FFFFFFFFFFFFFFFFFE00
07FFFFFFFFFFFFFFFFFF00
07FFFFFFFFFFFFFFFFFF00
0FFFFFFFFFFFFFFFFFFF80
0FFFFFFFFFFFFFFFFFFFC0
1FFFFFFFFFFFFFFFFFFFC0
1FFFFFFFFFFFFFFFFFFFC0
3FFFFFFFFFFFFFFFFFFFE0
3FFFFFFFFFFFFFFFFFFFE0
3FFFFFFFFFFFFFFFFFFFE0
3FFFFFFFFFFFFFFFFFFFE0
7FFFFFFFFFFFFFFFFFFFF0
7FFFFFFFFFFFFFFFFFFFF0
7FFFFFFFFFFFFFFFFFFFF0
7FFFFFFFFFFFFFFFFFFFF0
7FFFFFFFFFFFFFFFFFFFF0
7FFFFFFFFFFFFFFFFFFFF0
FFFFFFFFFF03FFFFFFFFF0
FFFFFFFFFE01FFFFFFFFF8
FFFFFFFFFC00FFFFFFFFF8
FFFFFFFFFC00FFFFFFFFF8
FFFFFFFFF8007FFFFFFFF8
FFFFFFFFF8007FFFFFFFF8
FFFFFFFFF8007FFFFFFFF8
FFFFFFFFF8007FFFFFFFF8
FFFFFFFFF8007FFFFFFFF8
FFFFFFFFF8007FFFFFFFF8
FFFFFFFFF8007FFFFFFFF8
FFFFFFFFF8007FFFFFFFF8
FFFFFFFFF8007FFFFFFFF8
FFFFFFFFF8007FFFFFFFF8
FFFFFFFFF8007FFFFFFFF8
FFFFFFFFF8007FFFFFFFF8
FFFFFFFFF8007FFFFFFFF8
FFFFFFFFF8007FFFFFFFF8
FFFFFFFFF8007FFFFFFFF8
FFFFFFFFF8007FFFFFFFF8
FFFFFFFFF8007FFFFFFFF8
FFFFFFFFF8007FFFFFFFF8
FFFFFFFFF8007FFFFFFFF8
FFFFFFFFF8007FFFFFFFF8
FFFFFFFFF8007FFFFFFFF8
FFFFFFFFF8007FFFFFFFF8
FFFFFFFFF8007FFFFFFFF8
FFFFFFFFF8007FFFFFFFF8
FFFFFFFFF8007FFFFFFFF8
FFFFFFFFF8007FFFFFFFF8
FFFFFFFFF8007FFFFFFFF8
FFFFFFFFF8007FFFFFFFF8
FFFFFFFFF8007FFFFFFFF8
FFFFFFFFF8007FFFFFFFF8
FFFFFFFFF8007FFFFFFFF8
FFFFFFFFF8007FFFFFFFF8
FFFFFFFFF8007FFFFFFFF8
FFFFFFFFF8007FFFFFFFF8
FFFFFFFFF8007FFFFFFFF8
FFFFFFFFF8000000000000
FFFFFFFFFC000000000000
FFFFFFFFFC000000000000
FFFFFFFFFE000000000000
FFFFFFFFFF000000000000
FFFFFFFFFF800000000000
7FFFFFFFFFE00000000000
7FFFFFFFFFF80000000000
7FFFFFFFFFFE0000000000
7FFFFFFFFFFF8000000000
7FFFFFFFFFFFE000000000
3FFFFFFFFFFFF800000000
3FFFFFFFFFFFFF00000000
1FFFFFFFFFFFFFC0000000
1FFFFFFFFFFFFFF0000000
0FFFFFFFFFFFFFFC000000
0FFFFFFFFFFFFFFF000000
07FFFFFFFFFFFFFFC00000
03FFFFFFFFFFFFFFF00000
01FFFFFFFFFFFFFFFC0000
00FFFFFFFFFFFFFFFF0000
007FFFFFFFFFFFFFFF8000
003FFFFFFFFFFFFFFFE000
001FFFFFFFFFFFFFFFF000
0007FFFFFFFFFFFFFFF800
0001FFFFFFFFFFFFFFFC00
00007FFFFFFFFFFFFFFE00
00001FFFFFFFFFFFFFFF00
000007FFFFFFFFFFFFFF80
000001FFFFFFFFFFFFFFC0
0000007FFFFFFFFFFFFFC0
0000001FFFFFFFFFFFFFE0
00000007FFFFFFFFFFFFE0
00000001FFFFFFFFFFFFE0
000000007FFFFFFFFFFFF0
000000001FFFFFFFFFFFF0
0000000003FFFFFFFFFFF0
0000000000FFFFFFFFFFF0
00000000003FFFFFFFFFF0
00000000001FFFFFFFFFF8
000000000007FFFFFFFFF8
000000000003FFFFFFFFF8
000000000001FFFFFFFFF8
000000000000FFFFFFFFF8
FFFFFFFFF8007FFFFFFFF8
FFFFFFFFF8007FFFFFFFF8
FFFFFFFFF8007FFFFFFFF8
FFFFFFFFF8007FFFFFFFF8
FFFFFFFFF8007FFFFFFFF8
FFFFFFFFF8007FFFFFFFF8
FFFFFFFFF8007FFFFFFFF8
FFFFFFFFF8007FFFFFFFF8
FFFFFFFFF8007FFFFFFFF8
FFFFFFFFF8007FFFFFFFF8
FFFFFFFFF8007FFFFFFFF8
FFFFFFFFF8007FFFFFFFF8
FFFFFFFFF8007FFFFFFFF8
FFFFFFFFF8007FFFFFFFF8
FFFFFFFFF8007FFFFFFFF8
FFFFFFFFF8007FFFFFFFF8
FFFFFFFFF8007FFFFFFFF8
FFFFFFFFF8007FFFFFFFF8
FFFFFFFFF8007FFFFFFFF8
FFFFFFFFF8007FFFFFFFF8
FFFFFFFFF8007FFFFFFFF8
FFFFFFFFF8007FFFFFFFF8
FFFFFFFFF8007FFFFFFFF8
FFFFFFFFF8007FFFFFFFF8
FFFFFFFFF8007FFFFFFFF8
FFFFFFFFF8007FFFFFFFF8
FFFFFFFFF8007FFFFFFFF8
FFFFFFFFF8007FFFFFFFF8
FFFFFFFFF8007FFFFFFFF8
FFFFFFFFF8007FFFFFFFF8
FFFFFFFFF8007FFFFFFFF8
FFFFFFFFF8007FFFFFFFF8
FFFFFFFFF8007FFFFFFFF8
FFFFFFFFF8007FFFFFFFF8
FFFFFFFFF8007FFFFFFFF8
FFFFFFFFF8007FFFFFFFF8
FFFFFFFFF8007FFFFFFFF8
FFFFFFFFF8007FFFFFFFF8
FFFFFFFFF8007FFFFFFFF8
FFFFFFFFF8007FFFFFFFF8
FFFFFFFFF8007FFFFFFFF8
FFFFFFFFF8007FFFFFFFF8
FFFFFFFFF8007FFFFFFFF8
FFFFFFFFF8007FFFFFFFF8
FFFFFFFFF8007FFFFFFFF8
FFFFFFFFF8007FFFFFFFF8
FFFFFFFFF8007FFFFFFFF8
FFFFFFFFFC007FFFFFFFF8
FFFFFFFFFC00FFFFFFFFF8
FFFFFFFFFE01FFFFFFFFF8
7FFFFFFFFF83FFFFFFFFF8
7FFFFFFFFFFFFFFFFFFFF0
7FFFFFFFFFFFFFFFFFFFF0
7FFFFFFFFFFFFFFFFFFFF0
7FFFFFFFFFFFFFFFFFFFF0
7FFFFFFFFFFFFFFFFFFFF0
3FFFFFFFFFFFFFFFFFFFF0
3FFFFFFFFFFFFFFFFFFFF0
3FFFFFFFFFFFFFFFFFFFE0
3FFFFFFFFFFFFFFFFFFFE0
1FFFFFFFFFFFFFFFFFFFE0
1FFFFFFFFFFFFFFFFFFFC0
1FFFFFFFFFFFFFFFFFFFC0
0FFFFFFFFFFFFFFFFFFFC0
0FFFFFFFFFFFFFFFFFFF80
07FFFFFFFFFFFFFFFFFF80
03FFFFFFFFFFFFFFFFFF00
03FFFFFFFFFFFFFFFFFE00
01FFFFFFFFFFFFFFFFFC00
007FFFFFFFFFFFFFFFF800
003FFFFFFFFFFFFFFFE000
000FFFFFFFFFFFFFFF8000
0003FFFFFFFFFFFFFC0000
00007FFFFFFFFFFFE00000
000000FFFFFFFFF0000000
00000001FFFFFF00000000
00000001FFFFFF00000000
00000001FFFFFF00000000
00000001FFFFFF00000000
00000001FFFFFF00000000
00000001FFFFFF00000000
00000001FFFFFF00000000
00000001FFFFFF00000000
00000001FFFFFF00000000
00000001FFFFFF00000000
00000001FFFFFF00000000
00000001FFFFFF00000000
00000001FFFFFF00000000
ENDCHAR
STARTCHAR 0025
ENCODING 37
SWIDTH 810 0
DWIDTH 180 0
BBX 162 181 9 -1
BITMAP
00001FFFFFC000000000000000FFFFF80000000000
000FFFFFFFFF80000000000000FFFFF80000000000
007FFFFFFFFFF8000000000001FFFFF80000000000
03FFFFFFFFFFFE000000000001FFFFF00000000000
07FFFFFFFFFFFF000000000001FFFFF00000000000
0FFFFFFFFFFFFF800000000003FFFFF00000000000
1FFFFFFFFFFFFFC00000000003FFFFE00000000000
1FFFFFFFFFFFFFE00000000007FFFFE00000000000
3FFFFFFFFFFFFFE00000000007FFFFC00000000000
3FFFFFFFFFFFFFF00000000007FFFFC00000000000
3FFFFFFFFFFFFFF0000000000FFFFFC00000000000
7FFFFFFFFFFFFFF0000000000FFFFF800000000000
7FFFFFFFFFFFFFF8000000000FFFFF800000000000
7FFFFFFFFFFFFFF8000000001FFFFF800000000000
7FFFFFFFFFFFFFF8000000001FFFFF000000000000
7FFFFFFFFFFFFFF8000000003FFFFF000000000000
FFFFFFFFFFFFFFF8000000003FFFFE000000000000
FFFFFFFFFFFFFFFC000000003FFFFE000000000000
FFFFFFE01FFFFFFC000000007FFFFE000000000000
FFFFFFE01FFFFFFC000000007FFFFC000000000000
FFFFFFC00FFFFFFC000000007FFFFC000000000000
FFFFFFC00FFFFFFC00000000FFFFF8000000000000
FFFFFFC00FFFFFFC00000000FFFFF8000000000000
FFFFFFC00FFFFFFC00000001FFFFF8000000000000
FFFFFFC00FFFFFFC00000001FFFFF0000000000000
FFFFFFC00FFFFFFC00000001FFFFF0000000000000
FFFFFFC00FFFFFFC00000003FFFFF0000000000000
FFFFFFC00FFFFFFC00000003FFFFE0000000000000
FFFFFFC00FFFFFFC00000007FFFFE0000000000000
FFFFFFC00FFFFFFC00000007FFFFC0000000000000
FFFFFFC00FFFFFFC00000007FFFFC0000000000000
FFFFFFC00FFFFFFC0000000FFFFFC0000000000000
FFFFFFC00FFFFFFC0000000FFFFF80000000000000
FFFFFFC00FFFFFFC0000000FFFFF80000000000000
FFFFFFC00FFFFFFC0000001FFFFF80000000000000
FFFFFFC00FFFFFFC0000001FFFFF00000000000000
FFFFFFC00FFFFFFC0000003FFFFF00000000000000
FFFFFFC00FFFFFFC0000003FFFFE00000000000000
FFFFFFC00FFFFFFC0000003FFFFE00000000000000
FFFFFFC00FFFFFFC0000007FFFFE00000000000000
FFFFFFC00FFFFFFC0000007FFFFC00000000000000
FFFFFFC00FFFFFFC0000007FFFFC00000000000000
FFFFFFC00FFFFFFC000000FFFFFC00000000000000
FFFFFFC00FFFFFFC000000FFFFF800000000000000
FFFFFFC00FFFFFFC000001FFFFF800000000000000
FFFFFFC00FFFFFFC000001FFFFF000000000000000
FFFFFFC00FFFFFFC000001FFFFF000000000000000
FFFFFFC00FFFFFFC000003FFFFF000000000000000
FFFFFFC00FFFFFFC000003FFFFE000000000000000
FFFFFFC00FFFFFFC000007FFFFE000000000000000
FFFFFFC00FFFFFFC000007FFFFC000000000000000
FFFFFFC00FFFFFFC000007FFFFC000000000000000
FFFFFFC00FFFFFFC00000FFFFFC000000000000000
FFFFFFC00FFFFFFC00000FFFFF8000000000000000
FFFFFFC00FFFFFFC00000FFFFF8000000000000000
FFFFFFC00FFFFFFC00001FFFFF8000000000000000
FFFFFFC00FFFFFFC00001FFFFF0000000000000000
FFFFFFC00FFFFFFC00003FFFFF0000000000000000
FFFFFFC00FFFFFFC00003FFFFE0000000000000000
FFFFFFC00FFFFFFC00003FFFFE0000000000000000
FFFFFFC00FFFFFFC00007FFFFE0000000000000000
FFFFFFC00FFFFFFC00007FFFFC0000000000000000
FFFFFFC00FFFFFFC00007FFFFC0000000000000000
FFFFFFC00FFFFFFC0000FFFFFC0000000000000000
FFFFFFC00FFFFFFC0000FFFFF80000000000000000
FFFFFFC00FFFFFFC0001FFFFF80000000000000000
FFFFFFC00FFFFFFC0001FFFFF00000000000000000
FFFFFFC00FFFFFFC0001FFFFF00000000000000000
FFFFFFC00FFFFFFC0003FFFFF00000000000000000
FFFFFFC00FFFFFFC0003FFFFE00000000000000000
FFFFFFC00FFFFFFC0007FFFFE00000000000000000
FFFFFFC00FFFFFFC0007FFFFC00000000000000000
FFFFFFC00FFFFFFC0007FFFFC00000000000000000
FFFFFFC00FFFFFFC000FFFFFC00000000000000000
FFFFFFC00FFFFFFC000FFFFF800000000000000000
FFFFFFC00FFFFFFC000FFFFF800000000000000000
FFFFFFE01FFFFFFC001FFFFF800000000000000000
FFFFFFE01FFFFFFC001FFFFF000000000000000000
FFFFFFFFFFFFFFFC003FFFFF000000000000000000
FFFFFFFFFFFFFFFC003FFFFE000000000000000000
7FFFFFFFFFFFFFF8003FFFFE000000000000000000
7FFFFFFFFFFFFFF8007FFFFE000000000000000000
7FFFFFFFFFFFFFF8007FFFFC000000000000000000
7FFFFFFFFFFFFFF8007FFFFC00000FFFFFFF000000
7FFFFFFFFFFFFFF800FFFFFC0003FFFFFFFFFC0000
7FFFFFFFFFFFFFF800FFFFF8001FFFFFFFFFFF8000
3FFFFFFFFFFFFFF001FFFFF8007FFFFFFFFFFFE000
3FFFFFFFFFFFFFF001FFFFF000FFFFFFFFFFFFF800
1FFFFFFFFFFFFFE001FFFFF001FFFFFFFFFFFFFC00
1FFFFFFFFFFFFFE003FFFFF003FFFFFFFFFFFFFC00
0FFFFFFFFFFFFFC003FFFFE003FFFFFFFFFFFFFE00
0FFFFFFFFFFFFFC007FFFFE007FFFFFFFFFFFFFE00
03FFFFFFFFFFFF8007FFFFC007FFFFFFFFFFFFFF00
01FFFFFFFFFFFE0007FFFFC007FFFFFFFFFFFFFF00
007FFFFFFFFFF8000FFFFFC00FFFFFFFFFFFFFFF00
0007FFFFFFFF80000FFFFF800FFFFFFFFFFFFFFF80
00000FFFFFC000000FFFFF800FFFFFFFFFFFFFFF80
00000000000000001FFFFF800FFFFFFFFFFFFFFF80
00000000000000001FFFFF000FFFFFFFFFFFFFFF80
00000000000000003FFFFF001FFFFFFFFFFFFFFF80
00000000000000003FFFFE001FFFFFFFFFFFFFFFC0
00000000000000003FFFFE001FFFFFFF07FFFFFFC0
00000000000000007FFFFE001FFFFFFC01FFFFFFC0
00000000000000007FFFFC001FFFFFF801FFFFFFC0
00000000000000007FFFFC001FFFFFF800FFFFFFC0
0000000000000000FFFFFC001FFFFFF800FFFFFFC0
0000000000000000FFFFF8001FFFFFF800FFFFFFC0
0000000000000001FFFFF8001FFFFFF800FFFFFFC0
0000000000000001FFFFF0001FFFFFF800FFFFFFC0
0000000000000001FFFFF0001FFFFFF800FFFFFFC0
0000000000000003FFFFF0001FFFFFF800FFFFFFC0
0000000000000003FFFFE0001FFFFFF800FFFFFFC0
0000000000000007FFFFE0001FFFFFF800FFFFFFC0
0000000000000007FFFFC0001FFFFFF800FFFFFFC0
0000000000000007FFFFC0001FFFFFF800FFFFFFC0
000000000000000FFFFFC0001FFFFFF800FFFFFFC0
000000000000000FFFFF80001FFFFFF800FFFFFFC0
000000000000000FFFFF80001FFFFFF800FFFFFFC0
000000000000001FFFFF80001FFFFFF800FFFFFFC0
000000000000001FFFFF00001FFFFFF800FFFFFFC0
000000000000003FFFFF00001FFFFFF800FFFFFFC0
000000000000003FFFFE00001FFFFFF800FFFFFFC0
000000000000003FFFFE00001FFFFFF800FFFFFFC0
000000000000007FFFFE00001FFFFFF800FFFFFFC0
000000000000007FFFFC00001FFFFFF800FFFFFFC0
000000000000007FFFFC00001FFFFFF800FFFFFFC0
00000000000000FFFFFC00001FFFFFF800FFFFFFC0
00000000000000FFFFF800001FFFFFF800FFFFFFC0
00000000000001FFFFF800001FFFFFF800FFFFFFC0
00000000000001FFFFF000001FFFFFF800FFFFFFC0
00000000000001FFFFF000001FFFFFF800FFFFFFC0
00000000000003FFFFF000001FFFFFF800FFFFFFC0
00000000000003FFFFE000001FFFFFF800FFFFFFC0
00000000000007FFFFE000001FFFFFF800FFFFFFC0
00000000000007FFFFC000001FFFFFF800FFFFFFC0
00000000000007FFFFC000001FFFFFF800FFFFFFC0
0000000000000FFFFFC000001FFFFFF800FFFFFFC0
0000000000000FFFFF8000001FFFFFF800FFFFFFC0
0000000000000FFFFF8000001FFFFFF800FFFFFFC0
0000000000001FFFFF8000001FFFFFF800FFFFFFC0
0000000000001FFFFF0000001FFFFFF800FFFFFFC0
0000000000003FFFFF0000001FFFFFF800FFFFFFC0
0000000000003FFFFE0000001FFFFFF800FFFFFFC0
0000000000003FFFFE0000001FFFFFF800FFFFFFC0
0000000000007FFFFE0000001FFFFFF800FFFFFFC0
0000000000007FFFFC0000001FFFFFF800FFFFFFC0
0000000000007FFFFC0000001FFFFFF800FFFFFFC0
000000000000FFFFFC0000001FFFFFF800FFFFFFC0
000000000000FFFFF80000001FFFFFF800FFFFFFC0
000000000001FFFFF80000001FFFFFF800FFFFFFC0
000000000001FFFFF00000001FFFFFF800FFFFFFC0
000000000001FFFFF00000001FFFFFF800FFFFFFC0
000000000003FFFFF00000001FFFFFF800FFFFFFC0
000000000003FFFFE00000001FFFFFF800FFFFFFC0
000000000007FFFFE00000001FFFFFF800FFFFFFC0
000000000007FFFFE00000001FFFFFF800FFFFFFC0
000000000007FFFFC00000001FFFFFF800FFFFFFC0
00000000000FFFFFC00000001FFFFFF800FFFFFFC0
00000000000FFFFF800000001FFFFFF800FFFFFFC0
00000000000FFFFF800000001FFFFFF801FFFFFFC0
00000000001FFFFF800000001FFFFFFC01FFFFFFC0
00000000001FFFFF000000001FFFFFFE03FFFFFFC0
00000000003FFFFF000000001FFFFFFFFFFFFFFFC0
00000000003FFFFE000000001FFFFFFFFFFFFFFFC0
00000000003FFFFE000000000FFFFFFFFFFFFFFF80
00000000007FFFFE000000000FFFFFFFFFFFFFFF80
00000000007FFFFC000000000FFFFFFFFFFFFFFF80
00000000007FFFFC000000000FFFFFFFFFFFFFFF80
0000000000FFFFFC000000000FFFFFFFFFFFFFFF80
0000000000FFFFF80000000007FFFFFFFFFFFFFF00
0000000001FFFFF80000000007FFFFFFFFFFFFFF00
0000000001FFFFF00000000007FFFFFFFFFFFFFF00
0000000001FFFFF00000000003FFFFFFFFFFFFFE00
0000000003FFFFF00000000003FFFFFFFFFFFFFE00
0000000003FFFFE00000000001FFFFFFFFFFFFFC00
0000000007FFFFE00000000001FFFFFFFFFFFFFC00
0000000007FFFFE000000000007FFFFFFFFFFFF000
0000000007FFFFC000000000003FFFFFFFFFFFE000
000000000FFFFFC000000000000FFFFFFFFFFF8000
000000000FFFFF80000000000000FFFFFFFFF80000
000000000FFFFF8000000000000001FFFFFC000000
ENDCHAR
STARTCHAR 0026
ENCODING 38
SWIDTH 468 0
DWIDTH 104 0
BBX 96 180 8 0
BITMAP
0000007FFFFFFFFFFFC00000
00003FFFFFFFFFFFFFC00000
0001FFFFFFFFFFFFFFC00000
000FFFFFFFFFFFFFFFC00000
003FFFFFFFFFFFFFFFC00000
00FFFFFFFFFFFFFFFFC00000
01FFFFFFFFFFFFFFFFC00000
03FFFFFFFFFFFFFFFFC00000
07FFFFFFFFFFFFFFFFC00000
07FFFFFFFFFFFFFFFFC00000
0FFFFFFFFFFFFFFFFFC00000
0FFFFFFFFFFFFFFFFFC00000
1FFFFFFFFFFFFFFFFFC00000
1FFFFFFFFFFFFFFFFFC00000
3FFFFFFFFFFFFFFFFFC00000
3FFFFFFFFFFFFFFFFFC00000
3FFFFFFFFFFFFFFFFFC00000
3FFFFFFFFFFFFFFFFFC00000
7FFFFFFFFFFFFFFFFFC00000
7FFFFFFFFFFFFFFFFFC00000
7FFFFFFFFFFFFFFFFFC00000
7FFFFFFFFFFFFFFFFFC00000
7FFFFFFFFFFFFFFFFFC00000
7FFFFFFFFFFFFFFFFFC00000
7FFFFFFFFF80000000000000
FFFFFFFFFE00000000000000
FFFFFFFFFC00000000000000
FFFFFFFFF800000000000000
FFFFFFFFF800000000000000
FFFFFFFFF800000000000000
FFFFFFFFF800000000000000
FFFFFFFFF800000000000000
FFFFFFFFF800000000000000
FFFFFFFFF800000000000000
FFFFFFFFF800000000000000
FFFFFFFFF800000000000000
FFFFFFFFF800000000000000
FFFFFFFFF800000000000000
FFFFFFFFF800000000000000
FFFFFFFFF8007FFFFFFFF800
FFFFFFFFF8007FFFFFFFF800
FFFFFFFFF8007FFFFFFFF800
FFFFFFFFF8007FFFFFFFF800
FFFFFFFFF8007FFFFFFFF800
FFFFFFFFF8007FFFFFFFF800
FFFFFFFFF8007FFFFFFFF800
FFFFFFFFF8007FFFFFFFF800
FFFFFFFFF8007FFFFFFFF800
FFFFFFFFF8007FFFFFFFF800
FFFFFFFFF8007FFFFFFFF800
FFFFFFFFF8007FFFFFFFF800
FFFFFFFFF8007FFFFFFFF800
FFFFFFFFF8007FFFFFFFF800
FFFFFFFFF8007FFFFFFFF800
FFFFFFFFF8007FFFFFFFF800
FFFFFFFFF8007FFFFFFFF800
FFFFFFFFF8007FFFFFFFF800
FFFFFFFFF8007FFFFFFFF800
FFFFFFFFF8007FFFFFFFF800
FFFFFFFFF8007FFFFFFFF800
FFFFFFFFF8007FFFFFFFF800
FFFFFFFFF8007FFFFFFFF800
FFFFFFFFF8007FFFFFFFF800
FFFFFFFFF8007FFFFFFFF800
7FFFFFFFF8007FFFFFFFF800
7FFFFFFFF8007FFFFFFFF800
7FFFFFFFF8007FFFFFFFF800
7FFFFFFFFC007FFFFFFFF800
7FFFFFFFFC007FFFFFFFF800
3FFFFFFFFF007FFFFFFFF800
3FFFFFFFFFFFFFFFFFFFFFFF
3FFFFFFFFFFFFFFFFFFFFFFF
1FFFFFFFFFFFFFFFFFFFFFFF
1FFFFFFFFFFFFFFFFFFFFFFF
0FFFFFFFFFFFFFFFFFFFFFFF
07FFFFFFFFFFFFFFFFFFFFFF
07FFFFFFFFFFFFFFFFFFFFFF
01FFFFFFFFFFFFFFFFFFFFFF
00FFFFFFFFFFFFFFFFFFFFFF
007FFFFFFFFFFFFFFFFFFFFF
001FFFFFFFFFFFFFFFFFFFFF
0007FFFFFFFFFFFFFFFFFFFF
00007FFFFFFFFFFFFFFFFFFF
0003FFFFFFFFFFFFFFFFFFFF
000FFFFFFFFFFFFFFFFFFFFF
003FFFFFFFFFFFFFFFFFFFFF
00FFFFFFFFFFFFFFFFFFFFFF
01FFFFFFFFFFFFFFFFFFFFFF
03FFFFFFFFFFFFFFFFFFFFFF
07FFFFFFFFFFFFFFFFFFFFFF
0FFFFFFFFFFFFFFFFFFFFFFF
0FFFFFFFFFFFFFFFFFFFFFFF
1FFFFFFFFFFFFFFFFFFFFFFF
1FFFFFFFFFFFFFFFFFFFFFFF
3FFFFFFFFFFFFFFFFFFFFFFF
3FFFFFFFFFFFFFFFFFFFFFFF
3FFFFFFFFF007FFFFFFFF800
7FFFFFFFFC007FFFFFFFF800
7FFFFFFFFC007FFFFFFFF800
7FFFFFFFF8007FFFFFFFF800
7FFFFFFFF8007FFFFFFFF800
7FFFFFFFF8007FFFFFFFF800
FFFFFFFFF8007FFFFFFFF800
FFFFFFFFF8007FFFFFFFF800
FFFFFFFFF8007FFFFFFFF800
FFFFFFFFF8007FFFFFFFF800
FFFFFFFFF8007FFFFFFFF800
FFFFFFFFF8007FFFFFFFF800
FFFFFFFFF8007FFFFFFFF800
FFFFFFFFF8007FFFFFFFF800
FFFFFFFFF8007FFFFFFFF800
FFFFFFFFF8007FFFFFFFF800
FFFFFFFFF8007FFFFFFFF800
FFFFFFFFF8007FFFFFFFF800
FFFFFFFFF8007FFFFFFFF800
FFFFFFFFF8007FFFFFFFF800
FFFFFFFFF8007FFFFFFFF800
FFFFFFFFF8007FFFFFFFF800
FFFFFFFFF8007FFFFFFFF800
FFFFFFFFF8007FFFFFFFF800
FFFFFFFFF8007FFFFFFFF800
FFFFFFFFF8007FFFFFFFF800
FFFFFFFFF8007FFFFFFFF800
FFFFFFFFF8007FFFFFFFF800
FFFFFFFFF8007FFFFFFFF800
FFFFFFFFF8007FFFFFFFF800
FFFFFFFFF8007FFFFFFFF800
FFFFFFFFF8007FFFFFFFF800
FFFFFFFFF8007FFFFFFFF800
FFFFFFFFF8007FFFFFFFF800
FFFFFFFFF8007FFFFFFFF800
FFFFFFFFF8007FFFFFFFF800
FFFFFFFFF8007FFFFFFFF800
FFFFFFFFF8007FFFFFFFF800
FFFFFFFFF8007FFFFFFFF800
FFFFFFFFF8007FFFFFFFF800
FFFFFFFFF8007FFFFFFFF800
FFFFFFFFF8007FFFFFFFF800
FFFFFFFFF8007FFFFFFFF800
FFFFFFFFF8007FFFFFFFF800
FFFFFFFFF8007FFFFFFFF800
FFFFFFFFF8007FFFFFFFF800
FFFFFFFFF8007FFFFFFFF800
FFFFFFFFF8007FFFFFFFF800
FFFFFFFFF8007FFFFFFFF800
FFFFFFFFF8007FFFFFFFF800
FFFFFFFFF8007FFFFFFFF800
FFFFFFFFF8007FFFFFFFF800
FFFFFFFFF8007FFFFFFFF800
FFFFFFFFF8007FFFFFFFF800
FFFFFFFFF8007FFFFFFFF800
FFFFFFFFF8007FFFFFFFF800
FFFFFFFFFC007FFFFFFFF800
FFFFFFFFFC007FFFFFFFF800
7FFFFFFFFE007FFFFFFFF800
7FFFFFFFFF807FFFFFFFF800
7FFFFFFFFFFFFFFFFFFFF800
7FFFFFFFFFFFFFFFFFFFF800
7FFFFFFFFFFFFFFFFFFFF800
7FFFFFFFFFFFFFFFFFFFF800
3FFFFFFFFFFFFFFFFFFFF800
3FFFFFFFFFFFFFFFFFFFF800
3FFFFFFFFFFFFFFFFFFFF800
3FFFFFFFFFFFFFFFFFFFF800
1FFFFFFFFFFFFFFFFFFFF800
1FFFFFFFFFFFFFFFFFFFF800
1FFFFFFFFFFFFFFFFFFFF800
0FFFFFFFFFFFFFFFFFFFF800
0FFFFFFFFFFFFFFFFFFFF800
07FFFFFFFFFFFFFFFFFFF800
03FFFFFFFFFFFFFFFFFFF800
01FFFFFFFFFFFFFFFFFFF800
00FFFFFFFFFFFFFFFFFFF800
007FFFFFFFFFFFFFFFFFF800
003FFFFFFFFFFFFFFFFFF800
000FFFFFFFFFFFFFFFFFF800
0001FFFFFFFFFFFFFFFFF800
00001FFFFFFFFFFFFFFFF800
000000FFFFFFFFFFFFFFF800
000000003FFFFFFFFFFFF800
ENDCHAR
STARTCHAR 0027
ENCODING 39
SWIDTH 198 0
DWIDTH 44 0
BBX 22 61 11 95
BITMAP
FFFFFC
FFFFFC
FFFFFC
FFFFFC
FFFFFC
FFFFFC
FFFFFC
FFFFFC
FFFFFC
FFFFFC
FFFFFC
FFFFFC
FFFFFC
FFFFFC
FFFFFC
FFFFFC
FFFFFC
FFFFFC
FFFFFC
FFFFFC
FFFFFC
FFFFFC
FFFFFC
FFFFFC
FFFFFC
FFFFFC
FFFFFC
FFFFFC
FFFFFC
FFFFFC
FFFFFC
FFFFFC
FFFFFC
FFFFFC
FFFFFC
FFFFFC
FFFFFC
FFFFFC
FFFFFC
FFFFFC
FFFFFC
FFFFFC
FFFFFC
FFFFFC
FFFFFC
FFFFFC
FFFFFC
FFFFFC
FFFFFC
FFFFFC
FFFFFC
FFFFFC
FFFFFC
FFFFFC
FFFFFC
FFFFFC
FFFFFC
FFFFFC
FFFFFC
FFFFFC
FFFFFC
ENDCHAR
STARTCHAR 0028
ENCODING 40
SWIDTH 252 0
DWIDTH 56 0
BBX 44 211 10 -31
BITMAP
000001FFFFF0
00007FFFFFF0
0003FFFFFFF0
001FFFFFFFF0
007FFFFFFFF0
00FFFFFFFFF0
01FFFFFFFFF0
03FFFFFFFFF0
07FFFFFFFFF0
0FFFFFFFFFF0
0FFFFFFFFFF0
1FFFFFFFFFF0
1FFFFFFFFFF0
3FFFFFFFFFF0
3FFFFFFFFFF0
3FFFFFFFFFF0
7FFFFFFFFFF0
7FFFFFFFFFF0
7FFFFFFFFFF0
7FFFFFFFFFF0
7FFFFFFFFFF0
FFFFFFFFFFF0
FFFFFFFFFFF0
FFFFFFFFFFF0
FFFFFFFFFE00
FFFFFFFFF800
FFFFFFFFF000
FFFFFFFFF000
FFFFFFFFE000
FFFFFFFFE000
FFFFFFFFE000
FFFFFFFFE000
FFFFFFFFE000
FFFFFFFFE000
FFFFFFFFE000
FFFFFFFFE000
FFFFFFFFE000
FFFFFFFFE000
FFFFFFFFE000
FFFFFFFFE000
FFFFFFFFE000
FFFFFFFFE000
FFFFFFFFE000
FFFFFFFFE000
FFFFFFFFE000
FFFFFFFFE000
FFFFFFFFE000
FFFFFFFFE000
FFFFFFFFE000
FFFFFFFFE000
FFFFFFFFE000
FFFFFFFFE000
FFFFFFFFE000
FFFFFFFFE000
FFFFFFFFE000
FFFFFFFFE000
FFFFFFFFE000
FFFFFFFFE000
FFFFFFFFE000
FFFFFFFFE000
FFFFFFFFE000
FFFFFFFFE000
FFFFFFFFE000
FFFFFFFFE000
FFFFFFFFE000
FFFFFFFFE000
FFFFFFFFE000
FFFFFFFFE000
FFFFFFFFE000
FFFFFFFFE000
FFFFFFFFE000
FFFFFFFFE000
FFFFFFFFE000
FFFFFFFFE000
FFFFFFFFE000
FFFFFFFFE000
FFFFFFFFE000
FFFFFFFFE000
FFFFFFFFE000
FFFFFFFFE000
FFFFFFFFE000
FFFFFFFFE000
FFFFFFFFE000
FFFFFFFFE000
FFFFFFFFE000
FFFFFFFFE000
FFFFFFFFE000
FFFFFFFFE000
FFFFFFFFE000
FFFFFFFFE000
FFFFFFFFE000
FFFFFFFFE000
FFFFFFFFE000
FFFFFFFFE000
FFFFFFFFE000
FFFFFFFFE000
FFFFFFFFE000
FFFFFFFFE000
FFFFFFFFE000
FFFFFFFFE000
FFFFFFFFE000
FFFFFFFFE000
FFFFFFFFE000
FFFFFFFFE000
FFFFFFFFE000
FFFFFFFFE000
FFFFFFFFE000
FFFFFFFFE000
FFFFFFFFE000
FFFFFFFFE000
FFFFFFFFE000
FFFFFFFFE000
FFFFFFFFE000
FFFFFFFFE000
FFFFFFFFE000
FFFFFFFFE000
FFFFFFFFE000
FFFFFFFFE000
FFFFFFFFE000
FFFFFFFFE000
FFFFFFFFE000
FFFFFFFFE000
FFFFFFFFE000
FFFFFFFFE000
FFFFFFFFE000
FFFFFFFFE000
FFFFFFFFE000
FFFFFFFFE000
FFFFFFFFE000
FFFFFFFFE000
FFFFFFFFE000
FFFFFFFFE000
FFFFFFFFE000
FFFFFFFFE000
FFFFFFFFE000
FFFFFFFFE000
FFFFFFFFE000
FFFFFFFFE000
FFFFFFFFE000
FFFFFFFFE000
FFFFFFFFE000
FFFFFFFFE000
FFFFFFFFE000
FFFFFFFFE000
FFFFFFFFE000
FFFFFFFFE000
FFFFFFFFE000
FFFFFFFFE000
FFFFFFFFE000
FFFFFFFFE000
FFFFFFFFE000
FFFFFFFFE000
FFFFFFFFE000
FFFFFFFFE000
FFFFFFFFE000
FFFFFFFFE000
FFFFFFFFE000
FFFFFFFFE000
FFFFFFFFE000
FFFFFFFFE000
FFFFFFFFE000
FFFFFFFFE000
FFFFFFFFE000
FFFFFFFFE000
FFFFFFFFE000
FFFFFFFFE000
FFFFFFFFE000
FFFFFFFFE000
FFFFFFFFE000
FFFFFFFFE000
FFFFFFFFE000
FFFFFFFFE000
FFFFFFFFE000
FFFFFFFFE000
FFFFFFFFE000
FFFFFFFFE000
FFFFFFFFE000
FFFFFFFFE000
FFFFFFFFE000
FFFFFFFFE000
FFFFFFFFE000
FFFFFFFFE000
FFFFFFFFE000
FFFFFFFFF000
FFFFFFFFF000
FFFFFFFFF800
FFFFFFFFFF00
FFFFFFFFFFF0
FFFFFFFFFFF0
7FFFFFFFFFF0
7FFFFFFFFFF0
7FFFFFFFFFF0
7FFFFFFFFFF0
7FFFFFFFFFF0
7FFFFFFFFFF0
3FFFFFFFFFF0
3FFFFFFFFFF0
3FFFFFFFFFF0
1FFFFFFFFFF0
1FFFFFFFFFF0
0FFFFFFFFFF0
0FFFFFFFFFF0
07FFFFFFFFF0
03FFFFFFFFF0
01FFFFFFFFF0
00FFFFFFFFF0
003FFFFFFFF0
001FFFFFFFF0
0003FFFFFFF0
00007FFFFFF0
000001FFFFF0
ENDCHAR
STARTCHAR 0029
ENCODING 41
SWIDTH 252 0
DWIDTH 56 0
BBX 44 211 3 -31
BITMAP
FFFFFC000000
FFFFFFE00000
FFFFFFFE0000
FFFFFFFF8000
FFFFFFFFE000
FFFFFFFFF000
FFFFFFFFFC00
FFFFFFFFFC00
FFFFFFFFFE00
FFFFFFFFFF00
FFFFFFFFFF00
FFFFFFFFFF80
FFFFFFFFFF80
FFFFFFFFFFC0
FFFFFFFFFFC0
FFFFFFFFFFC0
FFFFFFFFFFE0
FFFFFFFFFFE0
FFFFFFFFFFE0
FFFFFFFFFFE0
FFFFFFFFFFE0
FFFFFFFFFFF0
FFFFFFFFFFF0
FFFFFFFFFFF0
07FFFFFFFFF0
01FFFFFFFFF0
00FFFFFFFFF0
00FFFFFFFFF0
007FFFFFFFF0
007FFFFFFFF0
007FFFFFFFF0
007FFFFFFFF0
007FFFFFFFF0
007FFFFFFFF0
007FFFFFFFF0
007FFFFFFFF0
007FFFFFFFF0
007FFFFFFFF0
007FFFFFFFF0
007FFFFFFFF0
007FFFFFFFF0
007FFFFFFFF0
007FFFFFFFF0
007FFFFFFFF0
007FFFFFFFF0
007FFFFFFFF0
007FFFFFFFF0
007FFFFFFFF0
007FFFFFFFF0
007FFFFFFFF0
007FFFFFFFF0
007FFFFFFFF0
007FFFFFFFF0
007FFFFFFFF0
007FFFFFFFF0
007FFFFFFFF0
007FFFFFFFF0
007FFFFFFFF0
007FFFFFFFF0
007FFFFFFFF0
007FFFFFFFF0
007FFFFFFFF0
007FFFFFFFF0
007FFFFFFFF0
007FFFFFFFF0
007FFFFFFFF0
007FFFFFFFF0
007FFFFFFFF0
007FFFFFFFF0
007FFFFFFFF0
007FFFFFFFF0
007FFFFFFFF0
007FFFFFFFF0
007FFFFFFFF0
007FFFFFFFF0
007FFFFFFFF0
007FFFFFFFF0
007FFFFFFFF0
007FFFFFFFF0
007FFFFFFFF0
007FFFFFFFF0
007FFFFFFFF0
007FFFFFFFF0
007FFFFFFFF0
007FFFFFFFF0
007FFFFFFFF0
007FFFFFFFF0
007FFFFFFFF0
007FFFFFFFF0
007FFFFFFFF0
007FFFFFFFF0
007FFFFFFFF0
007FFFFFFFF0
007FFFFFFFF0
007FFFFFFFF0
007FFFFFFFF0
007FFFFFFFF0
007FFFFFFFF0
007FFFFFFFF0
007FFFFFFFF0
007FFFFFFFF0
007FFFFFFFF0
007FFFFFFFF0
007FFFFFFFF0
007FFFFFFFF0
007FFFFFFFF0
007FFFFFFFF0
007FFFFFFFF0
007FFFFFFFF0
007FFFFFFFF0
007FFFFFFFF0
007FFFFFFFF0
007FFFFFFFF0
007FFFFFFFF0
007FFFFFFFF0
007FFFFFFFF0
007FFFFFFFF0
007FFFFFFFF0
007FFFFFFFF0
007FFFFFFFF0
007FFFFFFFF0
007FFFFFFFF0
007FFFFFFFF0
007FFFFFFFF0
007FFFFFFFF0
007FFFFFFFF0
007FFFFFFFF0
007FFFFFFFF0
007FFFFFFFF0
007FFFFFFFF0
007FFFFFFFF0
007FFFFFFFF0
007FFFFFFFF0
007FFFFFFFF0
007FFFFFFFF0
007FFFFFFFF0
007FFFFFFFF0
007FFFFFFFF0
007FFFFFFFF0
007FFFFFFFF0
007FFFFFFFF0
007FFFFFFFF0
007FFFFFFFF0
007FFFFFFFF0
007FFFFFFFF0
007FFFFFFFF0
007FFFFFFFF0
007FFFFFFFF0
007FFFFFFFF0
007FFFFFFFF0
007FFFFFFFF0
007FFFFFFFF0
007FFFFFFFF0
007FFFFFFFF0
007FFFFFFFF0
007FFFFFFFF0
007FFFFFFFF0
007FFFFFFFF0
007FFFFFFFF0
007FFFFFFFF0
007FFFFFFFF0
007FFFFFFFF0
007FFFFFFFF0
007FFFFFFFF0
007FFFFFFFF0
007FFFFFFFF0
007FFFFFFFF0
007FFFFFFFF0
007FFFFFFFF0
007FFFFFFFF0
007FFFFFFFF0
007FFFFFFFF0
007FFFFFFFF0
007FFFFFFFF0
007FFFFFFFF0
007FFFFFFFF0
007FFFFFFFF0
007FFFFFFFF0
007FFFFFFFF0
007FFFFFFFF0
007FFFFFFFF0
007FFFFFFFF0
007FFFFFFFF0
00FFFFFFFFF0
00FFFFFFFFF0
01FFFFFFFFF0
07FFFFFFFFF0
FFFFFFFFFFF0
FFFFFFFFFFF0
FFFFFFFFFFF0
FFFFFFFFFFE0
FFFFFFFFFFE0
FFFFFFFFFFE0
FFFFFFFFFFE0
FFFFFFFFFFE0
FFFFFFFFFFC0
FFFFFFFFFFC0
FFFFFFFFFFC0
FFFFFFFFFF80
FFFFFFFFFF80
FFFFFFFFFF00
FFFFFFFFFF00
FFFFFFFFFE00
FFFFFFFFFC00
FFFFFFFFF800
FFFFFFFFF000
FFFFFFFFE000
FFFFFFFF8000
FFFFFFFE0000
FFFFFFF00000
FFFFF8000000
ENDCHAR
STARTCHAR 002A
ENCODING 42
SWIDTH 423 0
DWIDTH 94 0
BBX 86 68 4 112
BITMAP
00000000FFFFF800000000
00000000FFFFF800000000
00000000FFFFF800000000
00000000FFFFF800000000
00000000FFFFF800000000
00000000FFFFF800000000
00000000FFFFF800000000
00000000FFFFF800000000
00000000FFFFF800000000
00000000FFFFF800000000
00000000FFFFF800000000
00000000FFFFF800000000
00000000FFFFF800000000
00000000FFFFF800000000
00000000FFFFF800000000
00000000FFFFF800000000
03C00000FFFFF800001F00
03FC0000FFFFF80000FF00
07FF8000FFFFF8000FFF00
07FFF800FFFFF800FFFF80
07FFFF80FFFFF807FFFF80
0FFFFFF0FFFFF87FFFFFC0
0FFFFFFFFFFFFFFFFFFFC0
0FFFFFFFFFFFFFFFFFFFC0
1FFFFFFFFFFFFFFFFFFFE0
1FFFFFFFFFFFFFFFFFFFE0
3FFFFFFFFFFFFFFFFFFFF0
3FFFFFFFFFFFFFFFFFFFF0
3FFFFFFFFFFFFFFFFFFFF0
7FFFFFFFFFFFFFFFFFFFF8
7FFFFFFFFFFFFFFFFFFFF8
FFFFFFFFFFFFFFFFFFFFFC
3FFFFFFFFFFFFFFFFFFFF0
07FFFFFFFFFFFFFFFFFF00
007FFFFFFFFFFFFFFFF800
0007FFFFFFFFFFFFFF8000
0000FFFFFFFFFFFFF80000
00000FFFFFFFFFFF800000
000000FFFFFFFFF8000000
0000003FFFFFFFF0000000
0000007FFFFFFFF0000000
000000FFFFFFFFF8000000
000001FFFFFFFFFC000000
000003FFFFFFFFFE000000
000007FFFFFFFFFF000000
00000FFFFFFFFFFF800000
00000FFFFFFFFFFFC00000
00001FFFFFFFFFFFE00000
00003FFFFFFFFFFFF00000
00007FFFFFFFFFFFF80000
0000FFFFFF9FFFFFFC0000
0001FFFFFF0FFFFFFE0000
0003FFFFFE07FFFFFF0000
0007FFFFFE03FFFFFF0000
0007FFFFFC01FFFFFF8000
000FFFFFF800FFFFFFC000
001FFFFFF0007FFFFFE000
003FFFFFE0007FFFFFE000
001FFFFFC0003FFFFFC000
0007FFFFC0001FFFFF0000
0001FFFF80000FFFFE0000
0000FFFF000007FFF80000
00003FFE000003FFE00000
00001FFC000001FFC00000
000007FC000000FF000000
000001F8000000FC000000
000000F000000078000000
0000002000000020000000
ENDCHAR
STARTCHAR 002B
ENCODING 43
SWIDTH 999 0
DWIDTH 222 0
BBX 156 132 33 1
BITMAP
00000000000000001FFFFFC00000000000000000
00000000000000001FFFFFC00000000000000000
00000000000000001FFFFFC00000000000000000
00000000000000001FFFFFC00000000000000000
00000000000000001FFFFFC00000000000000000
00000000000000001FFFFFC00000000000000000
00000000000000001FFFFFC00000000000000000
00000000000000001FFFFFC00000000000000000
00000000000000001FFFFFC00000000000000000
00000000000000001FFFFFC00000000000000000
00000000000000001FFFFFC00000000000000000
00000000000000001FFFFFC00000000000000000
00000000000000001FFFFFC00000000000000000
00000000000000001FFFFFC00000000000000000
00000000000000001FFFFFC00000000000000000
00000000000000001FFFFFC00000000000000000
00000000000000001FFFFFC00000000000000000
00000000000000001FFFFFC00000000000000000
00000000000000001FFFFFC00000000000000000
00000000000000001FFFFFC00000000000000000
00000000000000001FFFFFC00000000000000000
00000000000000001FFFFFC00000000000000000
00000000000000001FFFFFC00000000000000000
00000000000000001FFFFFC00000000000000000
00000000000000001FFFFFC00000000000000000
00000000000000001FFFFFC00000000000000000
00000000000000001FFFFFC00000000000000000
00000000000000001FFFFFC00000000000000000
00000000000000001FFFFFC00000000000000000
00000000000000001FFFFFC00000000000000000
00000000000000001FFFFFC00000000000000000
00000000000000001FFFFFC00000000000000000
00000000000000001FFFFFC00000000000000000
00000000000000001FFFFFC00000000000000000
00000000000000001FFFFFC00000000000000000
00000000000000001FFFFFC00000000000000000
00000000000000001FFFFFC00000000000000000
00000000000000001FFFFFC00000000000000000
00000000000000001FFFFFC00000000000000000
00000000000000001FFFFFC00000000000000000
00000000000000001FFFFFC00000000000000000
00000000000000001FFFFFC00000000000000000
00000000000000001FFFFFC00000000000000000
00000000000000001FFFFFC00000000000000000
00000000000000001FFFFFC00000000000000000
00000000000000001FFFFFC00000000000000000
00000000000000001FFFFFC00000000000000000
00000000000000001FFFFFC00000000000000000
00000000000000001FFFFFC00000000000000000
00000000000000001FFFFFC00000000000000000
00000000000000001FFFFFC00000000000000000
00000000000000001FFFFFC00000000000000000
00000000000000001FFFFFC00000000000000000
00000000000000001FFFFFC00000000000000000
00000000000000001FFFFFC00000000000000000
00000000000000001FFFFFC00000000000000000
00000000000000001FFFFFC00000000000000000
FFFFFFFFFFFFFFFFFFFFFFFFFFFFFFFFFFFFFFF0
FFFFFFFFFFFFFFFFFFFFFFFFFFFFFFFFFFFFFFF0
FFFFFFFFFFFFFFFFFFFFFFFFFFFFFFFFFFFFFFF0
FFFFFFFFFFFFFFFFFFFFFFFFFFFFFFFFFFFFFFF0
FFFFFFFFFFFFFFFFFFFFFFFFFFFFFFFFFFFFFFF0
FFFFFFFFFFFFFFFFFFFFFFFFFFFFFFFFFFFFFFF0
FFFFFFFFFFFFFFFFFFFFFFFFFFFFFFFFFFFFFFF0
FFFFFFFFFFFFFFFFFFFFFFFFFFFFFFFFFFFFFFF0
FFFFFFFFFFFFFFFFFFFFFFFFFFFFFFFFFFFFFFF0
FFFFFFFFFFFFFFFFFFFFFFFFFFFFFFFFFFFFFFF0
FFFFFFFFFFFFFFFFFFFFFFFFFFFFFFFFFFFFFFF0
FFFFFFFFFFFFFFFFFFFFFFFFFFFFFFFFFFFFFFF0
FFFFFFFFFFFFFFFFFFFFFFFFFFFFFFFFFFFFFFF0
FFFFFFFFFFFFFFFFFFFFFFFFFFFFFFFFFFFFFFF0
FFFFFFFFFFFFFFFFFFFFFFFFFFFFFFFFFFFFFFF0
FFFFFFFFFFFFFFFFFFFFFFFFFFFFFFFFFFFFFFF0
FFFFFFFFFFFFFFFFFFFFFFFFFFFFFFFFFFFFFFF0
FFFFFFFFFFFFFFFFFFFFFFFFFFFFFFFFFFFFFFF0
FFFFFFFFFFFFFFFFFFFFFFFFFFFFFFFFFFFFFFF0
00000000000000001FFFFFC00000000000000000
00000000000000001FFFFFC00000000000000000
00000000000000001FFFFFC00000000000000000
00000000000000001FFFFFC00000000000000000
00000000000000001FFFFFC00000000000000000
00000000000000001FFFFFC00000000000000000
00000000000000001FFFFFC00000000000000000
00000000000000001FFFFFC00000000000000000
00000000000000001FFFFFC00000000000000000
00000000000000001FFFFFC00000000000000000
00000000000000001FFFFFC00000000000000000
00000000000000001FFFFFC00000000000000000
00000000000000001FFFFFC00000000000000000
00000000000000001FFFFFC00000000000000000
00000000000000001FFFFFC00000000000000000
00000000000000001FFFFFC00000000000000000
00000000000000001FFFFFC00000000000000000
00000000000000001FFFFFC00000000000000000
00000000000000001FFFFFC00000000000000000
00000000000000001FFFFFC00000000000000000
00000000000000001FFFFFC00000000000000000
00000000000000001FFFFFC00000000000000000
00000000000000001FFFFFC00000000000000000
00000000000000001FFFFFC00000000000000000
00000000000000001FFFFFC00000000000000000
00000000000000001FFFFFC00000000000000000
00000000000000001FFFFFC00000000000000000
00000000000000001FFFFFC00000000000000000
00000000000000001FFFFFC00000000000000000
00000000000000001FFFFFC00000000000000000
00000000000000001FFFFFC00000000000000000
00000000000000001FFFFFC00000000000000000
00000000000000001FFFFFC00000000000000000
00000000000000001FFFFFC00000000000000000
00000000000000001FFFFFC00000000000000000
00000000000000001FFFFFC00000000000000000
00000000000000001FFFFFC00000000000000000
00000000000000001FFFFFC00000000000000000
00000000000000001FFFFFC00000000000000000
00000000000000001FFFFFC00000000000000000
00000000000000001FFFFFC00000000000000000
00000000000000001FFFFFC00000000000000000
00000000000000001FFFFFC00000000000000000
00000000000000001FFFFFC00000000000000000
00000000000000001FFFFFC00000000000000000
00000000000000001FFFFFC00000000000000000
00000000000000001FFFFFC00000000000000000
00000000000000001FFFFFC00000000000000000
00000000000000001FFFFFC00000000000000000
00000000000000001FFFFFC00000000000000000
00000000000000001FFFFFC00000000000000000
00000000000000001FFFFFC00000000000000000
00000000000000001FFFFFC00000000000000000
00000000000000001FFFFFC00000000000000000
00000000000000001FFFFFC00000000000000000
00000000000000001FFFFFC00000000000000000
ENDCHAR
STARTCHAR 002C
ENCODING 44
SWIDTH 229 0
DWIDTH 51 0
BBX 31 63 10 -31
BITMAP
FFFFFFFE
FFFFFFFE
FFFFFFFE
FFFFFFFE
FFFFFFFE
FFFFFFFE
FFFFFFFE
FFFFFFFE
FFFFFFFE
FFFFFFFE
FFFFFFFE
FFFFFFFE
FFFFFFFE
FFFFFFFE
FFFFFFFE
FFFFFFFE
FFFFFFFE
FFFFFFFE
FFFFFFFE
FFFFFFFE
FFFFFFFE
FFFFFFFE
FFFFFFFE
FFFFFFFE
FFFFFFFE
FFFFFFFE
FFFFFFFE
FFFFFFFE
FFFFFFFE
FFFFFFFE
FFFFFFFE
FFFFFFFE
0007FFFE
0007FFFE
0007FFFE
0007FFFE
0007FFFE
0007FFFE
0007FFFE
0007FFFE
0007FFFE
000FFFFC
000FFFFC
001FFFFC
001FFFFC
003FFFFC
00FFFFF8
03FFFFF8
FFFFFFF8
FFFFFFF0
FFFFFFF0
FFFFFFE0
FFFFFFC0
FFFFFFC0
FFFFFF80
FFFFFF00
FFFFFE00
FFFFF800
FFFFF000
FFFFC000
FFFF0000
FFF80000
FE000000
ENDCHAR
STARTCHAR 002D
ENCODING 45
SWIDTH 301 0
DWIDTH 67 0
BBX 52 24 7 62
BITMAP
FFFFFFFFFFFFF0
FFFFFFFFFFFFF0
FFFFFFFFFFFFF0
FFFFFFFFFFFFF0
FFFFFFFFFFFFF0
FFFFFFFFFFFFF0
FFFFFFFFFFFFF0
FFFFFFFFFFFFF0
FFFFFFFFFFFFF0
FFFFFFFFFFFFF0
FFFFFFFFFFFFF0
FFFFFFFFFFFFF0
FFFFFFFFFFFFF0
FFFFFFFFFFFFF0
FFFFFFFFFFFFF0
FFFFFFFFFFFFF0
FFFFFFFFFFFFF0
FFFFFFFFFFFFF0
FFFFFFFFFFFFF0
FFFFFFFFFFFFF0
FFFFFFFFFFFFF0
FFFFFFFFFFFFF0
FFFFFFFFFFFFF0
FFFFFFFFFFFFF0
ENDCHAR
STARTCHAR 002E
ENCODING 46
SWIDTH 229 0
DWIDTH 51 0
BBX 31 32 10 0
BITMAP
FFFFFFFE
FFFFFFFE
FFFFFFFE
FFFFFFFE
FFFFFFFE
FFFFFFFE
FFFFFFFE
FFFFFFFE
FFFFFFFE
FFFFFFFE
FFFFFFFE
FFFFFFFE
FFFFFFFE
FFFFFFFE
FFFFFFFE
FFFFFFFE
FFFFFFFE
FFFFFFFE
FFFFFFFE
FFFFFFFE
FFFFFFFE
FFFFFFFE
FFFFFFFE
FFFFFFFE
FFFFFFFE
FFFFFFFE
FFFFFFFE
FFFFFFFE
FFFFFFFE
FFFFFFFE
FFFFFFFE
FFFFFFFE
ENDCHAR
STARTCHAR 002F
ENCODING 47
SWIDTH 319 0
DWIDTH 71 0
BBX 71 201 -2 -21
BITMAP
0000000000003FFFFE
0000000000003FFFFE
0000000000003FFFFC
0000000000003FFFFC
0000000000007FFFFC
0000000000007FFFFC
0000000000007FFFF8
0000000000007FFFF8
000000000000FFFFF8
000000000000FFFFF8
000000000000FFFFF0
000000000000FFFFF0
000000000001FFFFF0
000000000001FFFFF0
000000000001FFFFE0
000000000001FFFFE0
000000000003FFFFE0
000000000003FFFFE0
000000000003FFFFC0
000000000003FFFFC0
000000000007FFFFC0
000000000007FFFFC0
000000000007FFFF80
000000000007FFFF80
00000000000FFFFF80
00000000000FFFFF80
00000000000FFFFF00
00000000000FFFFF00
00000000001FFFFF00
00000000001FFFFF00
00000000001FFFFE00
00000000001FFFFE00
00000000003FFFFE00
00000000003FFFFE00
00000000003FFFFC00
00000000007FFFFC00
00000000007FFFFC00
00000000007FFFFC00
00000000007FFFF800
0000000000FFFFF800
0000000000FFFFF800
0000000000FFFFF800
0000000000FFFFF000
0000000001FFFFF000
0000000001FFFFF000
0000000001FFFFF000
0000000001FFFFE000
0000000003FFFFE000
0000000003FFFFE000
0000000003FFFFE000
0000000003FFFFC000
0000000007FFFFC000
0000000007FFFFC000
0000000007FFFFC000
0000000007FFFF8000
000000000FFFFF8000
000000000FFFFF8000
000000000FFFFF8000
000000000FFFFF0000
000000001FFFFF0000
000000001FFFFF0000
000000001FFFFF0000
000000001FFFFE0000
000000003FFFFE0000
000000003FFFFE0000
000000003FFFFE0000
000000003FFFFC0000
000000007FFFFC0000
000000007FFFFC0000
000000007FFFFC0000
000000007FFFF80000
00000000FFFFF80000
00000000FFFFF80000
00000000FFFFF80000
00000000FFFFF00000
00000001FFFFF00000
00000001FFFFF00000
00000001FFFFF00000
00000001FFFFF00000
00000003FFFFE00000
00000003FFFFE00000
00000003FFFFE00000
00000003FFFFE00000
00000007FFFFC00000
00000007FFFFC00000
00000007FFFFC00000
00000007FFFFC00000
0000000FFFFF800000
0000000FFFFF800000
0000000FFFFF800000
0000000FFFFF800000
0000001FFFFF000000
0000001FFFFF000000
0000001FFFFF000000
0000001FFFFF000000
0000003FFFFE000000
0000003FFFFE000000
0000003FFFFE000000
0000003FFFFE000000
0000007FFFFC000000
0000007FFFFC000000
0000007FFFFC000000
0000007FFFFC000000
000000FFFFF8000000
000000FFFFF8000000
000000FFFFF8000000
000000FFFFF8000000
000001FFFFF0000000
000001FFFFF0000000
000001FFFFF0000000
000001FFFFF0000000
000003FFFFE0000000
000003FFFFE0000000
000003FFFFE0000000
000003FFFFE0000000
000007FFFFC0000000
000007FFFFC0000000
000007FFFFC0000000
000007FFFFC0000000
00000FFFFF80000000
00000FFFFF80000000
00000FFFFF80000000
00000FFFFF80000000
00001FFFFF00000000
00001FFFFF00000000
00001FFFFF00000000
00001FFFFF00000000
00003FFFFE00000000
00003FFFFE00000000
00003FFFFE00000000
00003FFFFE00000000
00007FFFFC00000000
00007FFFFC00000000
00007FFFFC00000000
00007FFFFC00000000
0000FFFFF800000000
0000FFFFF800000000
0000FFFFF800000000
0000FFFFF800000000
0001FFFFF000000000
0001FFFFF000000000
0001FFFFF000000000
0001FFFFF000000000
0003FFFFE000000000
0003FFFFE000000000
0003FFFFE000000000
0003FFFFE000000000
0007FFFFC000000000
0007FFFFC000000000
0007FFFFC000000000
0007FFFFC000000000
000FFFFF8000000000
000FFFFF8000000000
000FFFFF8000000000
000FFFFF8000000000
001FFFFF0000000000
001FFFFF0000000000
001FFFFF0000000000
001FFFFF0000000000
003FFFFE0000000000
003FFFFE0000000000
003FFFFE0000000000
003FFFFE0000000000
007FFFFC0000000000
007FFFFC0000000000
007FFFFC0000000000
007FFFFC0000000000
00FFFFF80000000000
00FFFFF80000000000
00FFFFF80000000000
00FFFFF80000000000
01FFFFF00000000000
01FFFFF00000000000
01FFFFF00000000000
01FFFFF00000000000
03FFFFE00000000000
03FFFFE00000000000
03FFFFE00000000000
03FFFFE00000000000
07FFFFC00000000000
07FFFFC00000000000
07FFFFC00000000000
07FFFFC00000000000
0FFFFF800000000000
0FFFFF800000000000
0FFFFF800000000000
0FFFFF800000000000
1FFFFF000000000000
1FFFFF000000000000
1FFFFF000000000000
1FFFFF000000000000
3FFFFE000000000000
3FFFFE000000000000
3FFFFE000000000000
3FFFFE000000000000
7FFFFC000000000000
7FFFFC000000000000
7FFFFC000000000000
7FFFFC000000000000
FFFFF8000000000000
FFFFF8000000000000
ENDCHAR
STARTCHAR 0030
ENCODING 48
SWIDTH 459 0
DWIDTH 102 0
BBX 86 181 8 -1
BITMAP
00000007FFFFFF80000000
00000FFFFFFFFFFF800000
0001FFFFFFFFFFFFFC0000
000FFFFFFFFFFFFFFF8000
003FFFFFFFFFFFFFFFF000
00FFFFFFFFFFFFFFFFF800
01FFFFFFFFFFFFFFFFFE00
03FFFFFFFFFFFFFFFFFF00
07FFFFFFFFFFFFFFFFFF00
07FFFFFFFFFFFFFFFFFF80
0FFFFFFFFFFFFFFFFFFFC0
0FFFFFFFFFFFFFFFFFFFC0
1FFFFFFFFFFFFFFFFFFFE0
1FFFFFFFFFFFFFFFFFFFE0
3FFFFFFFFFFFFFFFFFFFE0
3FFFFFFFFFFFFFFFFFFFF0
3FFFFFFFFFFFFFFFFFFFF0
3FFFFFFFFFFFFFFFFFFFF0
7FFFFFFFFFFFFFFFFFFFF0
7FFFFFFFFFFFFFFFFFFFF8
7FFFFFFFFFFFFFFFFFFFF8
7FFFFFFFFFFFFFFFFFFFF8
7FFFFFFFFFFFFFFFFFFFF8
7FFFFFFFFE03FFFFFFFFF8
FFFFFFFFFC00FFFFFFFFF8
FFFFFFFFFC00FFFFFFFFFC
FFFFFFFFF800FFFFFFFFFC
FFFFFFFFF8007FFFFFFFFC
FFFFFFFFF8007FFFFFFFFC
FFFFFFFFF8007FFFFFFFFC
FFFFFFFFF8007FFFFFFFFC
FFFFFFFFF8007FFFFFFFFC
FFFFFFFFF8007FFFFFFFFC
FFFFFFFFF8007FFFFFFFFC
FFFFFFFFF8007FFFFFFFFC
FFFFFFFFF8007FFFFFFFFC
FFFFFFFFF8007FFFFFFFFC
FFFFFFFFF8007FFFFFFFFC
FFFFFFFFF8007FFFFFFFFC
FFFFFFFFF8007FFFFFFFFC
FFFFFFFFF8007FFFFFFFFC
FFFFFFFFF8007FFFFFFFFC
FFFFFFFFF8007FFFFFFFFC
FFFFFFFFF8007FFFFFFFFC
FFFFFFFFF8007FFFFFFFFC
FFFFFFFFF8007FFFFFFFFC
FFFFFFFFF8007FFFFFFFFC
FFFFFFFFF8007FFFFFFFFC
FFFFFFFFF8007FFFFFFFFC
FFFFFFFFF8007FFFFFFFFC
FFFFFFFFF8007FFFFFFFFC
FFFFFFFFF8007FFFFFFFFC
FFFFFFFFF8007FFFFFFFFC
FFFFFFFFF8007FFFFFFFFC
FFFFFFFFF8007FFFFFFFFC
FFFFFFFFF8007FFFFFFFFC
FFFFFFFFF8007FFFFFFFFC
FFFFFFFFF8007FFFFFFFFC
FFFFFFFFF8007FFFFFFFFC
FFFFFFFFF8007FFFFFFFFC
FFFFFFFFF8007FFFFFFFFC
FFFFFFFFF8007FFFFFFFFC
FFFFFFFFF8007FFFFFFFFC
FFFFFFFFF8007FFFFFFFFC
FFFFFFFFF8007FFFFFFFFC
FFFFFFFFF8007FFFFFFFFC
FFFFFFFFF8007FFFFFFFFC
FFFFFFFFF8007FFFFFFFFC
FFFFFFFFF8007FFFFFFFFC
FFFFFFFFF8007FFFFFFFFC
FFFFFFFFF8007FFFFFFFFC
FFFFFFFFF8007FFFFFFFFC
FFFFFFFFF8007FFFFFFFFC
FFFFFFFFF8007FFFFFFFFC
FFFFFFFFF8007FFFFFFFFC
FFFFFFFFF8007FFFFFFFFC
FFFFFFFFF8007FFFFFFFFC
FFFFFFFFF8007FFFFFFFFC
FFFFFFFFF8007FFFFFFFFC
FFFFFFFFF8007FFFFFFFFC
FFFFFFFFF8007FFFFFFFFC
FFFFFFFFF8007FFFFFFFFC
FFFFFFFFF8007FFFFFFFFC
FFFFFFFFF8007FFFFFFFFC
FFFFFFFFF8007FFFFFFFFC
FFFFFFFFF8007FFFFFFFFC
FFFFFFFFF8007FFFFFFFFC
FFFFFFFFF8007FFFFFFFFC
FFFFFFFFF8007FFFFFFFFC
FFFFFFFFF8007FFFFFFFFC
FFFFFFFFF8007FFFFFFFFC
FFFFFFFFF8007FFFFFFFFC
FFFFFFFFF8007FFFFFFFFC
FFFFFFFFF8007FFFFFFFFC
FFFFFFFFF8007FFFFFFFFC
FFFFFFFFF8007FFFFFFFFC
FFFFFFFFF8007FFFFFFFFC
FFFFFFFFF8007FFFFFFFFC
FFFFFFFFF8007FFFFFFFFC
FFFFFFFFF8007FFFFFFFFC
FFFFFFFFF8007FFFFFFFFC
FFFFFFFFF8007FFFFFFFFC
FFFFFFFFF8007FFFFFFFFC
FFFFFFFFF8007FFFFFFFFC
FFFFFFFFF8007FFFFFFFFC
FFFFFFFFF8007FFFFFFFFC
FFFFFFFFF8007FFFFFFFFC
FFFFFFFFF8007FFFFFFFFC
FFFFFFFFF8007FFFFFFFFC
FFFFFFFFF8007FFFFFFFFC
FFFFFFFFF8007FFFFFFFFC
FFFFFFFFF8007FFFFFFFFC
FFFFFFFFF8007FFFFFFFFC
FFFFFFFFF8007FFFFFFFFC
FFFFFFFFF8007FFFFFFFFC
FFFFFFFFF8007FFFFFFFFC
FFFFFFFFF8007FFFFFFFFC
FFFFFFFFF8007FFFFFFFFC
FFFFFFFFF8007FFFFFFFFC
FFFFFFFFF8007FFFFFFFFC
FFFFFFFFF8007FFFFFFFFC
FFFFFFFFF8007FFFFFFFFC
FFFFFFFFF8007FFFFFFFFC
FFFFFFFFF8007FFFFFFFFC
FFFFFFFFF8007FFFFFFFFC
FFFFFFFFF8007FFFFFFFFC
FFFFFFFFF8007FFFFFFFFC
FFFFFFFFF8007FFFFFFFFC
FFFFFFFFF8007FFFFFFFFC
FFFFFFFFF8007FFFFFFFFC
FFFFFFFFF8007FFFFFFFFC
FFFFFFFFF8007FFFFFFFFC
FFFFFFFFF8007FFFFFFFFC
FFFFFFFFF8007FFFFFFFFC
FFFFFFFFF8007FFFFFFFFC
FFFFFFFFF8007FFFFFFFFC
FFFFFFFFF8007FFFFFFFFC
FFFFFFFFF8007FFFFFFFFC
FFFFFFFFF8007FFFFFFFFC
FFFFFFFFF8007FFFFFFFFC
FFFFFFFFF8007FFFFFFFFC
FFFFFFFFF8007FFFFFFFFC
FFFFFFFFF8007FFFFFFFFC
FFFFFFFFF8007FFFFFFFFC
FFFFFFFFF8007FFFFFFFFC
FFFFFFFFF8007FFFFFFFFC
FFFFFFFFF8007FFFFFFFFC
FFFFFFFFF8007FFFFFFFFC
FFFFFFFFF8007FFFFFFFFC
FFFFFFFFF8007FFFFFFFFC
FFFFFFFFF8007FFFFFFFFC
FFFFFFFFF8007FFFFFFFFC
FFFFFFFFF800FFFFFFFFFC
FFFFFFFFFC00FFFFFFFFFC
FFFFFFFFFC00FFFFFFFFFC
FFFFFFFFFE01FFFFFFFFFC
7FFFFFFFFFCFFFFFFFFFF8
7FFFFFFFFFFFFFFFFFFFF8
7FFFFFFFFFFFFFFFFFFFF8
7FFFFFFFFFFFFFFFFFFFF8
7FFFFFFFFFFFFFFFFFFFF8
7FFFFFFFFFFFFFFFFFFFF8
7FFFFFFFFFFFFFFFFFFFF8
3FFFFFFFFFFFFFFFFFFFF0
3FFFFFFFFFFFFFFFFFFFF0
3FFFFFFFFFFFFFFFFFFFF0
1FFFFFFFFFFFFFFFFFFFF0
1FFFFFFFFFFFFFFFFFFFE0
1FFFFFFFFFFFFFFFFFFFE0
0FFFFFFFFFFFFFFFFFFFC0
0FFFFFFFFFFFFFFFFFFFC0
07FFFFFFFFFFFFFFFFFF80
03FFFFFFFFFFFFFFFFFF80
03FFFFFFFFFFFFFFFFFF00
01FFFFFFFFFFFFFFFFFE00
007FFFFFFFFFFFFFFFFC00
003FFFFFFFFFFFFFFFF000
0007FFFFFFFFFFFFFFC000
0000FFFFFFFFFFFFFE0000
000007FFFFFFFFFFC00000
00000007FFFFFF80000000
ENDCHAR
STARTCHAR 0031
ENCODING 49
SWIDTH 324 0
DWIDTH 72 0
BBX 56 180 2 0
BITMAP
0000003FFFFFFF
0000003FFFFFFF
0000003FFFFFFF
0000003FFFFFFF
0000007FFFFFFF
0000007FFFFFFF
0000007FFFFFFF
000000FFFFFFFF
000000FFFFFFFF
000001FFFFFFFF
000001FFFFFFFF
000003FFFFFFFF
000007FFFFFFFF
000007FFFFFFFF
00000FFFFFFFFF
00001FFFFFFFFF
00003FFFFFFFFF
00007FFFFFFFFF
0001FFFFFFFFFF
0003FFFFFFFFFF
000FFFFFFFFFFF
007FFFFFFFFFFF
03FFFFFFFFFFFF
FFFFFFFFFFFFFF
FFFFFFFFFFFFFF
FFFFFFFFFFFFFF
FFFFFFFFFFFFFF
FFFFFFFFFFFFFF
FFFFFFFFFFFFFF
FFFFFFFFFFFFFF
FFFFFFFFFFFFFF
FFFFFFFFFFFFFF
FFFFFFFFFFFFFF
FFFFFFFFFFFFFF
FFFFFFFFFFFFFF
FFFFFFFFFFFFFF
FFFFFFFFFFFFFF
FFFFFFFFFFFFFF
FFFFFFFFFFFFFF
FFFFFFFFFFFFFF
FFFFFFFFFFFFFF
FFFFFFFFFFFFFF
FFFFFFFFFFFFFF
FFFFFFFFFFFFFF
FFFFFFFFFFFFFF
FFFFFFFFFFFFFF
FFFFFFFFFFFFFF
00001FFFFFFFFF
00001FFFFFFFFF
00001FFFFFFFFF
00001FFFFFFFFF
00001FFFFFFFFF
00001FFFFFFFFF
00001FFFFFFFFF
00001FFFFFFFFF
00001FFFFFFFFF
00001FFFFFFFFF
00001FFFFFFFFF
00001FFFFFFFFF
00001FFFFFFFFF
00001FFFFFFFFF
00001FFFFFFFFF
00001FFFFFFFFF
00001FFFFFFFFF
00001FFFFFFFFF
00001FFFFFFFFF
00001FFFFFFFFF
00001FFFFFFFFF
00001FFFFFFFFF
00001FFFFFFFFF
00001FFFFFFFFF
00001FFFFFFFFF
00001FFFFFFFFF
00001FFFFFFFFF
00001FFFFFFFFF
00001FFFFFFFFF
00001FFFFFFFFF
00001FFFFFFFFF
00001FFFFFFFFF
00001FFFFFFFFF
00001FFFFFFFFF
00001FFFFFFFFF
00001FFFFFFFFF
00001FFFFFFFFF
00001FFFFFFFFF
00001FFFFFFFFF
00001FFFFFFFFF
00001FFFFFFFFF
00001FFFFFFFFF
00001FFFFFFFFF
00001FFFFFFFFF
00001FFFFFFFFF
00001FFFFFFFFF
00001FFFFFFFFF
00001FFFFFFFFF
00001FFFFFFFFF
00001FFFFFFFFF
00001FFFFFFFFF
00001FFFFFFFFF
00001FFFFFFFFF
00001FFFFFFFFF
00001FFFFFFFFF
00001FFFFFFFFF
00001FFFFFFFFF
00001FFFFFFFFF
00001FFFFFFFFF
00001FFFFFFFFF
00001FFFFFFFFF
00001FFFFFFFFF
00001FFFFFFFFF
00001FFFFFFFFF
00001FFFFFFFFF
00001FFFFFFFFF
00001FFFFFFFFF
00001FFFFFFFFF
00001FFFFFFFFF
00001FFFFFFFFF
00001FFFFFFFFF
00001FFFFFFFFF
00001FFFFFFFFF
00001FFFFFFFFF
00001FFFFFFFFF
00001FFFFFFFFF
00001FFFFFFFFF
00001FFFFFFFFF
00001FFFFFFFFF
00001FFFFFFFFF
00001FFFFFFFFF
00001FFFFFFFFF
00001FFFFFFFFF
00001FFFFFFFFF
00001FFFFFFFFF
00001FFFFFFFFF
00001FFFFFFFFF
00001FFFFFFFFF
00001FFFFFFFFF
00001FFFFFFFFF
00001FFFFFFFFF
00001FFFFFFFFF
00001FFFFFFFFF
00001FFFFFFFFF
00001FFFFFFFFF
00001FFFFFFFFF
00001FFFFFFFFF
00001FFFFFFFFF
00001FFFFFFFFF
00001FFFFFFFFF
00001FFFFFFFFF
00001FFFFFFFFF
00001FFFFFFFFF
00001FFFFFFFFF
00001FFFFFFFFF
00001FFFFFFFFF
00001FFFFFFFFF
00001FFFFFFFFF
00001FFFFFFFFF
00001FFFFFFFFF
00001FFFFFFFFF
00001FFFFFFFFF
00001FFFFFFFFF
00001FFFFFFFFF
00001FFFFFFFFF
00001FFFFFFFFF
00001FFFFFFFFF
00001FFFFFFFFF
00001FFFFFFFFF
00001FFFFFFFFF
00001FFFFFFFFF
00001FFFFFFFFF
00001FFFFFFFFF
00001FFFFFFFFF
00001FFFFFFFFF
00001FFFFFFFFF
00001FFFFFFFFF
00001FFFFFFFFF
00001FFFFFFFFF
00001FFFFFFFFF
00001FFFFFFFFF
00001FFFFFFFFF
00001FFFFFFFFF
ENDCHAR
STARTCHAR 0032
ENCODING 50
SWIDTH 459 0
DWIDTH 102 0
BBX 86 180 8 0
BITMAP
00000007FFFFFF00000000
00000FFFFFFFFFFF800000
0001FFFFFFFFFFFFF80000
000FFFFFFFFFFFFFFF8000
003FFFFFFFFFFFFFFFE000
00FFFFFFFFFFFFFFFFF800
01FFFFFFFFFFFFFFFFFC00
03FFFFFFFFFFFFFFFFFE00
07FFFFFFFFFFFFFFFFFF00
07FFFFFFFFFFFFFFFFFF80
0FFFFFFFFFFFFFFFFFFF80
0FFFFFFFFFFFFFFFFFFFC0
1FFFFFFFFFFFFFFFFFFFC0
1FFFFFFFFFFFFFFFFFFFE0
3FFFFFFFFFFFFFFFFFFFE0
3FFFFFFFFFFFFFFFFFFFF0
3FFFFFFFFFFFFFFFFFFFF0
3FFFFFFFFFFFFFFFFFFFF0
7FFFFFFFFFFFFFFFFFFFF0
7FFFFFFFFFFFFFFFFFFFF8
7FFFFFFFFFFFFFFFFFFFF8
7FFFFFFFFFFFFFFFFFFFF8
7FFFFFFFFFFFFFFFFFFFF8
7FFFFFFFFE03FFFFFFFFF8
FFFFFFFFFC01FFFFFFFFF8
FFFFFFFFFC01FFFFFFFFFC
FFFFFFFFF800FFFFFFFFFC
FFFFFFFFF800FFFFFFFFFC
FFFFFFFFF800FFFFFFFFFC
FFFFFFFFF800FFFFFFFFFC
FFFFFFFFF800FFFFFFFFFC
FFFFFFFFF800FFFFFFFFFC
FFFFFFFFF800FFFFFFFFFC
FFFFFFFFF800FFFFFFFFFC
FFFFFFFFF800FFFFFFFFFC
FFFFFFFFF800FFFFFFFFFC
FFFFFFFFF800FFFFFFFFFC
FFFFFFFFF800FFFFFFFFFC
FFFFFFFFF800FFFFFFFFFC
FFFFFFFFF800FFFFFFFFFC
FFFFFFFFF800FFFFFFFFFC
FFFFFFFFF800FFFFFFFFFC
FFFFFFFFF800FFFFFFFFFC
FFFFFFFFF800FFFFFFFFFC
FFFFFFFFF800FFFFFFFFFC
FFFFFFFFF800FFFFFFFFFC
FFFFFFFFF800FFFFFFFFFC
FFFFFFFFF800FFFFFFFFFC
FFFFFFFFF800FFFFFFFFFC
FFFFFFFFF800FFFFFFFFFC
FFFFFFFFF800FFFFFFFFFC
FFFFFFFFF800FFFFFFFFFC
FFFFFFFFF800FFFFFFFFFC
FFFFFFFFF800FFFFFFFFFC
FFFFFFFFF800FFFFFFFFFC
FFFFFFFFF800FFFFFFFFFC
FFFFFFFFF800FFFFFFFFFC
FFFFFFFFF800FFFFFFFFFC
FFFFFFFFF800FFFFFFFFFC
FFFFFFFFF800FFFFFFFFFC
FFFFFFFFF800FFFFFFFFFC
FFFFFFFFF801FFFFFFFFFC
000000000001FFFFFFFFFC
000000000001FFFFFFFFFC
000000000001FFFFFFFFFC
000000000001FFFFFFFFF8
000000000001FFFFFFFFF8
000000000003FFFFFFFFF8
000000000003FFFFFFFFF8
000000000003FFFFFFFFF8
000000000007FFFFFFFFF0
000000000007FFFFFFFFF0
00000000000FFFFFFFFFF0
00000000000FFFFFFFFFE0
00000000001FFFFFFFFFE0
00000000003FFFFFFFFFE0
00000000003FFFFFFFFFC0
00000000007FFFFFFFFFC0
00000000007FFFFFFFFFC0
0000000000FFFFFFFFFF80
0000000000FFFFFFFFFF80
0000000001FFFFFFFFFF00
0000000001FFFFFFFFFF00
0000000003FFFFFFFFFE00
0000000003FFFFFFFFFE00
0000000007FFFFFFFFFC00
0000000007FFFFFFFFFC00
000000000FFFFFFFFFF800
000000000FFFFFFFFFF800
000000001FFFFFFFFFF000
000000001FFFFFFFFFE000
000000003FFFFFFFFFE000
000000007FFFFFFFFFC000
000000007FFFFFFFFFC000
00000000FFFFFFFFFF8000
00000000FFFFFFFFFF8000
00000001FFFFFFFFFF0000
00000001FFFFFFFFFF0000
00000003FFFFFFFFFE0000
00000003FFFFFFFFFE0000
00000007FFFFFFFFFC0000
00000007FFFFFFFFFC0000
0000000FFFFFFFFFF80000
0000000FFFFFFFFFF80000
0000001FFFFFFFFFF00000
0000001FFFFFFFFFF00000
0000003FFFFFFFFFE00000
0000003FFFFFFFFFC00000
0000007FFFFFFFFFC00000
0000007FFFFFFFFF800000
000000FFFFFFFFFF800000
000001FFFFFFFFFF000000
000001FFFFFFFFFF000000
000003FFFFFFFFFE000000
000003FFFFFFFFFE000000
000007FFFFFFFFFC000000
000007FFFFFFFFFC000000
00000FFFFFFFFFF8000000
00000FFFFFFFFFF8000000
00001FFFFFFFFFF0000000
00001FFFFFFFFFF0000000
00003FFFFFFFFFE0000000
00003FFFFFFFFFC0000000
00007FFFFFFFFFC0000000
00007FFFFFFFFF80000000
0000FFFFFFFFFF80000000
0000FFFFFFFFFF00000000
0001FFFFFFFFFF00000000
0001FFFFFFFFFE00000000
0003FFFFFFFFFE00000000
0003FFFFFFFFFC00000000
0007FFFFFFFFFC00000000
000FFFFFFFFFF800000000
000FFFFFFFFFF800000000
001FFFFFFFFFF000000000
001FFFFFFFFFF000000000
003FFFFFFFFFE000000000
003FFFFFFFFFE000000000
007FFFFFFFFFC000000000
007FFFFFFFFF8000000000
00FFFFFFFFFF8000000000
00FFFFFFFFFF0000000000
01FFFFFFFFFF0000000000
01FFFFFFFFFE0000000000
03FFFFFFFFFE0000000000
03FFFFFFFFFC0000000000
07FFFFFFFFFC0000000000
07FFFFFFFFF80000000000
0FFFFFFFFFF80000000000
0FFFFFFFFFF00000000000
1FFFFFFFFFF00000000000
3FFFFFFFFFE00000000000
3FFFFFFFFFE00000000000
7FFFFFFFFFC00000000000
7FFFFFFFFF800000000000
7FFFFFFFFFFFFFFFFFFFFC
7FFFFFFFFFFFFFFFFFFFFC
7FFFFFFFFFFFFFFFFFFFFC
7FFFFFFFFFFFFFFFFFFFFC
7FFFFFFFFFFFFFFFFFFFFC
7FFFFFFFFFFFFFFFFFFFFC
7FFFFFFFFFFFFFFFFFFFFC
7FFFFFFFFFFFFFFFFFFFFC
7FFFFFFFFFFFFFFFFFFFFC
7FFFFFFFFFFFFFFFFFFFFC
7FFFFFFFFFFFFFFFFFFFFC
7FFFFFFFFFFFFFFFFFFFFC
7FFFFFFFFFFFFFFFFFFFFC
7FFFFFFFFFFFFFFFFFFFFC
7FFFFFFFFFFFFFFFFFFFFC
7FFFFFFFFFFFFFFFFFFFFC
7FFFFFFFFFFFFFFFFFFFFC
7FFFFFFFFFFFFFFFFFFFFC
7FFFFFFFFFFFFFFFFFFFFC
7FFFFFFFFFFFFFFFFFFFFC
7FFFFFFFFFFFFFFFFFFFFC
7FFFFFFFFFFFFFFFFFFFFC
7FFFFFFFFFFFFFFFFFFFFC
7FFFFFFFFFFFFFFFFFFFFC
7FFFFFFFFFFFFFFFFFFFFC
ENDCHAR
STARTCHAR 0033
ENCODING 51
SWIDTH 459 0
DWIDTH 102 0
BBX 85 181 8 -1
BITMAP
00000007FFFFFF00000000
00000FFFFFFFFFFF000000
0000FFFFFFFFFFFFF80000
000FFFFFFFFFFFFFFF0000
003FFFFFFFFFFFFFFFC000
00FFFFFFFFFFFFFFFFF000
01FFFFFFFFFFFFFFFFF800
03FFFFFFFFFFFFFFFFFC00
07FFFFFFFFFFFFFFFFFE00
07FFFFFFFFFFFFFFFFFF00
0FFFFFFFFFFFFFFFFFFF80
0FFFFFFFFFFFFFFFFFFF80
1FFFFFFFFFFFFFFFFFFFC0
1FFFFFFFFFFFFFFFFFFFC0
3FFFFFFFFFFFFFFFFFFFC0
3FFFFFFFFFFFFFFFFFFFE0
3FFFFFFFFFFFFFFFFFFFE0
3FFFFFFFFFFFFFFFFFFFE0
7FFFFFFFFFFFFFFFFFFFE0
7FFFFFFFFFFFFFFFFFFFF0
7FFFFFFFFFFFFFFFFFFFF0
7FFFFFFFFFFFFFFFFFFFF0
7FFFFFFFFFFFFFFFFFFFF0
7FFFFFFFFE03FFFFFFFFF0
FFFFFFFFFC01FFFFFFFFF0
FFFFFFFFFC01FFFFFFFFF8
FFFFFFFFF800FFFFFFFFF8
FFFFFFFFF800FFFFFFFFF8
FFFFFFFFF800FFFFFFFFF8
FFFFFFFFF800FFFFFFFFF8
FFFFFFFFF800FFFFFFFFF8
FFFFFFFFF800FFFFFFFFF8
FFFFFFFFF800FFFFFFFFF8
FFFFFFFFF800FFFFFFFFF8
FFFFFFFFF800FFFFFFFFF8
FFFFFFFFF800FFFFFFFFF8
FFFFFFFFF800FFFFFFFFF8
FFFFFFFFF800FFFFFFFFF8
FFFFFFFFF800FFFFFFFFF8
FFFFFFFFF800FFFFFFFFF8
FFFFFFFFF800FFFFFFFFF8
FFFFFFFFF800FFFFFFFFF8
FFFFFFFFF800FFFFFFFFF8
FFFFFFFFF800FFFFFFFFF8
FFFFFFFFF800FFFFFFFFF8
FFFFFFFFF800FFFFFFFFF8
FFFFFFFFF800FFFFFFFFF8
FFFFFFFFF800FFFFFFFFF8
FFFFFFFFF800FFFFFFFFF8
FFFFFFFFF800FFFFFFFFF8
FFFFFFFFF800FFFFFFFFF8
FFFFFFFFF800FFFFFFFFF8
FFFFFFFFF800FFFFFFFFF8
FFFFFFFFF800FFFFFFFFF8
FFFFFFFFF800FFFFFFFFF8
FFFFFFFFF800FFFFFFFFF8
FFFFFFFFF800FFFFFFFFF8
FFFFFFFFF800FFFFFFFFF8
000000000000FFFFFFFFF8
000000000000FFFFFFFFF8
000000000000FFFFFFFFF8
000000000000FFFFFFFFF8
000000000000FFFFFFFFF8
000000000000FFFFFFFFF0
000000000000FFFFFFFFF0
000000000001FFFFFFFFF0
000000000001FFFFFFFFF0
000000000003FFFFFFFFF0
00000000000FFFFFFFFFE0
0000000FFFFFFFFFFFFFE0
0000000FFFFFFFFFFFFFE0
0000000FFFFFFFFFFFFFC0
0000000FFFFFFFFFFFFFC0
0000000FFFFFFFFFFFFF80
0000000FFFFFFFFFFFFF80
0000000FFFFFFFFFFFFF00
0000000FFFFFFFFFFFFE00
0000000FFFFFFFFFFFFC00
0000000FFFFFFFFFFFF800
0000000FFFFFFFFFFFE000
0000000FFFFFFFFFFF8000
0000000FFFFFFFFFFE0000
0000000FFFFFFFFFF00000
0000000FFFFFFFFFFE0000
0000000FFFFFFFFFFF8000
0000000FFFFFFFFFFFF000
0000000FFFFFFFFFFFF800
0000000FFFFFFFFFFFFC00
0000000FFFFFFFFFFFFF00
0000000FFFFFFFFFFFFF80
0000000FFFFFFFFFFFFF80
0000000FFFFFFFFFFFFFC0
0000000FFFFFFFFFFFFFC0
0000000FFFFFFFFFFFFFE0
0000000FFFFFFFFFFFFFE0
0000000FFFFFFFFFFFFFE0
00000000000FFFFFFFFFF0
000000000003FFFFFFFFF0
000000000001FFFFFFFFF0
000000000001FFFFFFFFF0
000000000000FFFFFFFFF0
000000000000FFFFFFFFF0
000000000000FFFFFFFFF8
000000000000FFFFFFFFF8
000000000000FFFFFFFFF8
000000000000FFFFFFFFF8
000000000000FFFFFFFFF8
FFFFFFFFF800FFFFFFFFF8
FFFFFFFFF800FFFFFFFFF8
FFFFFFFFF800FFFFFFFFF8
FFFFFFFFF800FFFFFFFFF8
FFFFFFFFF800FFFFFFFFF8
FFFFFFFFF800FFFFFFFFF8
FFFFFFFFF800FFFFFFFFF8
FFFFFFFFF800FFFFFFFFF8
FFFFFFFFF800FFFFFFFFF8
FFFFFFFFF800FFFFFFFFF8
FFFFFFFFF800FFFFFFFFF8
FFFFFFFFF800FFFFFFFFF8
FFFFFFFFF800FFFFFFFFF8
FFFFFFFFF800FFFFFFFFF8
FFFFFFFFF800FFFFFFFFF8
FFFFFFFFF800FFFFFFFFF8
FFFFFFFFF800FFFFFFFFF8
FFFFFFFFF800FFFFFFFFF8
FFFFFFFFF800FFFFFFFFF8
FFFFFFFFF800FFFFFFFFF8
FFFFFFFFF800FFFFFFFFF8
FFFFFFFFF800FFFFFFFFF8
FFFFFFFFF800FFFFFFFFF8
FFFFFFFFF800FFFFFFFFF8
FFFFFFFFF800FFFFFFFFF8
FFFFFFFFF800FFFFFFFFF8
FFFFFFFFF800FFFFFFFFF8
FFFFFFFFF800FFFFFFFFF8
FFFFFFFFF800FFFFFFFFF8
FFFFFFFFF800FFFFFFFFF8
FFFFFFFFF800FFFFFFFFF8
FFFFFFFFF800FFFFFFFFF8
FFFFFFFFF800FFFFFFFFF8
FFFFFFFFF800FFFFFFFFF8
FFFFFFFFF800FFFFFFFFF8
FFFFFFFFF800FFFFFFFFF8
FFFFFFFFF800FFFFFFFFF8
FFFFFFFFF800FFFFFFFFF8
FFFFFFFFF800FFFFFFFFF8
FFFFFFFFF800FFFFFFFFF8
FFFFFFFFF800FFFFFFFFF8
FFFFFFFFF800FFFFFFFFF8
FFFFFFFFF800FFFFFFFFF8
FFFFFFFFF800FFFFFFFFF8
FFFFFFFFF800FFFFFFFFF8
FFFFFFFFF800FFFFFFFFF8
FFFFFFFFF800FFFFFFFFF8
FFFFFFFFFC01FFFFFFFFF8
FFFFFFFFFE03FFFFFFFFF8
7FFFFFFFFF8FFFFFFFFFF0
7FFFFFFFFFFFFFFFFFFFF0
7FFFFFFFFFFFFFFFFFFFF0
7FFFFFFFFFFFFFFFFFFFF0
7FFFFFFFFFFFFFFFFFFFF0
7FFFFFFFFFFFFFFFFFFFF0
7FFFFFFFFFFFFFFFFFFFE0
3FFFFFFFFFFFFFFFFFFFE0
3FFFFFFFFFFFFFFFFFFFE0
3FFFFFFFFFFFFFFFFFFFE0
1FFFFFFFFFFFFFFFFFFFC0
1FFFFFFFFFFFFFFFFFFFC0
1FFFFFFFFFFFFFFFFFFFC0
0FFFFFFFFFFFFFFFFFFF80
0FFFFFFFFFFFFFFFFFFF80
07FFFFFFFFFFFFFFFFFF00
07FFFFFFFFFFFFFFFFFE00
03FFFFFFFFFFFFFFFFFE00
01FFFFFFFFFFFFFFFFFC00
007FFFFFFFFFFFFFFFF000
003FFFFFFFFFFFFFFFE000
0007FFFFFFFFFFFFFF0000
0000FFFFFFFFFFFFF80000
00000FFFFFFFFFFF800000
00000007FFFFFF00000000
ENDCHAR
STARTCHAR 0034
ENCODING 52
SWIDTH 459 0
DWIDTH 102 0
BBX 93 180 3 0
BITMAP
0000000FFFFFFFFFFFFFE000
0000000FFFFFFFFFFFFFE000
0000000FFFFFFFFFFFFFE000
0000001FFFFFFFFFFFFFE000
0000001FFFFFFFFFFFFFE000
0000001FFFFFFFFFFFFFE000
0000003FFFFFFFFFFFFFE000
0000003FFFFFFFFFFFFFE000
0000003FFFFFFFFFFFFFE000
0000003FFFFFFFFFFFFFE000
0000007FFFFFFFFFFFFFE000
0000007FFFFFFFFFFFFFE000
0000007FFFFFFFFFFFFFE000
0000007FFFFFFFFFFFFFE000
000000FFFFFFFFFFFFFFE000
000000FFFFFFFFFFFFFFE000
000000FFFFFFFFFFFFFFE000
000001FFFFFFFFFFFFFFE000
000001FFFFFFFFFFFFFFE000
000001FFFFFFFFFFFFFFE000
000001FFFFFFFFFFFFFFE000
000003FFFFFFFFFFFFFFE000
000003FFFFFFFFFFFFFFE000
000003FFFFFFFFFFFFFFE000
000003FFFFFFFFFFFFFFE000
000007FFFFFFFFFFFFFFE000
000007FFFFFFFFFFFFFFE000
000007FFFFFFFFFFFFFFE000
00000FFFFFFFFFFFFFFFE000
00000FFFFFFFFFFFFFFFE000
00000FFFFFFFFFFFFFFFE000
00000FFFFFFFFFFFFFFFE000
00001FFFFFF8FFFFFFFFE000
00001FFFFFF8FFFFFFFFE000
00001FFFFFF8FFFFFFFFE000
00001FFFFFF8FFFFFFFFE000
00003FFFFFF8FFFFFFFFE000
00003FFFFFF8FFFFFFFFE000
00003FFFFFF0FFFFFFFFE000
00003FFFFFF0FFFFFFFFE000
00007FFFFFF0FFFFFFFFE000
00007FFFFFF0FFFFFFFFE000
00007FFFFFF0FFFFFFFFE000
0000FFFFFFF0FFFFFFFFE000
0000FFFFFFE0FFFFFFFFE000
0000FFFFFFE0FFFFFFFFE000
0000FFFFFFE0FFFFFFFFE000
0001FFFFFFE0FFFFFFFFE000
0001FFFFFFE0FFFFFFFFE000
0001FFFFFFE0FFFFFFFFE000
0001FFFFFFC0FFFFFFFFE000
0003FFFFFFC0FFFFFFFFE000
0003FFFFFFC0FFFFFFFFE000
0003FFFFFFC0FFFFFFFFE000
0007FFFFFFC0FFFFFFFFE000
0007FFFFFFC0FFFFFFFFE000
0007FFFFFFC0FFFFFFFFE000
0007FFFFFF80FFFFFFFFE000
000FFFFFFF80FFFFFFFFE000
000FFFFFFF80FFFFFFFFE000
000FFFFFFF80FFFFFFFFE000
000FFFFFFF80FFFFFFFFE000
001FFFFFFF80FFFFFFFFE000
001FFFFFFF00FFFFFFFFE000
001FFFFFFF00FFFFFFFFE000
001FFFFFFF00FFFFFFFFE000
003FFFFFFF00FFFFFFFFE000
003FFFFFFF00FFFFFFFFE000
003FFFFFFF00FFFFFFFFE000
007FFFFFFE00FFFFFFFFE000
007FFFFFFE00FFFFFFFFE000
007FFFFFFE00FFFFFFFFE000
007FFFFFFE00FFFFFFFFE000
00FFFFFFFE00FFFFFFFFE000
00FFFFFFFE00FFFFFFFFE000
00FFFFFFFC00FFFFFFFFE000
00FFFFFFFC00FFFFFFFFE000
01FFFFFFFC00FFFFFFFFE000
01FFFFFFFC00FFFFFFFFE000
01FFFFFFFC00FFFFFFFFE000
03FFFFFFFC00FFFFFFFFE000
03FFFFFFFC00FFFFFFFFE000
03FFFFFFF800FFFFFFFFE000
03FFFFFFF800FFFFFFFFE000
07FFFFFFF800FFFFFFFFE000
07FFFFFFF800FFFFFFFFE000
07FFFFFFF800FFFFFFFFE000
07FFFFFFF800FFFFFFFFE000
0FFFFFFFF000FFFFFFFFE000
0FFFFFFFF000FFFFFFFFE000
0FFFFFFFF000FFFFFFFFE000
0FFFFFFFF000FFFFFFFFE000
1FFFFFFFF000FFFFFFFFE000
1FFFFFFFF000FFFFFFFFE000
1FFFFFFFE000FFFFFFFFE000
3FFFFFFFE000FFFFFFFFE000
3FFFFFFFE000FFFFFFFFE000
3FFFFFFFE000FFFFFFFFE000
3FFFFFFFE000FFFFFFFFE000
7FFFFFFFE000FFFFFFFFE000
7FFFFFFFC000FFFFFFFFE000
7FFFFFFFC000FFFFFFFFE000
7FFFFFFFC000FFFFFFFFE000
FFFFFFFFC000FFFFFFFFE000
FFFFFFFFFFFFFFFFFFFFFFF8
FFFFFFFFFFFFFFFFFFFFFFF8
FFFFFFFFFFFFFFFFFFFFFFF8
FFFFFFFFFFFFFFFFFFFFFFF8
FFFFFFFFFFFFFFFFFFFFFFF8
FFFFFFFFFFFFFFFFFFFFFFF8
FFFFFFFFFFFFFFFFFFFFFFF8
FFFFFFFFFFFFFFFFFFFFFFF8
FFFFFFFFFFFFFFFFFFFFFFF8
FFFFFFFFFFFFFFFFFFFFFFF8
FFFFFFFFFFFFFFFFFFFFFFF8
FFFFFFFFFFFFFFFFFFFFFFF8
FFFFFFFFFFFFFFFFFFFFFFF8
FFFFFFFFFFFFFFFFFFFFFFF8
FFFFFFFFFFFFFFFFFFFFFFF8
FFFFFFFFFFFFFFFFFFFFFFF8
FFFFFFFFFFFFFFFFFFFFFFF8
FFFFFFFFFFFFFFFFFFFFFFF8
FFFFFFFFFFFFFFFFFFFFFFF8
FFFFFFFFFFFFFFFFFFFFFFF8
FFFFFFFFFFFFFFFFFFFFFFF8
FFFFFFFFFFFFFFFFFFFFFFF8
FFFFFFFFFFFFFFFFFFFFFFF8
FFFFFFFFFFFFFFFFFFFFFFF8
000000000001FFFFFFFFE000
000000000001FFFFFFFFE000
000000000001FFFFFFFFE000
000000000001FFFFFFFFE000
000000000001FFFFFFFFE000
000000000001FFFFFFFFE000
000000000001FFFFFFFFE000
000000000001FFFFFFFFE000
000000000001FFFFFFFFE000
000000000001FFFFFFFFE000
000000000001FFFFFFFFE000
000000000001FFFFFFFFE000
000000000001FFFFFFFFE000
000000000001FFFFFFFFE000
000000000001FFFFFFFFE000
000000000001FFFFFFFFE000
000000000001FFFFFFFFE000
000000000001FFFFFFFFE000
000000000001FFFFFFFFE000
000000000001FFFFFFFFE000
000000000001FFFFFFFFE000
000000000001FFFFFFFFE000
000000000001FFFFFFFFE000
000000000001FFFFFFFFE000
000000000001FFFFFFFFE000
000000000001FFFFFFFFE000
000000000001FFFFFFFFE000
000000000001FFFFFFFFE000
000000000001FFFFFFFFE000
000000000001FFFFFFFFE000
000000000001FFFFFFFFE000
000000000001FFFFFFFFE000
000000000001FFFFFFFFE000
000000000001FFFFFFFFE000
000000000001FFFFFFFFE000
000000000001FFFFFFFFE000
000000000001FFFFFFFFE000
000000000001FFFFFFFFE000
000000000001FFFFFFFFE000
000000000001FFFFFFFFE000
000000000001FFFFFFFFE000
000000000001FFFFFFFFE000
000000000001FFFFFFFFE000
000000000001FFFFFFFFE000
000000000001FFFFFFFFE000
000000000001FFFFFFFFE000
000000000001FFFFFFFFE000
000000000001FFFFFFFFE000
000000000001FFFFFFFFE000
000000000001FFFFFFFFE000
000000000001FFFFFFFFE000
000000000001FFFFFFFFE000
ENDCHAR
STARTCHAR 0035
ENCODING 53
SWIDTH 459 0
DWIDTH 102 0
BBX 86 181 8 -1
BITMAP
FFFFFFFFFFFFFFFFFFFFF0
FFFFFFFFFFFFFFFFFFFFF0
FFFFFFFFFFFFFFFFFFFFF0
FFFFFFFFFFFFFFFFFFFFF0
FFFFFFFFFFFFFFFFFFFFF0
FFFFFFFFFFFFFFFFFFFFF0
FFFFFFFFFFFFFFFFFFFFF0
FFFFFFFFFFFFFFFFFFFFF0
FFFFFFFFFFFFFFFFFFFFF0
FFFFFFFFFFFFFFFFFFFFF0
FFFFFFFFFFFFFFFFFFFFF0
FFFFFFFFFFFFFFFFFFFFF0
FFFFFFFFFFFFFFFFFFFFF0
FFFFFFFFFFFFFFFFFFFFF0
FFFFFFFFFFFFFFFFFFFFF0
FFFFFFFFFFFFFFFFFFFFF0
FFFFFFFFFFFFFFFFFFFFF0
FFFFFFFFFFFFFFFFFFFFF0
FFFFFFFFFFFFFFFFFFFFF0
FFFFFFFFFFFFFFFFFFFFF0
FFFFFFFFFFFFFFFFFFFFF0
FFFFFFFFFFFFFFFFFFFFF0
FFFFFFFFFFFFFFFFFFFFF0
FFFFFFFFFFFFFFFFFFFFF0
FFFFFFFFF8000000000000
FFFFFFFFF8000000000000
FFFFFFFFF8000000000000
FFFFFFFFF8000000000000
FFFFFFFFF8000000000000
FFFFFFFFF8000000000000
FFFFFFFFF8000000000000
FFFFFFFFF8000000000000
FFFFFFFFF8000000000000
FFFFFFFFF8000000000000
FFFFFFFFF8000000000000
FFFFFFFFF8000000000000
FFFFFFFFF8000000000000
FFFFFFFFF8000000000000
FFFFFFFFF8000000000000
FFFFFFFFF8000000000000
FFFFFFFFF8000000000000
FFFFFFFFF8000000000000
FFFFFFFFF8000000000000
FFFFFFFFF8000000000000
FFFFFFFFF8000000000000
FFFFFFFFF8000000000000
FFFFFFFFF8000000000000
FFFFFFFFF8000000000000
FFFFFFFFF8000000000000
FFFFFFFFF8001FFFE00000
FFFFFFFFF800FFFFFC0000
FFFFFFFFF807FFFFFF8000
FFFFFFFFF83FFFFFFFE000
FFFFFFFFF8FFFFFFFFF000
FFFFFFFFFBFFFFFFFFFC00
FFFFFFFFFFFFFFFFFFFE00
FFFFFFFFFFFFFFFFFFFF00
FFFFFFFFFFFFFFFFFFFF00
FFFFFFFFFFFFFFFFFFFF80
FFFFFFFFFFFFFFFFFFFFC0
FFFFFFFFFFFFFFFFFFFFC0
FFFFFFFFFFFFFFFFFFFFE0
FFFFFFFFFFFFFFFFFFFFE0
FFFFFFFFFFFFFFFFFFFFF0
FFFFFFFFFFFFFFFFFFFFF0
FFFFFFFFFFFFFFFFFFFFF0
FFFFFFFFFFFFFFFFFFFFF8
FFFFFFFFFFFFFFFFFFFFF8
FFFFFFFFFFFFFFFFFFFFF8
FFFFFFFFFFFFFFFFFFFFF8
FFFFFFFFFFFFFFFFFFFFF8
FFFFFFFFFFFFFFFFFFFFFC
FFFFFFFFFFFFFFFFFFFFFC
FFFFFFFFFFFFFFFFFFFFFC
FFFFFFFFFFFFFFFFFFFFFC
FFFFFFFFFF87FFFFFFFFFC
FFFFFFFFFE01FFFFFFFFFC
FFFFFFFFFC00FFFFFFFFFC
FFFFFFFFFC00FFFFFFFFFC
FFFFFFFFF8007FFFFFFFFC
FFFFFFFFF8007FFFFFFFFC
FFFFFFFFF8007FFFFFFFFC
FFFFFFFFF8007FFFFFFFFC
FFFFFFFFF8007FFFFFFFFC
FFFFFFFFF8007FFFFFFFFC
FFFFFFFFF8007FFFFFFFFC
FFFFFFFFF8007FFFFFFFFC
0000000000007FFFFFFFFC
0000000000007FFFFFFFFC
0000000000007FFFFFFFFC
0000000000007FFFFFFFFC
0000000000007FFFFFFFFC
0000000000007FFFFFFFFC
0000000000007FFFFFFFFC
0000000000007FFFFFFFFC
0000000000007FFFFFFFFC
0000000000007FFFFFFFFC
0000000000007FFFFFFFFC
0000000000007FFFFFFFFC
0000000000007FFFFFFFFC
0000000000007FFFFFFFFC
0000000000007FFFFFFFFC
0000000000007FFFFFFFFC
0000000000007FFFFFFFFC
FFFFFFFFF8007FFFFFFFFC
FFFFFFFFF8007FFFFFFFFC
FFFFFFFFF8007FFFFFFFFC
FFFFFFFFF8007FFFFFFFFC
FFFFFFFFF8007FFFFFFFFC
FFFFFFFFF8007FFFFFFFFC
FFFFFFFFF8007FFFFFFFFC
FFFFFFFFF8007FFFFFFFFC
FFFFFFFFF8007FFFFFFFFC
FFFFFFFFF8007FFFFFFFFC
FFFFFFFFF8007FFFFFFFFC
FFFFFFFFF8007FFFFFFFFC
FFFFFFFFF8007FFFFFFFFC
FFFFFFFFF8007FFFFFFFFC
FFFFFFFFF8007FFFFFFFFC
FFFFFFFFF8007FFFFFFFFC
FFFFFFFFF8007FFFFFFFFC
FFFFFFFFF8007FFFFFFFFC
FFFFFFFFF8007FFFFFFFFC
FFFFFFFFF8007FFFFFFFFC
FFFFFFFFF8007FFFFFFFFC
FFFFFFFFF8007FFFFFFFFC
FFFFFFFFF8007FFFFFFFFC
FFFFFFFFF8007FFFFFFFFC
FFFFFFFFF8007FFFFFFFFC
FFFFFFFFF8007FFFFFFFFC
FFFFFFFFF8007FFFFFFFFC
FFFFFFFFF8007FFFFFFFFC
FFFFFFFFF8007FFFFFFFFC
FFFFFFFFF8007FFFFFFFFC
FFFFFFFFF8007FFFFFFFFC
FFFFFFFFF8007FFFFFFFFC
FFFFFFFFF8007FFFFFFFFC
FFFFFFFFF8007FFFFFFFFC
FFFFFFFFF8007FFFFFFFFC
FFFFFFFFF8007FFFFFFFFC
FFFFFFFFF8007FFFFFFFFC
FFFFFFFFF8007FFFFFFFFC
FFFFFFFFF8007FFFFFFFFC
FFFFFFFFF8007FFFFFFFFC
FFFFFFFFF8007FFFFFFFFC
FFFFFFFFF8007FFFFFFFFC
FFFFFFFFF8007FFFFFFFFC
FFFFFFFFF8007FFFFFFFFC
FFFFFFFFF8007FFFFFFFFC
FFFFFFFFF8007FFFFFFFFC
FFFFFFFFF8007FFFFFFFFC
FFFFFFFFF8007FFFFFFFFC
FFFFFFFFF8007FFFFFFFFC
FFFFFFFFFC00FFFFFFFFFC
FFFFFFFFFC00FFFFFFFFFC
FFFFFFFFFE01FFFFFFFFFC
7FFFFFFFFFCFFFFFFFFFF8
7FFFFFFFFFFFFFFFFFFFF8
7FFFFFFFFFFFFFFFFFFFF8
7FFFFFFFFFFFFFFFFFFFF8
7FFFFFFFFFFFFFFFFFFFF8
7FFFFFFFFFFFFFFFFFFFF8
3FFFFFFFFFFFFFFFFFFFF0
3FFFFFFFFFFFFFFFFFFFF0
3FFFFFFFFFFFFFFFFFFFF0
3FFFFFFFFFFFFFFFFFFFF0
1FFFFFFFFFFFFFFFFFFFE0
1FFFFFFFFFFFFFFFFFFFE0
1FFFFFFFFFFFFFFFFFFFE0
0FFFFFFFFFFFFFFFFFFFC0
0FFFFFFFFFFFFFFFFFFFC0
07FFFFFFFFFFFFFFFFFF80
03FFFFFFFFFFFFFFFFFF00
03FFFFFFFFFFFFFFFFFF00
00FFFFFFFFFFFFFFFFFE00
007FFFFFFFFFFFFFFFF800
001FFFFFFFFFFFFFFFE000
0007FFFFFFFFFFFFFF8000
0000FFFFFFFFFFFFFC0000
000007FFFFFFFFFF800000
00000003FFFFFF80000000
ENDCHAR
STARTCHAR 0036
ENCODING 54
SWIDTH 459 0
DWIDTH 102 0
BBX 86 181 8 -1
BITMAP
00000003FFFFFF80000000
000007FFFFFFFFFF800000
0000FFFFFFFFFFFFFC0000
0007FFFFFFFFFFFFFF8000
001FFFFFFFFFFFFFFFE000
007FFFFFFFFFFFFFFFF800
00FFFFFFFFFFFFFFFFFE00
01FFFFFFFFFFFFFFFFFF00
03FFFFFFFFFFFFFFFFFF00
07FFFFFFFFFFFFFFFFFF80
0FFFFFFFFFFFFFFFFFFFC0
0FFFFFFFFFFFFFFFFFFFC0
1FFFFFFFFFFFFFFFFFFFE0
1FFFFFFFFFFFFFFFFFFFE0
1FFFFFFFFFFFFFFFFFFFE0
3FFFFFFFFFFFFFFFFFFFF0
3FFFFFFFFFFFFFFFFFFFF0
3FFFFFFFFFFFFFFFFFFFF0
3FFFFFFFFFFFFFFFFFFFF0
7FFFFFFFFFFFFFFFFFFFF8
7FFFFFFFFFFFFFFFFFFFF8
7FFFFFFFFFFFFFFFFFFFF8
7FFFFFFFFFFFFFFFFFFFF8
7FFFFFFFFF03FFFFFFFFF8
7FFFFFFFFC01FFFFFFFFF8
FFFFFFFFFC00FFFFFFFFFC
FFFFFFFFF800FFFFFFFFFC
FFFFFFFFF8007FFFFFFFFC
FFFFFFFFF8007FFFFFFFFC
FFFFFFFFF8007FFFFFFFFC
FFFFFFFFF8007FFFFFFFFC
FFFFFFFFF8007FFFFFFFFC
FFFFFFFFF8007FFFFFFFFC
FFFFFFFFF8007FFFFFFFFC
FFFFFFFFF8007FFFFFFFFC
FFFFFFFFF8007FFFFFFFFC
FFFFFFFFF8007FFFFFFFFC
FFFFFFFFF8007FFFFFFFFC
FFFFFFFFF8007FFFFFFFFC
FFFFFFFFF8007FFFFFFFFC
FFFFFFFFF8007FFFFFFFFC
FFFFFFFFF8007FFFFFFFFC
FFFFFFFFF8007FFFFFFFFC
FFFFFFFFF8007FFFFFFFFC
FFFFFFFFF8007FFFFFFFFC
FFFFFFFFF8007FFFFFFFFC
FFFFFFFFF8007FFFFFFFFC
FFFFFFFFF8007FFFFFFFFC
FFFFFFFFF8007FFFFFFFFC
FFFFFFFFF8007FFFFFFFFC
FFFFFFFFF8007FFFFFFFFC
FFFFFFFFF8007FFFFFFFFC
FFFFFFFFF8007FFFFFFFFC
FFFFFFFFF8007FFFFFFFFC
FFFFFFFFF8007FFFFFFFFC
FFFFFFFFF8007FFFFFFFFC
FFFFFFFFF8007FFFFFFFFC
FFFFFFFFF8007FFFFFFFFC
FFFFFFFFF8007FFFFFFFFC
FFFFFFFFF8007FFFFFFFFC
FFFFFFFFF8007FFFFFFFFC
FFFFFFFFF8007FFFFFFFFC
FFFFFFFFF8000000000000
FFFFFFFFF8000000000000
FFFFFFFFF8000000000000
FFFFFFFFF8000000000000
FFFFFFFFF8000000000000
FFFFFFFFF8000000000000
FFFFFFFFF8000000000000
FFFFFFFFF8000000000000
FFFFFFFFF8000000000000
FFFFFFFFF8001FFF000000
FFFFFFFFF803FFFFF80000
FFFFFFFFF80FFFFFFE0000
FFFFFFFFF83FFFFFFF8000
FFFFFFFFF8FFFFFFFFE000
FFFFFFFFFBFFFFFFFFF000
FFFFFFFFFFFFFFFFFFF800
FFFFFFFFFFFFFFFFFFFC00
FFFFFFFFFFFFFFFFFFFE00
FFFFFFFFFFFFFFFFFFFF00
FFFFFFFFFFFFFFFFFFFF80
FFFFFFFFFFFFFFFFFFFFC0
FFFFFFFFFFFFFFFFFFFFC0
FFFFFFFFFFFFFFFFFFFFE0
FFFFFFFFFFFFFFFFFFFFE0
FFFFFFFFFFFFFFFFFFFFF0
FFFFFFFFFFFFFFFFFFFFF0
FFFFFFFFFFFFFFFFFFFFF0
FFFFFFFFFFFFFFFFFFFFF0
FFFFFFFFFFFFFFFFFFFFF8
FFFFFFFFFFFFFFFFFFFFF8
FFFFFFFFFFFFFFFFFFFFF8
FFFFFFFFFFFFFFFFFFFFF8
FFFFFFFFFFFFFFFFFFFFF8
FFFFFFFFFFFFFFFFFFFFFC
FFFFFFFFFFFFFFFFFFFFFC
FFFFFFFFFFDFFFFFFFFFFC
FFFFFFFFFE01FFFFFFFFFC
FFFFFFFFFC00FFFFFFFFFC
FFFFFFFFF800FFFFFFFFFC
FFFFFFFFF800FFFFFFFFFC
FFFFFFFFF8007FFFFFFFFC
FFFFFFFFF8007FFFFFFFFC
FFFFFFFFF8007FFFFFFFFC
FFFFFFFFF8007FFFFFFFFC
FFFFFFFFF8007FFFFFFFFC
FFFFFFFFF8007FFFFFFFFC
FFFFFFFFF8007FFFFFFFFC
FFFFFFFFF8007FFFFFFFFC
FFFFFFFFF8007FFFFFFFFC
FFFFFFFFF8007FFFFFFFFC
FFFFFFFFF8007FFFFFFFFC
FFFFFFFFF8007FFFFFFFFC
FFFFFFFFF8007FFFFFFFFC
FFFFFFFFF8007FFFFFFFFC
FFFFFFFFF8007FFFFFFFFC
FFFFFFFFF8007FFFFFFFFC
FFFFFFFFF8007FFFFFFFFC
FFFFFFFFF8007FFFFFFFFC
FFFFFFFFF8007FFFFFFFFC
FFFFFFFFF8007FFFFFFFFC
FFFFFFFFF8007FFFFFFFFC
FFFFFFFFF8007FFFFFFFFC
FFFFFFFFF8007FFFFFFFFC
FFFFFFFFF8007FFFFFFFFC
FFFFFFFFF8007FFFFFFFFC
FFFFFFFFF8007FFFFFFFFC
FFFFFFFFF8007FFFFFFFFC
FFFFFFFFF8007FFFFFFFFC
FFFFFFFFF8007FFFFFFFFC
FFFFFFFFF8007FFFFFFFFC
FFFFFFFFF8007FFFFFFFFC
FFFFFFFFF8007FFFFFFFFC
FFFFFFFFF8007FFFFFFFFC
FFFFFFFFF8007FFFFFFFFC
FFFFFFFFF8007FFFFFFFFC
FFFFFFFFF8007FFFFFFFFC
FFFFFFFFF8007FFFFFFFFC
FFFFFFFFF8007FFFFFFFFC
FFFFFFFFF8007FFFFFFFFC
FFFFFFFFF8007FFFFFFFFC
FFFFFFFFF8007FFFFFFFFC
FFFFFFFFF8007FFFFFFFFC
FFFFFFFFF8007FFFFFFFFC
FFFFFFFFF8007FFFFFFFFC
FFFFFFFFF8007FFFFFFFFC
FFFFFFFFF8007FFFFFFFFC
FFFFFFFFF8007FFFFFFFFC
FFFFFFFFF8007FFFFFFFFC
FFFFFFFFF8007FFFFFFFFC
FFFFFFFFF8007FFFFFFFFC
FFFFFFFFF800FFFFFFFFFC
FFFFFFFFF800FFFFFFFFFC
FFFFFFFFFC00FFFFFFFFFC
FFFFFFFFFE01FFFFFFFFFC
7FFFFFFFFFCFFFFFFFFFF8
7FFFFFFFFFFFFFFFFFFFF8
7FFFFFFFFFFFFFFFFFFFF8
7FFFFFFFFFFFFFFFFFFFF8
7FFFFFFFFFFFFFFFFFFFF8
7FFFFFFFFFFFFFFFFFFFF8
3FFFFFFFFFFFFFFFFFFFF0
3FFFFFFFFFFFFFFFFFFFF0
3FFFFFFFFFFFFFFFFFFFF0
3FFFFFFFFFFFFFFFFFFFF0
1FFFFFFFFFFFFFFFFFFFE0
1FFFFFFFFFFFFFFFFFFFE0
1FFFFFFFFFFFFFFFFFFFE0
0FFFFFFFFFFFFFFFFFFFC0
0FFFFFFFFFFFFFFFFFFFC0
07FFFFFFFFFFFFFFFFFF80
03FFFFFFFFFFFFFFFFFF80
01FFFFFFFFFFFFFFFFFF00
00FFFFFFFFFFFFFFFFFE00
007FFFFFFFFFFFFFFFF800
001FFFFFFFFFFFFFFFF000
0007FFFFFFFFFFFFFF8000
0000FFFFFFFFFFFFFC0000
000007FFFFFFFFFF800000
00000003FFFFFF80000000
ENDCHAR
STARTCHAR 0037
ENCODING 55
SWIDTH 409 0
DWIDTH 91 0
BBX 73 180 9 0
BITMAP
FFFFFFFFFFFFFFFFFF80
FFFFFFFFFFFFFFFFFF80
FFFFFFFFFFFFFFFFFF80
FFFFFFFFFFFFFFFFFF80
FFFFFFFFFFFFFFFFFF80
FFFFFFFFFFFFFFFFFF80
FFFFFFFFFFFFFFFFFF80
FFFFFFFFFFFFFFFFFF80
FFFFFFFFFFFFFFFFFF80
FFFFFFFFFFFFFFFFFF80
FFFFFFFFFFFFFFFFFF80
FFFFFFFFFFFFFFFFFF80
FFFFFFFFFFFFFFFFFF80
FFFFFFFFFFFFFFFFFF80
FFFFFFFFFFFFFFFFFF80
FFFFFFFFFFFFFFFFFF80
FFFFFFFFFFFFFFFFFF80
FFFFFFFFFFFFFFFFFF80
FFFFFFFFFFFFFFFFFF80
FFFFFFFFFFFFFFFFFF80
FFFFFFFFFFFFFFFFFF80
FFFFFFFFFFFFFFFFFF80
FFFFFFFFFFFFFFFFFF80
FFFFFFFFFFFFFFFFFF80
000000000FFFFFFFFF80
000000000FFFFFFFFF80
000000000FFFFFFFFF00
000000001FFFFFFFFF00
000000001FFFFFFFFF00
000000001FFFFFFFFF00
000000001FFFFFFFFF00
000000001FFFFFFFFE00
000000003FFFFFFFFE00
000000003FFFFFFFFE00
000000003FFFFFFFFE00
000000003FFFFFFFFE00
000000007FFFFFFFFC00
000000007FFFFFFFFC00
000000007FFFFFFFFC00
000000007FFFFFFFFC00
000000007FFFFFFFFC00
00000000FFFFFFFFF800
00000000FFFFFFFFF800
00000000FFFFFFFFF800
00000000FFFFFFFFF800
00000001FFFFFFFFF000
00000001FFFFFFFFF000
00000001FFFFFFFFF000
00000001FFFFFFFFF000
00000001FFFFFFFFF000
00000003FFFFFFFFE000
00000003FFFFFFFFE000
00000003FFFFFFFFE000
00000003FFFFFFFFE000
00000007FFFFFFFFE000
00000007FFFFFFFFC000
00000007FFFFFFFFC000
00000007FFFFFFFFC000
00000007FFFFFFFFC000
0000000FFFFFFFFF8000
0000000FFFFFFFFF8000
0000000FFFFFFFFF8000
0000000FFFFFFFFF8000
0000000FFFFFFFFF8000
0000001FFFFFFFFF0000
0000001FFFFFFFFF0000
0000001FFFFFFFFF0000
0000001FFFFFFFFF0000
0000003FFFFFFFFF0000
0000003FFFFFFFFE0000
0000003FFFFFFFFE0000
0000003FFFFFFFFE0000
0000003FFFFFFFFE0000
0000007FFFFFFFFC0000
0000007FFFFFFFFC0000
0000007FFFFFFFFC0000
0000007FFFFFFFFC0000
000000FFFFFFFFFC0000
000000FFFFFFFFF80000
000000FFFFFFFFF80000
000000FFFFFFFFF80000
000000FFFFFFFFF80000
000001FFFFFFFFF80000
000001FFFFFFFFF00000
000001FFFFFFFFF00000
000001FFFFFFFFF00000
000003FFFFFFFFF00000
000003FFFFFFFFE00000
000003FFFFFFFFE00000
000003FFFFFFFFE00000
000003FFFFFFFFE00000
000007FFFFFFFFE00000
000007FFFFFFFFC00000
000007FFFFFFFFC00000
000007FFFFFFFFC00000
000007FFFFFFFFC00000
00000FFFFFFFFFC00000
00000FFFFFFFFF800000
00000FFFFFFFFF800000
00000FFFFFFFFF800000
00001FFFFFFFFF800000
00001FFFFFFFFF800000
00001FFFFFFFFF000000
00001FFFFFFFFF000000
00001FFFFFFFFF000000
00003FFFFFFFFF000000
00003FFFFFFFFE000000
00003FFFFFFFFE000000
00003FFFFFFFFE000000
00007FFFFFFFFE000000
00007FFFFFFFFE000000
00007FFFFFFFFC000000
00007FFFFFFFFC000000
00007FFFFFFFFC000000
0000FFFFFFFFFC000000
0000FFFFFFFFFC000000
0000FFFFFFFFF8000000
0000FFFFFFFFF8000000
0001FFFFFFFFF8000000
0001FFFFFFFFF8000000
0001FFFFFFFFF0000000
0001FFFFFFFFF0000000
0001FFFFFFFFF0000000
0003FFFFFFFFF0000000
0003FFFFFFFFF0000000
0003FFFFFFFFE0000000
0003FFFFFFFFE0000000
0003FFFFFFFFE0000000
0007FFFFFFFFE0000000
0007FFFFFFFFE0000000
0007FFFFFFFFC0000000
0007FFFFFFFFC0000000
000FFFFFFFFFC0000000
000FFFFFFFFFC0000000
000FFFFFFFFF80000000
000FFFFFFFFF80000000
000FFFFFFFFF80000000
001FFFFFFFFF80000000
001FFFFFFFFF80000000
001FFFFFFFFF00000000
001FFFFFFFFF00000000
003FFFFFFFFF00000000
003FFFFFFFFF00000000
003FFFFFFFFF00000000
003FFFFFFFFE00000000
003FFFFFFFFE00000000
007FFFFFFFFE00000000
007FFFFFFFFE00000000
007FFFFFFFFC00000000
007FFFFFFFFC00000000
00FFFFFFFFFC00000000
00FFFFFFFFFC00000000
00FFFFFFFFFC00000000
00FFFFFFFFF800000000
00FFFFFFFFF800000000
01FFFFFFFFF800000000
01FFFFFFFFF800000000
01FFFFFFFFF800000000
01FFFFFFFFF000000000
01FFFFFFFFF000000000
03FFFFFFFFF000000000
03FFFFFFFFF000000000
03FFFFFFFFE000000000
03FFFFFFFFE000000000
07FFFFFFFFE000000000
07FFFFFFFFE000000000
07FFFFFFFFE000000000
07FFFFFFFFC000000000
07FFFFFFFFC000000000
0FFFFFFFFFC000000000
0FFFFFFFFFC000000000
0FFFFFFFFFC000000000
0FFFFFFFFF8000000000
1FFFFFFFFF8000000000
1FFFFFFFFF8000000000
1FFFFFFFFF8000000000
1FFFFFFFFF8000000000
1FFFFFFFFF0000000000
3FFFFFFFFF0000000000
3FFFFFFFFF0000000000
ENDCHAR
STARTCHAR 0038
ENCODING 56
SWIDTH 459 0
DWIDTH 102 0
BBX 86 181 8 -1
BITMAP
00000003FFFFFF80000000
000007FFFFFFFFFF800000
0000FFFFFFFFFFFFF80000
0007FFFFFFFFFFFFFF8000
003FFFFFFFFFFFFFFFE000
007FFFFFFFFFFFFFFFF800
01FFFFFFFFFFFFFFFFFC00
03FFFFFFFFFFFFFFFFFE00
07FFFFFFFFFFFFFFFFFF00
07FFFFFFFFFFFFFFFFFF80
0FFFFFFFFFFFFFFFFFFF80
0FFFFFFFFFFFFFFFFFFFC0
1FFFFFFFFFFFFFFFFFFFC0
1FFFFFFFFFFFFFFFFFFFE0
1FFFFFFFFFFFFFFFFFFFE0
3FFFFFFFFFFFFFFFFFFFF0
3FFFFFFFFFFFFFFFFFFFF0
3FFFFFFFFFFFFFFFFFFFF0
7FFFFFFFFFFFFFFFFFFFF0
7FFFFFFFFFFFFFFFFFFFF8
7FFFFFFFFFFFFFFFFFFFF8
7FFFFFFFFFFFFFFFFFFFF8
7FFFFFFFFFFFFFFFFFFFF8
7FFFFFFFFF03FFFFFFFFF8
7FFFFFFFFE00FFFFFFFFF8
FFFFFFFFFC00FFFFFFFFFC
FFFFFFFFF800FFFFFFFFFC
FFFFFFFFF8007FFFFFFFFC
FFFFFFFFF8007FFFFFFFFC
FFFFFFFFF8007FFFFFFFFC
FFFFFFFFF8007FFFFFFFFC
FFFFFFFFF8007FFFFFFFFC
FFFFFFFFF8007FFFFFFFFC
FFFFFFFFF8007FFFFFFFFC
FFFFFFFFF8007FFFFFFFFC
FFFFFFFFF8007FFFFFFFFC
FFFFFFFFF8007FFFFFFFFC
FFFFFFFFF8007FFFFFFFFC
FFFFFFFFF8007FFFFFFFFC
FFFFFFFFF8007FFFFFFFFC
FFFFFFFFF8007FFFFFFFFC
FFFFFFFFF8007FFFFFFFFC
FFFFFFFFF8007FFFFFFFFC
FFFFFFFFF8007FFFFFFFFC
FFFFFFFFF8007FFFFFFFFC
FFFFFFFFF8007FFFFFFFFC
FFFFFFFFF8007FFFFFFFFC
FFFFFFFFF8007FFFFFFFFC
FFFFFFFFF8007FFFFFFFFC
FFFFFFFFF8007FFFFFFFFC
FFFFFFFFF8007FFFFFFFFC
FFFFFFFFF8007FFFFFFFFC
FFFFFFFFF8007FFFFFFFFC
FFFFFFFFF8007FFFFFFFFC
FFFFFFFFF8007FFFFFFFFC
FFFFFFFFF8007FFFFFFFFC
FFFFFFFFF8007FFFFFFFFC
FFFFFFFFF8007FFFFFFFFC
FFFFFFFFF8007FFFFFFFFC
FFFFFFFFF8007FFFFFFFFC
FFFFFFFFF8007FFFFFFFFC
FFFFFFFFF8007FFFFFFFFC
FFFFFFFFF8007FFFFFFFFC
FFFFFFFFF8007FFFFFFFFC
FFFFFFFFF800FFFFFFFFFC
7FFFFFFFFC00FFFFFFFFF8
7FFFFFFFFC00FFFFFFFFF8
7FFFFFFFFE01FFFFFFFFF8
7FFFFFFFFFFFFFFFFFFFF8
7FFFFFFFFFFFFFFFFFFFF8
3FFFFFFFFFFFFFFFFFFFF0
3FFFFFFFFFFFFFFFFFFFF0
3FFFFFFFFFFFFFFFFFFFF0
1FFFFFFFFFFFFFFFFFFFE0
1FFFFFFFFFFFFFFFFFFFE0
0FFFFFFFFFFFFFFFFFFFC0
0FFFFFFFFFFFFFFFFFFF80
07FFFFFFFFFFFFFFFFFF00
03FFFFFFFFFFFFFFFFFE00
00FFFFFFFFFFFFFFFFFC00
007FFFFFFFFFFFFFFFF000
001FFFFFFFFFFFFFFFC000
0001FFFFFFFFFFFFFE0000
0001FFFFFFFFFFFFFE0000
000FFFFFFFFFFFFFFF8000
003FFFFFFFFFFFFFFFF000
00FFFFFFFFFFFFFFFFF800
01FFFFFFFFFFFFFFFFFE00
03FFFFFFFFFFFFFFFFFF00
07FFFFFFFFFFFFFFFFFF80
0FFFFFFFFFFFFFFFFFFF80
1FFFFFFFFFFFFFFFFFFFC0
1FFFFFFFFFFFFFFFFFFFE0
3FFFFFFFFFFFFFFFFFFFE0
3FFFFFFFFFFFFFFFFFFFF0
3FFFFFFFFF07FFFFFFFFF0
7FFFFFFFFE01FFFFFFFFF0
7FFFFFFFFC00FFFFFFFFF8
7FFFFFFFFC00FFFFFFFFF8
7FFFFFFFF8007FFFFFFFF8
7FFFFFFFF8007FFFFFFFF8
FFFFFFFFF8007FFFFFFFF8
FFFFFFFFF8007FFFFFFFFC
FFFFFFFFF8007FFFFFFFFC
FFFFFFFFF8007FFFFFFFFC
FFFFFFFFF8007FFFFFFFFC
FFFFFFFFF8007FFFFFFFFC
FFFFFFFFF8007FFFFFFFFC
FFFFFFFFF8007FFFFFFFFC
FFFFFFFFF8007FFFFFFFFC
FFFFFFFFF8007FFFFFFFFC
FFFFFFFFF8007FFFFFFFFC
FFFFFFFFF8007FFFFFFFFC
FFFFFFFFF8007FFFFFFFFC
FFFFFFFFF8007FFFFFFFFC
FFFFFFFFF8007FFFFFFFFC
FFFFFFFFF8007FFFFFFFFC
FFFFFFFFF8007FFFFFFFFC
FFFFFFFFF8007FFFFFFFFC
FFFFFFFFF8007FFFFFFFFC
FFFFFFFFF8007FFFFFFFFC
FFFFFFFFF8007FFFFFFFFC
FFFFFFFFF8007FFFFFFFFC
FFFFFFFFF8007FFFFFFFFC
FFFFFFFFF8007FFFFFFFFC
FFFFFFFFF8007FFFFFFFFC
FFFFFFFFF8007FFFFFFFFC
FFFFFFFFF8007FFFFFFFFC
FFFFFFFFF8007FFFFFFFFC
FFFFFFFFF8007FFFFFFFFC
FFFFFFFFF8007FFFFFFFFC
FFFFFFFFF8007FFFFFFFFC
FFFFFFFFF8007FFFFFFFFC
FFFFFFFFF8007FFFFFFFFC
FFFFFFFFF8007FFFFFFFFC
FFFFFFFFF8007FFFFFFFFC
FFFFFFFFF8007FFFFFFFFC
FFFFFFFFF8007FFFFFFFFC
FFFFFFFFF8007FFFFFFFFC
FFFFFFFFF8007FFFFFFFFC
FFFFFFFFF8007FFFFFFFFC
FFFFFFFFF8007FFFFFFFFC
FFFFFFFFF8007FFFFFFFFC
FFFFFFFFF8007FFFFFFFFC
FFFFFFFFF8007FFFFFFFFC
FFFFFFFFF8007FFFFFFFFC
FFFFFFFFF8007FFFFFFFFC
FFFFFFFFF8007FFFFFFFFC
FFFFFFFFF8007FFFFFFFFC
FFFFFFFFF8007FFFFFFFFC
FFFFFFFFF8007FFFFFFFFC
FFFFFFFFF800FFFFFFFFFC
FFFFFFFFF800FFFFFFFFFC
FFFFFFFFFC00FFFFFFFFFC
FFFFFFFFFC01FFFFFFFFFC
FFFFFFFFFE01FFFFFFFFFC
7FFFFFFFFFCFFFFFFFFFF8
7FFFFFFFFFFFFFFFFFFFF8
7FFFFFFFFFFFFFFFFFFFF8
7FFFFFFFFFFFFFFFFFFFF8
7FFFFFFFFFFFFFFFFFFFF8
7FFFFFFFFFFFFFFFFFFFF8
3FFFFFFFFFFFFFFFFFFFF8
3FFFFFFFFFFFFFFFFFFFF0
3FFFFFFFFFFFFFFFFFFFF0
3FFFFFFFFFFFFFFFFFFFF0
1FFFFFFFFFFFFFFFFFFFE0
1FFFFFFFFFFFFFFFFFFFE0
1FFFFFFFFFFFFFFFFFFFE0
0FFFFFFFFFFFFFFFFFFFC0
0FFFFFFFFFFFFFFFFFFFC0
07FFFFFFFFFFFFFFFFFF80
03FFFFFFFFFFFFFFFFFF80
01FFFFFFFFFFFFFFFFFF00
00FFFFFFFFFFFFFFFFFE00
007FFFFFFFFFFFFFFFF800
001FFFFFFFFFFFFFFFF000
0007FFFFFFFFFFFFFF8000
0000FFFFFFFFFFFFFC0000
000007FFFFFFFFFF800000
00000007FFFFFF00000000
ENDCHAR
STARTCHAR 0039
ENCODING 57
SWIDTH 459 0
DWIDTH 102 0
BBX 85 181 8 -1
BITMAP
00000007FFFFFF00000000
00000FFFFFFFFFFF000000
0000FFFFFFFFFFFFF80000
0007FFFFFFFFFFFFFF0000
003FFFFFFFFFFFFFFFE000
007FFFFFFFFFFFFFFFF000
01FFFFFFFFFFFFFFFFFC00
03FFFFFFFFFFFFFFFFFE00
07FFFFFFFFFFFFFFFFFE00
07FFFFFFFFFFFFFFFFFF00
0FFFFFFFFFFFFFFFFFFF80
0FFFFFFFFFFFFFFFFFFF80
1FFFFFFFFFFFFFFFFFFFC0
1FFFFFFFFFFFFFFFFFFFC0
1FFFFFFFFFFFFFFFFFFFC0
3FFFFFFFFFFFFFFFFFFFE0
3FFFFFFFFFFFFFFFFFFFE0
3FFFFFFFFFFFFFFFFFFFE0
7FFFFFFFFFFFFFFFFFFFE0
7FFFFFFFFFFFFFFFFFFFF0
7FFFFFFFFFFFFFFFFFFFF0
7FFFFFFFFFFFFFFFFFFFF0
7FFFFFFFFFFFFFFFFFFFF0
7FFFFFFFFF03FFFFFFFFF0
7FFFFFFFFC01FFFFFFFFF0
FFFFFFFFFC01FFFFFFFFF8
FFFFFFFFF800FFFFFFFFF8
FFFFFFFFF800FFFFFFFFF8
FFFFFFFFF800FFFFFFFFF8
FFFFFFFFF800FFFFFFFFF8
FFFFFFFFF800FFFFFFFFF8
FFFFFFFFF800FFFFFFFFF8
FFFFFFFFF800FFFFFFFFF8
FFFFFFFFF800FFFFFFFFF8
FFFFFFFFF800FFFFFFFFF8
FFFFFFFFF800FFFFFFFFF8
FFFFFFFFF800FFFFFFFFF8
FFFFFFFFF800FFFFFFFFF8
FFFFFFFFF800FFFFFFFFF8
FFFFFFFFF800FFFFFFFFF8
FFFFFFFFF800FFFFFFFFF8
FFFFFFFFF800FFFFFFFFF8
FFFFFFFFF800FFFFFFFFF8
FFFFFFFFF800FFFFFFFFF8
FFFFFFFFF800FFFFFFFFF8
FFFFFFFFF800FFFFFFFFF8
FFFFFFFFF800FFFFFFFFF8
FFFFFFFFF800FFFFFFFFF8
FFFFFFFFF800FFFFFFFFF8
FFFFFFFFF800FFFFFFFFF8
FFFFFFFFF800FFFFFFFFF8
FFFFFFFFF800FFFFFFFFF8
FFFFFFFFF800FFFFFFFFF8
FFFFFFFFF800FFFFFFFFF8
FFFFFFFFF800FFFFFFFFF8
FFFFFFFFF800FFFFFFFFF8
FFFFFFFFF800FFFFFFFFF8
FFFFFFFFF800FFFFFFFFF8
FFFFFFFFF800FFFFFFFFF8
FFFFFFFFF800FFFFFFFFF8
FFFFFFFFF800FFFFFFFFF8
FFFFFFFFF800FFFFFFFFF8
FFFFFFFFF800FFFFFFFFF8
FFFFFFFFF800FFFFFFFFF8
FFFFFFFFF800FFFFFFFFF8
FFFFFFFFF800FFFFFFFFF8
FFFFFFFFF800FFFFFFFFF8
FFFFFFFFF800FFFFFFFFF8
FFFFFFFFF800FFFFFFFFF8
FFFFFFFFF800FFFFFFFFF8
FFFFFFFFF800FFFFFFFFF8
FFFFFFFFF800FFFFFFFFF8
FFFFFFFFF800FFFFFFFFF8
FFFFFFFFF800FFFFFFFFF8
FFFFFFFFF800FFFFFFFFF8
FFFFFFFFF800FFFFFFFFF8
FFFFFFFFF800FFFFFFFFF8
FFFFFFFFF800FFFFFFFFF8
FFFFFFFFF800FFFFFFFFF8
FFFFFFFFFC01FFFFFFFFF8
FFFFFFFFFC01FFFFFFFFF8
FFFFFFFFFE03FFFFFFFFF8
FFFFFFFFFFFFFFFFFFFFF8
FFFFFFFFFFFFFFFFFFFFF8
FFFFFFFFFFFFFFFFFFFFF8
7FFFFFFFFFFFFFFFFFFFF8
7FFFFFFFFFFFFFFFFFFFF8
7FFFFFFFFFFFFFFFFFFFF8
7FFFFFFFFFFFFFFFFFFFF8
7FFFFFFFFFFFFFFFFFFFF8
3FFFFFFFFFFFFFFFFFFFF8
3FFFFFFFFFFFFFFFFFFFF8
3FFFFFFFFFFFFFFFFFFFF8
3FFFFFFFFFFFFFFFFFFFF8
1FFFFFFFFFFFFFFFFFFFF8
1FFFFFFFFFFFFFFFFFFFF8
0FFFFFFFFFFFFFFFFFFFF8
0FFFFFFFFFFFFFFFFFFFF8
07FFFFFFFFFFFFFFFFFFF8
03FFFFFFFFFFFFFFFFFFF8
03FFFFFFFFFFFFFFFFFFF8
01FFFFFFFFFFFFFFFFFFF8
00FFFFFFFFFFFFFFFFFFF8
003FFFFFFFFCFFFFFFFFF8
001FFFFFFFF8FFFFFFFFF8
0007FFFFFFE0FFFFFFFFF8
0001FFFFFF80FFFFFFFFF8
00003FFFF800FFFFFFFFF8
0000003C0000FFFFFFFFF8
000000000000FFFFFFFFF8
000000000000FFFFFFFFF8
000000000000FFFFFFFFF8
000000000000FFFFFFFFF8
000000000000FFFFFFFFF8
000000000000FFFFFFFFF8
000000000000FFFFFFFFF8
000000000000FFFFFFFFF8
000000000000FFFFFFFFF8
FFFFFFFFF800FFFFFFFFF8
FFFFFFFFF800FFFFFFFFF8
FFFFFFFFF800FFFFFFFFF8
FFFFFFFFF800FFFFFFFFF8
FFFFFFFFF800FFFFFFFFF8
FFFFFFFFF800FFFFFFFFF8
FFFFFFFFF800FFFFFFFFF8
FFFFFFFFF800FFFFFFFFF8
FFFFFFFFF800FFFFFFFFF8
FFFFFFFFF800FFFFFFFFF8
FFFFFFFFF800FFFFFFFFF8
FFFFFFFFF800FFFFFFFFF8
FFFFFFFFF800FFFFFFFFF8
FFFFFFFFF800FFFFFFFFF8
FFFFFFFFF800FFFFFFFFF8
FFFFFFFFF800FFFFFFFFF8
FFFFFFFFF800FFFFFFFFF8
FFFFFFFFF800FFFFFFFFF8
FFFFFFFFF800FFFFFFFFF8
FFFFFFFFF800FFFFFFFFF8
FFFFFFFFF800FFFFFFFFF8
FFFFFFFFF800FFFFFFFFF8
FFFFFFFFF800FFFFFFFFF8
FFFFFFFFF800FFFFFFFFF8
FFFFFFFFF800FFFFFFFFF8
FFFFFFFFF800FFFFFFFFF8
FFFFFFFFF800FFFFFFFFF8
FFFFFFFFF800FFFFFFFFF8
FFFFFFFFF800FFFFFFFFF8
FFFFFFFFF800FFFFFFFFF8
FFFFFFFFF800FFFFFFFFF8
FFFFFFFFF800FFFFFFFFF8
FFFFFFFFF800FFFFFFFFF8
FFFFFFFFF800FFFFFFFFF8
FFFFFFFFF800FFFFFFFFF8
FFFFFFFFF800FFFFFFFFF8
FFFFFFFFFC01FFFFFFFFF8
FFFFFFFFFE01FFFFFFFFF8
7FFFFFFFFF07FFFFFFFFF0
7FFFFFFFFFFFFFFFFFFFF0
7FFFFFFFFFFFFFFFFFFFF0
7FFFFFFFFFFFFFFFFFFFF0
7FFFFFFFFFFFFFFFFFFFF0
7FFFFFFFFFFFFFFFFFFFF0
7FFFFFFFFFFFFFFFFFFFE0
3FFFFFFFFFFFFFFFFFFFE0
3FFFFFFFFFFFFFFFFFFFE0
3FFFFFFFFFFFFFFFFFFFE0
1FFFFFFFFFFFFFFFFFFFC0
1FFFFFFFFFFFFFFFFFFFC0
1FFFFFFFFFFFFFFFFFFFC0
0FFFFFFFFFFFFFFFFFFF80
0FFFFFFFFFFFFFFFFFFF80
07FFFFFFFFFFFFFFFFFF00
07FFFFFFFFFFFFFFFFFE00
03FFFFFFFFFFFFFFFFFE00
01FFFFFFFFFFFFFFFFFC00
007FFFFFFFFFFFFFFFF000
003FFFFFFFFFFFFFFFC000
0007FFFFFFFFFFFFFF0000
0000FFFFFFFFFFFFF80000
00000FFFFFFFFFFF000000
00000007FFFFFF00000000
ENDCHAR
STARTCHAR 003A
ENCODING 58
SWIDTH 243 0
DWIDTH 54 0
BBX 31 138 11 0
BITMAP
FFFFFFFE
FFFFFFFE
FFFFFFFE
FFFFFFFE
FFFFFFFE
FFFFFFFE
FFFFFFFE
FFFFFFFE
FFFFFFFE
FFFFFFFE
FFFFFFFE
FFFFFFFE
FFFFFFFE
FFFFFFFE
FFFFFFFE
FFFFFFFE
FFFFFFFE
FFFFFFFE
FFFFFFFE
FFFFFFFE
FFFFFFFE
FFFFFFFE
FFFFFFFE
FFFFFFFE
FFFFFFFE
FFFFFFFE
FFFFFFFE
FFFFFFFE
FFFFFFFE
FFFFFFFE
FFFFFFFE
FFFFFFFE
00000000
00000000
00000000
00000000
00000000
00000000
00000000
00000000
00000000
00000000
00000000
00000000
00000000
00000000
00000000
00000000
00000000
00000000
00000000
00000000
00000000
00000000
00000000
00000000
00000000
00000000
00000000
00000000
00000000
00000000
00000000
00000000
00000000
00000000
00000000
00000000
00000000
00000000
00000000
00000000
00000000
00000000
00000000
00000000
00000000
00000000
00000000
00000000
00000000
00000000
00000000
00000000
00000000
00000000
00000000
00000000
00000000
00000000
00000000
00000000
00000000
00000000
00000000
00000000
00000000
00000000
00000000
00000000
00000000
00000000
00000000
00000000
00000000
00000000
FFFFFFFE
FFFFFFFE
FFFFFFFE
FFFFFFFE
FFFFFFFE
FFFFFFFE
FFFFFFFE
FFFFFFFE
FFFFFFFE
FFFFFFFE
FFFFFFFE
FFFFFFFE
FFFFFFFE
FFFFFFFE
FFFFFFFE
FFFFFFFE
FFFFFFFE
FFFFFFFE
FFFFFFFE
FFFFFFFE
FFFFFFFE
FFFFFFFE
FFFFFFFE
FFFFFFFE
FFFFFFFE
FFFFFFFE
FFFFFFFE
FFFFFFFE
FFFFFFFE
FFFFFFFE
FFFFFFFE
FFFFFFFE
ENDCHAR
STARTCHAR 003B
ENCODING 59
SWIDTH 243 0
DWIDTH 54 0
BBX 31 169 11 -31
BITMAP
FFFFFFFE
FFFFFFFE
FFFFFFFE
FFFFFFFE
FFFFFFFE
FFFFFFFE
FFFFFFFE
FFFFFFFE
FFFFFFFE
FFFFFFFE
FFFFFFFE
FFFFFFFE
FFFFFFFE
FFFFFFFE
FFFFFFFE
FFFFFFFE
FFFFFFFE
FFFFFFFE
FFFFFFFE
FFFFFFFE
FFFFFFFE
FFFFFFFE
FFFFFFFE
FFFFFFFE
FFFFFFFE
FFFFFFFE
FFFFFFFE
FFFFFFFE
FFFFFFFE
FFFFFFFE
FFFFFFFE
FFFFFFFE
00000000
00000000
00000000
00000000
00000000
00000000
00000000
00000000
00000000
00000000
00000000
00000000
00000000
00000000
00000000
00000000
00000000
00000000
00000000
00000000
00000000
00000000
00000000
00000000
00000000
00000000
00000000
00000000
00000000
00000000
00000000
00000000
00000000
00000000
00000000
00000000
00000000
00000000
00000000
00000000
00000000
00000000
00000000
00000000
00000000
00000000
00000000
00000000
00000000
00000000
00000000
00000000
00000000
00000000
00000000
00000000
00000000
00000000
00000000
00000000
00000000
00000000
00000000
00000000
00000000
00000000
00000000
00000000
00000000
00000000
00000000
00000000
00000000
00000000
FFFFFFFE
FFFFFFFE
FFFFFFFE
FFFFFFFE
FFFFFFFE
FFFFFFFE
FFFFFFFE
FFFFFFFE
FFFFFFFE
FFFFFFFE
FFFFFFFE
FFFFFFFE
FFFFFFFE
FFFFFFFE
FFFFFFFE
FFFFFFFE
FFFFFFFE
FFFFFFFE
FFFFFFFE
FFFFFFFE
FFFFFFFE
FFFFFFFE
FFFFFFFE
FFFFFFFE
FFFFFFFE
FFFFFFFE
FFFFFFFE
FFFFFFFE
FFFFFFFE
FFFFFFFE
FFFFFFFE
FFFFFFFE
0007FFFE
0007FFFE
0007FFFE
0007FFFE
0007FFFE
0007FFFE
0007FFFE
0007FFFE
000FFFFE
000FFFFC
000FFFFC
001FFFFC
001FFFFC
003FFFFC
00FFFFF8
03FFFFF8
FFFFFFF8
FFFFFFF0
FFFFFFF0
FFFFFFE0
FFFFFFC0
FFFFFFC0
FFFFFF80
FFFFFF00
FFFFFE00
FFFFFC00
FFFFF000
FFFFC000
FFFF0000
FFF80000
FE000000
ENDCHAR
STARTCHAR 003C
ENCODING 60
SWIDTH 999 0
DWIDTH 222 0
BBX 153 122 35 6
BITMAP
0000000000000000000000000000000000000380
0000000000000000000000000000000000001F80
000000000000000000000000000000000000FF80
000000000000000000000000000000000007FF80
00000000000000000000000000000000003FFF80
0000000000000000000000000000000000FFFF80
0000000000000000000000000000000007FFFF80
000000000000000000000000000000003FFFFF80
00000000000000000000000000000001FFFFFF80
0000000000000000000000000000000FFFFFFF80
0000000000000000000000000000007FFFFFFF80
000000000000000000000000000003FFFFFFFF80
00000000000000000000000000001FFFFFFFFF80
0000000000000000000000000000FFFFFFFFFF80
0000000000000000000000000007FFFFFFFFFF80
000000000000000000000000001FFFFFFFFFFF80
00000000000000000000000000FFFFFFFFFFFF80
00000000000000000000000007FFFFFFFFFFFF80
0000000000000000000000003FFFFFFFFFFFFF80
000000000000000000000001FFFFFFFFFFFFFF80
00000000000000000000000FFFFFFFFFFFFFFC00
00000000000000000000007FFFFFFFFFFFFFE000
0000000000000000000003FFFFFFFFFFFFFF0000
000000000000000000001FFFFFFFFFFFFFF80000
00000000000000000000FFFFFFFFFFFFFFE00000
00000000000000000003FFFFFFFFFFFFFF000000
0000000000000000001FFFFFFFFFFFFFF8000000
000000000000000000FFFFFFFFFFFFFFC0000000
000000000000000007FFFFFFFFFFFFFE00000000
00000000000000003FFFFFFFFFFFFFF000000000
0000000000000001FFFFFFFFFFFFFF8000000000
000000000000000FFFFFFFFFFFFFFC0000000000
000000000000007FFFFFFFFFFFFFE00000000000
00000000000003FFFFFFFFFFFFFF000000000000
0000000000001FFFFFFFFFFFFFF8000000000000
000000000000FFFFFFFFFFFFFFC0000000000000
000000000003FFFFFFFFFFFFFE00000000000000
00000000001FFFFFFFFFFFFFF000000000000000
0000000000FFFFFFFFFFFFFF8000000000000000
0000000007FFFFFFFFFFFFFC0000000000000000
000000003FFFFFFFFFFFFFE00000000000000000
00000001FFFFFFFFFFFFFF000000000000000000
0000000FFFFFFFFFFFFFFC000000000000000000
0000007FFFFFFFFFFFFFE0000000000000000000
000003FFFFFFFFFFFFFF00000000000000000000
00001FFFFFFFFFFFFFF800000000000000000000
00007FFFFFFFFFFFFFC000000000000000000000
0003FFFFFFFFFFFFFE0000000000000000000000
001FFFFFFFFFFFFFF00000000000000000000000
00FFFFFFFFFFFFFF800000000000000000000000
07FFFFFFFFFFFFFC000000000000000000000000
3FFFFFFFFFFFFFE0000000000000000000000000
FFFFFFFFFFFFFF00000000000000000000000000
FFFFFFFFFFFFF800000000000000000000000000
FFFFFFFFFFFFC000000000000000000000000000
FFFFFFFFFFFE0000000000000000000000000000
FFFFFFFFFFF00000000000000000000000000000
FFFFFFFFFF800000000000000000000000000000
FFFFFFFFFC000000000000000000000000000000
FFFFFFFFE0000000000000000000000000000000
FFFFFFFF80000000000000000000000000000000
FFFFFFFFC0000000000000000000000000000000
FFFFFFFFF8000000000000000000000000000000
FFFFFFFFFF000000000000000000000000000000
FFFFFFFFFFE00000000000000000000000000000
FFFFFFFFFFFC0000000000000000000000000000
FFFFFFFFFFFF8000000000000000000000000000
FFFFFFFFFFFFF000000000000000000000000000
FFFFFFFFFFFFFC00000000000000000000000000
FFFFFFFFFFFFFF80000000000000000000000000
1FFFFFFFFFFFFFF0000000000000000000000000
03FFFFFFFFFFFFFE000000000000000000000000
007FFFFFFFFFFFFFC00000000000000000000000
000FFFFFFFFFFFFFF80000000000000000000000
0001FFFFFFFFFFFFFF0000000000000000000000
00003FFFFFFFFFFFFFE000000000000000000000
000007FFFFFFFFFFFFFC00000000000000000000
000000FFFFFFFFFFFFFF80000000000000000000
0000003FFFFFFFFFFFFFF0000000000000000000
00000007FFFFFFFFFFFFFE000000000000000000
00000000FFFFFFFFFFFFFFC00000000000000000
000000001FFFFFFFFFFFFFF80000000000000000
0000000003FFFFFFFFFFFFFF0000000000000000
00000000007FFFFFFFFFFFFFC000000000000000
00000000000FFFFFFFFFFFFFF800000000000000
000000000001FFFFFFFFFFFFFF00000000000000
0000000000003FFFFFFFFFFFFFE0000000000000
00000000000007FFFFFFFFFFFFFC000000000000
00000000000000FFFFFFFFFFFFFF800000000000
000000000000003FFFFFFFFFFFFFF00000000000
0000000000000007FFFFFFFFFFFFFE0000000000
0000000000000000FFFFFFFFFFFFFFC000000000
00000000000000001FFFFFFFFFFFFFF800000000
000000000000000003FFFFFFFFFFFFFF00000000
0000000000000000007FFFFFFFFFFFFFE0000000
0000000000000000000FFFFFFFFFFFFFFC000000
00000000000000000001FFFFFFFFFFFFFF800000
000000000000000000003FFFFFFFFFFFFFF00000
0000000000000000000007FFFFFFFFFFFFFE0000
0000000000000000000000FFFFFFFFFFFFFF8000
00000000000000000000001FFFFFFFFFFFFFF000
000000000000000000000007FFFFFFFFFFFFFE00
000000000000000000000000FFFFFFFFFFFFFF80
0000000000000000000000001FFFFFFFFFFFFF80
00000000000000000000000003FFFFFFFFFFFF80
000000000000000000000000007FFFFFFFFFFF80
000000000000000000000000000FFFFFFFFFFF80
0000000000000000000000000001FFFFFFFFFF80
00000000000000000000000000003FFFFFFFFF80
000000000000000000000000000007FFFFFFFF80
000000000000000000000000000000FFFFFFFF80
0000000000000000000000000000001FFFFFFF80
00000000000000000000000000000003FFFFFF80
00000000000000000000000000000000FFFFFF80
000000000000000000000000000000001FFFFF80
0000000000000000000000000000000003FFFF80
00000000000000000000000000000000007FFF80
00000000000000000000000000000000000FFF80
000000000000000000000000000000000001FF80
0000000000000000000000000000000000003F80
0000000000000000000000000000000000000780
0000000000000000000000000000000000000080
ENDCHAR
STARTCHAR 003D
ENCODING 61
SWIDTH 999 0
DWIDTH 222 0
BBX 156 64 33 34
BITMAP
FFFFFFFFFFFFFFFFFFFFFFFFFFFFFFFFFFFFFFF0
FFFFFFFFFFFFFFFFFFFFFFFFFFFFFFFFFFFFFFF0
FFFFFFFFFFFFFFFFFFFFFFFFFFFFFFFFFFFFFFF0
FFFFFFFFFFFFFFFFFFFFFFFFFFFFFFFFFFFFFFF0
FFFFFFFFFFFFFFFFFFFFFFFFFFFFFFFFFFFFFFF0
FFFFFFFFFFFFFFFFFFFFFFFFFFFFFFFFFFFFFFF0
FFFFFFFFFFFFFFFFFFFFFFFFFFFFFFFFFFFFFFF0
FFFFFFFFFFFFFFFFFFFFFFFFFFFFFFFFFFFFFFF0
FFFFFFFFFFFFFFFFFFFFFFFFFFFFFFFFFFFFFFF0
FFFFFFFFFFFFFFFFFFFFFFFFFFFFFFFFFFFFFFF0
FFFFFFFFFFFFFFFFFFFFFFFFFFFFFFFFFFFFFFF0
FFFFFFFFFFFFFFFFFFFFFFFFFFFFFFFFFFFFFFF0
FFFFFFFFFFFFFFFFFFFFFFFFFFFFFFFFFFFFFFF0
FFFFFFFFFFFFFFFFFFFFFFFFFFFFFFFFFFFFFFF0
FFFFFFFFFFFFFFFFFFFFFFFFFFFFFFFFFFFFFFF0
FFFFFFFFFFFFFFFFFFFFFFFFFFFFFFFFFFFFFFF0
FFFFFFFFFFFFFFFFFFFFFFFFFFFFFFFFFFFFFFF0
FFFFFFFFFFFFFFFFFFFFFFFFFFFFFFFFFFFFFFF0
FFFFFFFFFFFFFFFFFFFFFFFFFFFFFFFFFFFFFFF0
0000000000000000000000000000000000000000
0000000000000000000000000000000000000000
0000000000000000000000000000000000000000
0000000000000000000000000000000000000000
0000000000000000000000000000000000000000
0000000000000000000000000000000000000000
0000000000000000000000000000000000000000
0000000000000000000000000000000000000000
0000000000000000000000000000000000000000
0000000000000000000000000000000000000000
0000000000000000000000000000000000000000
0000000000000000000000000000000000000000
0000000000000000000000000000000000000000
0000000000000000000000000000000000000000
0000000000000000000000000000000000000000
0000000000000000000000000000000000000000
0000000000000000000000000000000000000000
0000000000000000000000000000000000000000
0000000000000000000000000000000000000000
0000000000000000000000000000000000000000
0000000000000000000000000000000000000000
0000000000000000000000000000000000000000
0000000000000000000000000000000000000000
0000000000000000000000000000000000000000
0000000000000000000000000000000000000000
0000000000000000000000000000000000000000
FFFFFFFFFFFFFFFFFFFFFFFFFFFFFFFFFFFFFFF0
FFFFFFFFFFFFFFFFFFFFFFFFFFFFFFFFFFFFFFF0
FFFFFFFFFFFFFFFFFFFFFFFFFFFFFFFFFFFFFFF0
FFFFFFFFFFFFFFFFFFFFFFFFFFFFFFFFFFFFFFF0
FFFFFFFFFFFFFFFFFFFFFFFFFFFFFFFFFFFFFFF0
FFFFFFFFFFFFFFFFFFFFFFFFFFFFFFFFFFFFFFF0
FFFFFFFFFFFFFFFFFFFFFFFFFFFFFFFFFFFFFFF0
FFFFFFFFFFFFFFFFFFFFFFFFFFFFFFFFFFFFFFF0
FFFFFFFFFFFFFFFFFFFFFFFFFFFFFFFFFFFFFFF0
FFFFFFFFFFFFFFFFFFFFFFFFFFFFFFFFFFFFFFF0
FFFFFFFFFFFFFFFFFFFFFFFFFFFFFFFFFFFFFFF0
FFFFFFFFFFFFFFFFFFFFFFFFFFFFFFFFFFFFFFF0
FFFFFFFFFFFFFFFFFFFFFFFFFFFFFFFFFFFFFFF0
FFFFFFFFFFFFFFFFFFFFFFFFFFFFFFFFFFFFFFF0
FFFFFFFFFFFFFFFFFFFFFFFFFFFFFFFFFFFFFFF0
FFFFFFFFFFFFFFFFFFFFFFFFFFFFFFFFFFFFFFF0
FFFFFFFFFFFFFFFFFFFFFFFFFFFFFFFFFFFFFFF0
FFFFFFFFFFFFFFFFFFFFFFFFFFFFFFFFFFFFFFF0
FFFFFFFFFFFFFFFFFFFFFFFFFFFFFFFFFFFFFFF0
ENDCHAR
STARTCHAR 003E
ENCODING 62
SWIDTH 999 0
DWIDTH 222 0
BBX 153 122 35 6
BITMAP
E000000000000000000000000000000000000000
FC00000000000000000000000000000000000000
FF80000000000000000000000000000000000000
FFF0000000000000000000000000000000000000
FFFC000000000000000000000000000000000000
FFFF800000000000000000000000000000000000
FFFFF00000000000000000000000000000000000
FFFFFE0000000000000000000000000000000000
FFFFFFC000000000000000000000000000000000
FFFFFFF800000000000000000000000000000000
FFFFFFFF00000000000000000000000000000000
FFFFFFFFE0000000000000000000000000000000
FFFFFFFFFC000000000000000000000000000000
FFFFFFFFFF800000000000000000000000000000
FFFFFFFFFFE00000000000000000000000000000
FFFFFFFFFFFC0000000000000000000000000000
FFFFFFFFFFFF8000000000000000000000000000
FFFFFFFFFFFFF000000000000000000000000000
FFFFFFFFFFFFFE00000000000000000000000000
FFFFFFFFFFFFFFC0000000000000000000000000
1FFFFFFFFFFFFFF8000000000000000000000000
03FFFFFFFFFFFFFF000000000000000000000000
007FFFFFFFFFFFFFE00000000000000000000000
000FFFFFFFFFFFFFFC0000000000000000000000
0003FFFFFFFFFFFFFF8000000000000000000000
00007FFFFFFFFFFFFFE000000000000000000000
00000FFFFFFFFFFFFFFC00000000000000000000
000001FFFFFFFFFFFFFF80000000000000000000
0000003FFFFFFFFFFFFFF0000000000000000000
00000007FFFFFFFFFFFFFE000000000000000000
00000000FFFFFFFFFFFFFFC00000000000000000
000000001FFFFFFFFFFFFFF80000000000000000
0000000003FFFFFFFFFFFFFF0000000000000000
00000000007FFFFFFFFFFFFFE000000000000000
00000000000FFFFFFFFFFFFFFC00000000000000
000000000001FFFFFFFFFFFFFF00000000000000
0000000000003FFFFFFFFFFFFFE0000000000000
00000000000007FFFFFFFFFFFFFC000000000000
00000000000000FFFFFFFFFFFFFF800000000000
000000000000001FFFFFFFFFFFFFF00000000000
0000000000000003FFFFFFFFFFFFFE0000000000
00000000000000007FFFFFFFFFFFFFC000000000
00000000000000001FFFFFFFFFFFFFF800000000
000000000000000003FFFFFFFFFFFFFF00000000
0000000000000000007FFFFFFFFFFFFFE0000000
0000000000000000000FFFFFFFFFFFFFFC000000
00000000000000000001FFFFFFFFFFFFFF000000
000000000000000000003FFFFFFFFFFFFFE00000
0000000000000000000007FFFFFFFFFFFFFC0000
0000000000000000000000FFFFFFFFFFFFFF8000
00000000000000000000001FFFFFFFFFFFFFF000
000000000000000000000003FFFFFFFFFFFFFE00
0000000000000000000000007FFFFFFFFFFFFF80
0000000000000000000000000FFFFFFFFFFFFF80
00000000000000000000000001FFFFFFFFFFFF80
000000000000000000000000003FFFFFFFFFFF80
0000000000000000000000000007FFFFFFFFFF80
0000000000000000000000000000FFFFFFFFFF80
00000000000000000000000000001FFFFFFFFF80
000000000000000000000000000003FFFFFFFF80
000000000000000000000000000000FFFFFFFF80
000000000000000000000000000001FFFFFFFF80
00000000000000000000000000000FFFFFFFFF80
00000000000000000000000000007FFFFFFFFF80
0000000000000000000000000003FFFFFFFFFF80
000000000000000000000000001FFFFFFFFFFF80
00000000000000000000000000FFFFFFFFFFFF80
00000000000000000000000007FFFFFFFFFFFF80
0000000000000000000000001FFFFFFFFFFFFF80
000000000000000000000000FFFFFFFFFFFFFF80
000000000000000000000007FFFFFFFFFFFFFC00
00000000000000000000003FFFFFFFFFFFFFE000
0000000000000000000001FFFFFFFFFFFFFF0000
000000000000000000000FFFFFFFFFFFFFF80000
000000000000000000007FFFFFFFFFFFFFC00000
00000000000000000003FFFFFFFFFFFFFE000000
0000000000000000001FFFFFFFFFFFFFF0000000
000000000000000000FFFFFFFFFFFFFFC0000000
000000000000000007FFFFFFFFFFFFFE00000000
00000000000000003FFFFFFFFFFFFFF000000000
0000000000000001FFFFFFFFFFFFFF8000000000
000000000000000FFFFFFFFFFFFFFC0000000000
000000000000007FFFFFFFFFFFFFE00000000000
00000000000003FFFFFFFFFFFFFF000000000000
0000000000000FFFFFFFFFFFFFF8000000000000
0000000000007FFFFFFFFFFFFFC0000000000000
000000000003FFFFFFFFFFFFFE00000000000000
00000000001FFFFFFFFFFFFFF000000000000000
0000000000FFFFFFFFFFFFFF8000000000000000
0000000007FFFFFFFFFFFFFE0000000000000000
000000003FFFFFFFFFFFFFF00000000000000000
00000001FFFFFFFFFFFFFF800000000000000000
0000000FFFFFFFFFFFFFFC000000000000000000
0000007FFFFFFFFFFFFFE0000000000000000000
000003FFFFFFFFFFFFFF00000000000000000000
00001FFFFFFFFFFFFFF800000000000000000000
0000FFFFFFFFFFFFFFC000000000000000000000
0007FFFFFFFFFFFFFE0000000000000000000000
003FFFFFFFFFFFFFF00000000000000000000000
01FFFFFFFFFFFFFF800000000000000000000000
07FFFFFFFFFFFFFC000000000000000000000000
3FFFFFFFFFFFFFF0000000000000000000000000
FFFFFFFFFFFFFF80000000000000000000000000
FFFFFFFFFFFFFC00000000000000000000000000
FFFFFFFFFFFFE000000000000000000000000000
FFFFFFFFFFFF0000000000000000000000000000
FFFFFFFFFFF80000000000000000000000000000
FFFFFFFFFFC00000000000000000000000000000
FFFFFFFFFE000000000000000000000000000000
FFFFFFFFF0000000000000000000000000000000
FFFFFFFF80000000000000000000000000000000
FFFFFFFC00000000000000000000000000000000
FFFFFFE000000000000000000000000000000000
FFFFFF8000000000000000000000000000000000
FFFFFC0000000000000000000000000000000000
FFFFE00000000000000000000000000000000000
FFFF000000000000000000000000000000000000
FFF8000000000000000000000000000000000000
FFC0000000000000000000000000000000000000
FE00000000000000000000000000000000000000
F000000000000000000000000000000000000000
8000000000000000000000000000000000000000
ENDCHAR
STARTCHAR 003F
ENCODING 63
SWIDTH 450 0
DWIDTH 100 0
BBX 86 180 7 0
BITMAP
00000007FFFFFE00000000
00000FFFFFFFFFFF000000
0000FFFFFFFFFFFFF80000
0007FFFFFFFFFFFFFF0000
003FFFFFFFFFFFFFFFC000
007FFFFFFFFFFFFFFFF000
01FFFFFFFFFFFFFFFFFC00
03FFFFFFFFFFFFFFFFFE00
07FFFFFFFFFFFFFFFFFF00
07FFFFFFFFFFFFFFFFFF80
0FFFFFFFFFFFFFFFFFFF80
0FFFFFFFFFFFFFFFFFFFC0
1FFFFFFFFFFFFFFFFFFFC0
1FFFFFFFFFFFFFFFFFFFE0
3FFFFFFFFFFFFFFFFFFFE0
3FFFFFFFFFFFFFFFFFFFF0
3FFFFFFFFFFFFFFFFFFFF0
3FFFFFFFFFFFFFFFFFFFF0
7FFFFFFFFFFFFFFFFFFFF0
7FFFFFFFFFFFFFFFFFFFF8
7FFFFFFFFFFFFFFFFFFFF8
7FFFFFFFFFFFFFFFFFFFF8
7FFFFFFFFFFFFFFFFFFFF8
7FFFFFFFFF03FFFFFFFFF8
FFFFFFFFFC01FFFFFFFFFC
FFFFFFFFFC00FFFFFFFFFC
FFFFFFFFF800FFFFFFFFFC
FFFFFFFFF8007FFFFFFFFC
FFFFFFFFF8007FFFFFFFFC
FFFFFFFFF8007FFFFFFFFC
FFFFFFFFF8007FFFFFFFFC
FFFFFFFFF8007FFFFFFFFC
FFFFFFFFF8007FFFFFFFFC
FFFFFFFFF8007FFFFFFFFC
FFFFFFFFF8007FFFFFFFFC
FFFFFFFFF8007FFFFFFFFC
FFFFFFFFF8007FFFFFFFFC
FFFFFFFFF8007FFFFFFFFC
FFFFFFFFF8007FFFFFFFFC
FFFFFFFFF8007FFFFFFFFC
FFFFFFFFF8007FFFFFFFFC
FFFFFFFFF8007FFFFFFFFC
FFFFFFFFF8007FFFFFFFFC
FFFFFFFFF8007FFFFFFFFC
FFFFFFFFF8007FFFFFFFFC
FFFFFFFFF8007FFFFFFFFC
FFFFFFFFF8007FFFFFFFFC
FFFFFFFFF8007FFFFFFFFC
FFFFFFFFF8007FFFFFFFFC
FFFFFFFFF8007FFFFFFFFC
FFFFFFFFF8007FFFFFFFFC
FFFFFFFFF8007FFFFFFFFC
FFFFFFFFF8007FFFFFFFFC
FFFFFFFFF8007FFFFFFFFC
FFFFFFFFF8007FFFFFFFFC
FFFFFFFFF8007FFFFFFFFC
FFFFFFFFF8007FFFFFFFFC
FFFFFFFFF8007FFFFFFFFC
FFFFFFFFF8007FFFFFFFFC
FFFFFFFFF8007FFFFFFFFC
FFFFFFFFF8007FFFFFFFFC
FFFFFFFFF800FFFFFFFFFC
000000000000FFFFFFFFFC
000000000000FFFFFFFFF8
000000000000FFFFFFFFF8
000000000000FFFFFFFFF8
000000000001FFFFFFFFF8
000000000001FFFFFFFFF8
000000000001FFFFFFFFF0
000000000003FFFFFFFFF0
000000000003FFFFFFFFF0
000000000007FFFFFFFFF0
000000000007FFFFFFFFF0
00000000000FFFFFFFFFE0
00000000000FFFFFFFFFE0
00000000001FFFFFFFFFE0
00000000003FFFFFFFFFC0
00000000003FFFFFFFFFC0
00000000007FFFFFFFFF80
00000000007FFFFFFFFF80
0000000000FFFFFFFFFF00
0000000001FFFFFFFFFF00
0000000001FFFFFFFFFE00
0000000003FFFFFFFFFC00
0000000003FFFFFFFFFC00
0000000007FFFFFFFFF800
000000000FFFFFFFFFF800
000000000FFFFFFFFFF000
000000001FFFFFFFFFF000
000000001FFFFFFFFFE000
000000003FFFFFFFFFC000
000000007FFFFFFFFFC000
000000007FFFFFFFFF8000
00000000FFFFFFFFFF8000
00000000FFFFFFFFFF0000
00000001FFFFFFFFFE0000
00000001FFFFFFFFFE0000
00000003FFFFFFFFFC0000
00000007FFFFFFFFFC0000
00000007FFFFFFFFF80000
0000000FFFFFFFFFF80000
0000000FFFFFFFFFF00000
0000000FFFFFFFFFE00000
0000001FFFFFFFFFE00000
0000001FFFFFFFFFC00000
0000001FFFFFFFFF800000
0000003FFFFFFFFF800000
0000003FFFFFFFFF000000
0000003FFFFFFFFF000000
0000003FFFFFFFFF000000
0000003FFFFFFFFE000000
0000007FFFFFFFFE000000
0000007FFFFFFFFE000000
0000007FFFFFFFFE000000
0000007FFFFFFFFC000000
0000007FFFFFFFFC000000
0000007FFFFFFFFC000000
0000007FFFFFFFFC000000
0000007FFFFFFFFC000000
0000007FFFFFFFFC000000
0000007FFFFFFFFC000000
0000007FFFFFFFFC000000
0000007FFFFFFFFC000000
0000007FFFFFFFFC000000
0000007FFFFFFFFC000000
0000007FFFFFFFFC000000
0000007FFFFFFFFC000000
0000007FFFFFFFFC000000
0000007FFFFFFFFC000000
0000007FFFFFFFFC000000
0000007FFFFFFFFC000000
0000007FFFFFFFFC000000
0000007FFFFFFFFC000000
0000007FFFFFFFFC000000
0000007FFFFFFFFC000000
0000007FFFFFFFFC000000
0000007FFFFFFFFC000000
0000007FFFFFFFFC000000
0000000000000000000000
0000000000000000000000
0000000000000000000000
0000000000000000000000
0000000000000000000000
0000000000000000000000
0000000000000000000000
0000000000000000000000
0000000000000000000000
0000000000000000000000
0000000000000000000000
0000000000000000000000
0000007FFFFFFFFC000000
0000007FFFFFFFFC000000
0000007FFFFFFFFC000000
0000007FFFFFFFFC000000
0000007FFFFFFFFC000000
0000007FFFFFFFFC000000
0000007FFFFFFFFC000000
0000007FFFFFFFFC000000
0000007FFFFFFFFC000000
0000007FFFFFFFFC000000
0000007FFFFFFFFC000000
0000007FFFFFFFFC000000
0000007FFFFFFFFC000000
0000007FFFFFFFFC000000
0000007FFFFFFFFC000000
0000007FFFFFFFFC000000
0000007FFFFFFFFC000000
0000007FFFFFFFFC000000
0000007FFFFFFFFC000000
0000007FFFFFFFFC000000
0000007FFFFFFFFC000000
0000007FFFFFFFFC000000
0000007FFFFFFFFC000000
0000007FFFFFFFFC000000
0000007FFFFFFFFC000000
0000007FFFFFFFFC000000
0000007FFFFFFFFC000000
0000007FFFFFFFFC000000
0000007FFFFFFFFC000000
0000007FFFFFFFFC000000
ENDCHAR
STARTCHAR 0040
ENCODING 64
SWIDTH 1197 0
DWIDTH 266 0
BBX 241 193 13 -33
BITMAP
000000000000000000000000000001FFFFFFC0000000000000000000000000
000000000000000000000000000FFFFFFFFFFFF00000000000000000000000
00000000000000000000000003FFFFFFFFFFFFFFC000000000000000000000
000000000000000000000000FFFFFFFFFFFFFFFFFE00000000000000000000
00000000000000000000000FFFFFFFFFFFFFFFFFFFF0000000000000000000
0000000000000000000000FFFFFFFFFFFFFFFFFFFFFF000000000000000000
000000000000000000000FFFFFFFFFFFFFFFFFFFFFFFE00000000000000000
000000000000000000007FFFFFFFFFFFFFFFFFFFFFFFFE0000000000000000
00000000000000000003FFFFFFFFFFFFFFFFFFFFFFFFFFC000000000000000
0000000000000000001FFFFFFFFFFFFFFFFFFFFFFFFFFFF000000000000000
000000000000000000FFFFFFFFFFFFFFFFFFFFFFFFFFFFFE00000000000000
000000000000000007FFFFFFFFFFFFFFFFFFFFFFFFFFFFFFC0000000000000
00000000000000001FFFFFFFFFFFFFFFFFFFFFFFFFFFFFFFF0000000000000
00000000000000007FFFFFFFFFFFFFFFFFFFFFFFFFFFFFFFFC000000000000
0000000000000001FFFFFFFFFFFFFFFFFFFFFFFFFFFFFFFFFF000000000000
000000000000000FFFFFFFFFFFFFFFFFFFFFFFFFFFFFFFFFFFC00000000000
000000000000003FFFFFFFFFFFFFFC000000FFFFFFFFFFFFFFE00000000000
00000000000000FFFFFFFFFFFFF000000000007FFFFFFFFFFFF80000000000
00000000000001FFFFFFFFFFFC00000000000001FFFFFFFFFFFE0000000000
00000000000007FFFFFFFFFF80000000000000000FFFFFFFFFFF0000000000
0000000000001FFFFFFFFFF8000000000000000001FFFFFFFFFF8000000000
0000000000007FFFFFFFFF800000000000000000001FFFFFFFFFE000000000
000000000000FFFFFFFFFC0000000000000000000003FFFFFFFFF000000000
000000000003FFFFFFFFE000000000000000000000007FFFFFFFFC00000000
000000000007FFFFFFFF8000000000000000000000001FFFFFFFFE00000000
00000000001FFFFFFFFC00000000000000000000000007FFFFFFFF00000000
00000000003FFFFFFFF000000000000000000000000000FFFFFFFF80000000
00000000007FFFFFFFC0000000000000000000000000003FFFFFFFC0000000
0000000001FFFFFFFF00000000000000000000000000001FFFFFFFE0000000
0000000003FFFFFFFC000000000000000000000000000007FFFFFFF0000000
0000000007FFFFFFF0000000000000000000000000000001FFFFFFFC000000
000000001FFFFFFFC00000000000000000000000000000007FFFFFFE000000
000000003FFFFFFF800000000000000000000000000000003FFFFFFE000000
000000007FFFFFFE000000000000000000000000000000001FFFFFFF000000
00000000FFFFFFFC0000000000000000000000000000000007FFFFFF800000
00000001FFFFFFF00000000000000000000000000000000003FFFFFFC00000
00000003FFFFFFE00000000000000000000000000000000001FFFFFFE00000
00000007FFFFFF800000000000000000000000000000000000FFFFFFF00000
0000000FFFFFFF0000000000000000000000000000000000003FFFFFF00000
0000001FFFFFFE0000000000000000000000000000000000001FFFFFF80000
0000003FFFFFF80000000000000000000000000000000000000FFFFFFC0000
0000007FFFFFF000000000000000000000000000000000000007FFFFFE0000
000000FFFFFFE000000000000000000000000000000000000003FFFFFE0000
000001FFFFFFC000000000000000000000000000000000000003FFFFFF0000
000003FFFFFF8000000000000000000000000000000000000001FFFFFF0000
000007FFFFFF0000000000000000000000000000000000000000FFFFFF8000
000007FFFFFC00000000000000000000000000000000000000007FFFFFC000
00000FFFFFF800000000000000000000000000000000000000003FFFFFC000
00001FFFFFF800000000000000000000000000000000000000003FFFFFE000
00003FFFFFF000000000000000000000000000000000000000001FFFFFE000
00007FFFFFE000000000000000000000000000000000000000000FFFFFF000
00007FFFFFC00000000000000000FFFF000000000000000000000FFFFFF000
0000FFFFFF80000000000000003FFFFFFC00000000000000000007FFFFF000
0001FFFFFF0000000000000003FFFFFFFF80000000000000000007FFFFF800
0001FFFFFE000000000000001FFFFFFFFFE0000000000000000003FFFFF800
0003FFFFFE000000000000007FFFFFFFFFF80000FFFFF000000003FFFFFC00
0007FFFFFC00000000000003FFFFFFFFFFFE0001FFFFE000000001FFFFFC00
0007FFFFF80000000000000FFFFFFFFFFFFF0003FFFFE000000001FFFFFC00
000FFFFFF00000000000003FFFFFFFFFFFFFC003FFFFE000000000FFFFFC00
001FFFFFF00000000000007FFFFFFFFFFFFFE007FFFFE000000000FFFFFE00
001FFFFFE0000000000001FFFFFFFFFFFFFFF007FFFFC000000000FFFFFE00
003FFFFFC0000000000003FFFFFFFFFFFFFFF80FFFFFC0000000007FFFFE00
003FFFFFC000000000000FFFFFFFFFFFFFFFFC1FFFFFC0000000007FFFFE00
007FFFFF8000000000001FFFFFFFFFFFFFFFFC1FFFFF80000000007FFFFF00
007FFFFF0000000000003FFFFFFFFFFFFFFFFE3FFFFF80000000007FFFFF00
00FFFFFF000000000000FFFFFFFFF8007FFFFF3FFFFF80000000003FFFFF00
00FFFFFE000000000001FFFFFFFF800007FFFFFFFFFF00000000003FFFFF00
01FFFFFE000000000003FFFFFFFC000001FFFFFFFFFF00000000003FFFFF00
01FFFFFC000000000007FFFFFFF00000007FFFFFFFFF00000000003FFFFF00
03FFFFFC00000000000FFFFFFFC00000001FFFFFFFFF00000000003FFFFF80
03FFFFF800000000001FFFFFFF000000000FFFFFFFFE00000000001FFFFF80
03FFFFF800000000003FFFFFFE0000000007FFFFFFFE00000000001FFFFF80
07FFFFF000000000007FFFFFF80000000003FFFFFFFE00000000001FFFFF80
07FFFFF000000000007FFFFFF00000000001FFFFFFFC00000000001FFFFF80
07FFFFF00000000000FFFFFFE00000000000FFFFFFFC00000000001FFFFF80
0FFFFFE00000000001FFFFFFC00000000000FFFFFFFC00000000001FFFFF80
0FFFFFE00000000003FFFFFF8000000000007FFFFFF800000000001FFFFF80
0FFFFFC00000000007FFFFFF0000000000007FFFFFF800000000001FFFFF80
1FFFFFC00000000007FFFFFE0000000000003FFFFFF800000000001FFFFF80
1FFFFFC0000000000FFFFFFC0000000000003FFFFFF800000000001FFFFF80
1FFFFF80000000001FFFFFF80000000000003FFFFFF000000000001FFFFF80
3FFFFF80000000001FFFFFF80000000000001FFFFFF000000000001FFFFF80
3FFFFF80000000003FFFFFF00000000000001FFFFFF000000000001FFFFF80
3FFFFF80000000003FFFFFE00000000000001FFFFFE000000000001FFFFF80
3FFFFF00000000007FFFFFC00000000000001FFFFFE000000000001FFFFF80
3FFFFF00000000007FFFFFC00000000000001FFFFFE000000000003FFFFF80
7FFFFF0000000000FFFFFF800000000000003FFFFFC000000000003FFFFF00
7FFFFF0000000000FFFFFF800000000000003FFFFFC000000000003FFFFF00
7FFFFE0000000001FFFFFF000000000000003FFFFFC000000000003FFFFF00
7FFFFE0000000001FFFFFF000000000000007FFFFFC000000000003FFFFF00
7FFFFE0000000001FFFFFE000000000000007FFFFF8000000000003FFFFF00
7FFFFE0000000003FFFFFE000000000000007FFFFF8000000000007FFFFF00
7FFFFE0000000003FFFFFC000000000000007FFFFF8000000000007FFFFE00
FFFFFE0000000003FFFFFC00000000000000FFFFFF0000000000007FFFFE00
FFFFFC0000000007FFFFFC00000000000000FFFFFF0000000000007FFFFE00
FFFFFC0000000007FFFFF800000000000000FFFFFF000000000000FFFFFE00
FFFFFC0000000007FFFFF800000000000001FFFFFE000000000000FFFFFC00
FFFFFC0000000007FFFFF800000000000001FFFFFE000000000000FFFFFC00
FFFFFC000000000FFFFFF800000000000001FFFFFE000000000001FFFFFC00
FFFFFC000000000FFFFFF000000000000003FFFFFC000000000001FFFFF800
FFFFFC000000000FFFFFF000000000000003FFFFFC000000000003FFFFF800
FFFFFC000000000FFFFFF000000000000003FFFFFC000000000003FFFFF800
FFFFFC000000000FFFFFF000000000000003FFFFFC000000000007FFFFF000
FFFFFC000000001FFFFFF000000000000007FFFFF8000000000007FFFFF000
FFFFFC000000001FFFFFE000000000000007FFFFF800000000000FFFFFF000
FFFFFC000000001FFFFFE000000000000007FFFFF800000000000FFFFFE000
FFFFFC000000001FFFFFE00000000000000FFFFFF000000000001FFFFFE000
FFFFFC000000001FFFFFE00000000000000FFFFFF000000000001FFFFFC000
FFFFFC000000001FFFFFE00000000000000FFFFFF000000000003FFFFFC000
FFFFFC000000001FFFFFE00000000000001FFFFFE000000000007FFFFF8000
FFFFFC000000001FFFFFE00000000000001FFFFFE000000000007FFFFF8000
FFFFFC000000001FFFFFE00000000000001FFFFFE00000000000FFFFFF0000
FFFFFC000000001FFFFFE00000000000003FFFFFE00000000001FFFFFE0000
7FFFFE000000001FFFFFE00000000000003FFFFFC00000000003FFFFFE0000
7FFFFE000000001FFFFFE00000000000007FFFFFC00000000007FFFFFC0000
7FFFFE000000001FFFFFE00000000000007FFFFFC0000000000FFFFFF80000
7FFFFE000000001FFFFFE0000000000000FFFFFF80000000001FFFFFF80000
7FFFFE000000001FFFFFE0000000000000FFFFFF80000000001FFFFFF00000
7FFFFE000000001FFFFFF0000000000001FFFFFF80000000003FFFFFE00000
7FFFFF000000000FFFFFF0000000000003FFFFFF0000000000FFFFFFC00000
3FFFFF000000000FFFFFF0000000000007FFFFFF0000000001FFFFFFC00000
3FFFFF000000000FFFFFF8000000000007FFFFFF0000000003FFFFFF800000
3FFFFF000000000FFFFFF800000000000FFFFFFF0000000007FFFFFF000000
3FFFFF800000000FFFFFF800000000001FFFFFFF000000000FFFFFFE000000
1FFFFF8000000007FFFFFC00000000003FFFFFFF000000001FFFFFFC000000
1FFFFF8000000007FFFFFE0000000000FFFFFFFF000000007FFFFFF8000000
1FFFFFC000000007FFFFFE0000000001FFFFFFFF00000000FFFFFFF0000000
1FFFFFC000000003FFFFFF0000000003FFFFFFFF80000003FFFFFFE0000000
0FFFFFC000000003FFFFFF800000000FFFFFFFFFC000000FFFFFFFC0000000
0FFFFFE000000001FFFFFFE00000001FFFFFFFFFE000003FFFFFFF80000000
0FFFFFE000000001FFFFFFF00000007FFFFFFFFFF00001FFFFFFFF00000000
07FFFFF000000000FFFFFFFC000001FFFFDFFFFFFC000FFFFFFFFC00000000
07FFFFF000000000FFFFFFFF00000FFFFF8FFFFFFFFFFFFFFFFFF800000000
07FFFFF0000000007FFFFFFFF000FFFFFF0FFFFFFFFFFFFFFFFFF000000000
03FFFFF8000000003FFFFFFFFFFFFFFFFE0FFFFFFFFFFFFFFFFFC000000000
03FFFFF8000000001FFFFFFFFFFFFFFFFC0FFFFFFFFFFFFFFFFF8000000000
01FFFFFC000000001FFFFFFFFFFFFFFFF807FFFFFFFFFFFFFFFE0000000000
01FFFFFE000000000FFFFFFFFFFFFFFFF007FFFFFFFFFFFFFFFC0000000000
00FFFFFE0000000003FFFFFFFFFFFFFFE007FFFFFFFFFFFFFFF00000000000
00FFFFFF0000000001FFFFFFFFFFFFFFC003FFFFFFFFFFFFFFC00000000000
007FFFFF0000000000FFFFFFFFFFFFFF0001FFFFFFFFFFFFFF000000000000
007FFFFF80000000003FFFFFFFFFFFFE0000FFFFFFFFFFFFFC000000000000
003FFFFFC0000000001FFFFFFFFFFFF800007FFFFFFFFFFFF0000000000000
003FFFFFE00000000007FFFFFFFFFFE000003FFFFFFFFFFF80000000000000
001FFFFFE00000000001FFFFFFFFFF0000000FFFFFFFFFFC00000000000000
000FFFFFF000000000003FFFFFFFFC00000003FFFFFFFFE000000000000000
000FFFFFF8000000000003FFFFFFC0000000007FFFFFFE0000000000000000
0007FFFFFC0000000000000FFFF0000000000007FFFF800000000000000000
0003FFFFFE0000000000000000000000000000000000000000000000000000
0003FFFFFF0000000000000000000000000000000000000000000000000000
0001FFFFFF8000000000000000000000000000000000000000000000000000
0000FFFFFFC000000000000000000000000000000000000000000000000000
00007FFFFFE000000000000000000000000000000000000000000000000000
00003FFFFFF000000000000000000000000000000000000000000000000000
00003FFFFFF800000000000000000000000000000000000000000000000000
00001FFFFFFC00000000000000000000000000000000000000000000000000
00000FFFFFFF00000000000000000000000000000000000000000000000000
000007FFFFFF80000000000000000000000000000000000000000000000000
000003FFFFFFC0000000000000000000000000000000000001C00000000000
000001FFFFFFF0000000000000000000000000000000000003C00000000000
000000FFFFFFF800000000000000000000000000000000000FE00000000000
0000007FFFFFFE00000000000000000000000000000000003FF00000000000
0000003FFFFFFF0000000000000000000000000000000000FFF80000000000
0000000FFFFFFFC000000000000000000000000000000003FFFC0000000000
00000007FFFFFFF00000000000000000000000000000000FFFFC0000000000
00000003FFFFFFFC0000000000000000000000000000007FFFFE0000000000
00000001FFFFFFFF000000000000000000000000000001FFFFFF0000000000
000000007FFFFFFFC00000000000000000000000000007FFFFFF8000000000
000000003FFFFFFFF0000000000000000000000000003FFFFFFF8000000000
000000000FFFFFFFFC00000000000000000000000001FFFFFFFE0000000000
0000000007FFFFFFFF8000000000000000000000000FFFFFFFFC0000000000
0000000001FFFFFFFFF000000000000000000000007FFFFFFFF00000000000
0000000000FFFFFFFFFE0000000000000000000007FFFFFFFFC00000000000
00000000003FFFFFFFFFE00000000000000000007FFFFFFFFF800000000000
00000000001FFFFFFFFFFE00000000000000000FFFFFFFFFFE000000000000
000000000007FFFFFFFFFFF000000000000001FFFFFFFFFFF8000000000000
000000000001FFFFFFFFFFFFC00000000000FFFFFFFFFFFFE0000000000000
0000000000007FFFFFFFFFFFFFF0000003FFFFFFFFFFFFFF80000000000000
0000000000001FFFFFFFFFFFFFFFFFFFFFFFFFFFFFFFFFFE00000000000000
00000000000007FFFFFFFFFFFFFFFFFFFFFFFFFFFFFFFFF000000000000000
00000000000001FFFFFFFFFFFFFFFFFFFFFFFFFFFFFFFFC000000000000000
000000000000007FFFFFFFFFFFFFFFFFFFFFFFFFFFFFFE0000000000000000
000000000000000FFFFFFFFFFFFFFFFFFFFFFFFFFFFFF80000000000000000
0000000000000003FFFFFFFFFFFFFFFFFFFFFFFFFFFFC00000000000000000
00000000000000007FFFFFFFFFFFFFFFFFFFFFFFFFFE000000000000000000
00000000000000000FFFFFFFFFFFFFFFFFFFFFFFFFF0000000000000000000
000000000000000001FFFFFFFFFFFFFFFFFFFFFFFF80000000000000000000
0000000000000000001FFFFFFFFFFFFFFFFFFFFFF800000000000000000000
00000000000000000001FFFFFFFFFFFFFFFFFFFF8000000000000000000000
000000000000000000000FFFFFFFFFFFFFFFFFF80000000000000000000000
00000000000000000000007FFFFFFFFFFFFFFF000000000000000000000000
0000000000000000000000007FFFFFFFFFFF80000000000000000000000000
000000000000000000000000001FFFFFFE0000000000000000000000000000
ENDCHAR
STARTCHAR 0041
ENCODING 65
SWIDTH 459 0
DWIDTH 102 0
BBX 93 180 4 0
BITMAP
000007FFFFFFFFFFFE000000
000007FFFFFFFFFFFE000000
000007FFFFFFFFFFFE000000
000007FFFFFFFFFFFE000000
000007FFFFFFFFFFFE000000
000007FFFFFFFFFFFF000000
000007FFFFFFFFFFFF000000
000007FFFFFFFFFFFF000000
00000FFFFFFFFFFFFF000000
00000FFFFFFFFFFFFF000000
00000FFFFFFFFFFFFF000000
00000FFFFFFFFFFFFF000000
00000FFFFFFFFFFFFF000000
00000FFFFFFFFFFFFF800000
00000FFFFFFFFFFFFF800000
00000FFFFFFFFFFFFF800000
00001FFFFFFFFFFFFF800000
00001FFFFFFFFFFFFF800000
00001FFFFFFFFFFFFF800000
00001FFFFFFFFFFFFF800000
00001FFFFFFFFFFFFF800000
00001FFFFFFFFFFFFFC00000
00001FFFFFFFFFFFFFC00000
00001FFFFFFFFFFFFFC00000
00001FFFFFFFFFFFFFC00000
00003FFFFFFFFFFFFFC00000
00003FFFFFFFFFFFFFC00000
00003FFFFFFFFFFFFFC00000
00003FFFFFFFFFFFFFC00000
00003FFFFFFFFFFFFFE00000
00003FFFFFFFFFFFFFE00000
00003FFFFFFFFFFFFFE00000
00003FFFFFFFFFFFFFE00000
00007FFFFFFFFFFFFFE00000
00007FFFFFFFFFFFFFE00000
00007FFFFFFDFFFFFFE00000
00007FFFFFFDFFFFFFE00000
00007FFFFFFDFFFFFFE00000
00007FFFFFFDFFFFFFF00000
00007FFFFFF9FFFFFFF00000
00007FFFFFF9FFFFFFF00000
0000FFFFFFF9FFFFFFF00000
0000FFFFFFF9FFFFFFF00000
0000FFFFFFF9FFFFFFF00000
0000FFFFFFF9FFFFFFF00000
0000FFFFFFF8FFFFFFF00000
0000FFFFFFF8FFFFFFF80000
0000FFFFFFF8FFFFFFF80000
0000FFFFFFF8FFFFFFF80000
0000FFFFFFF8FFFFFFF80000
0001FFFFFFF8FFFFFFF80000
0001FFFFFFF8FFFFFFF80000
0001FFFFFFF8FFFFFFF80000
0001FFFFFFF0FFFFFFF80000
0001FFFFFFF0FFFFFFFC0000
0001FFFFFFF0FFFFFFFC0000
0001FFFFFFF0FFFFFFFC0000
0001FFFFFFF0FFFFFFFC0000
0003FFFFFFF0FFFFFFFC0000
0003FFFFFFF0FFFFFFFC0000
0003FFFFFFF07FFFFFFC0000
0003FFFFFFF07FFFFFFC0000
0003FFFFFFF07FFFFFFE0000
0003FFFFFFF07FFFFFFE0000
0003FFFFFFF07FFFFFFE0000
0003FFFFFFF07FFFFFFE0000
0003FFFFFFF07FFFFFFE0000
0007FFFFFFF07FFFFFFE0000
0007FFFFFFE07FFFFFFE0000
0007FFFFFFE07FFFFFFE0000
0007FFFFFFE07FFFFFFF0000
0007FFFFFFE07FFFFFFF0000
0007FFFFFFE07FFFFFFF0000
0007FFFFFFE07FFFFFFF0000
0007FFFFFFE07FFFFFFF0000
000FFFFFFFE03FFFFFFF0000
000FFFFFFFE03FFFFFFF0000
000FFFFFFFE03FFFFFFF0000
000FFFFFFFE03FFFFFFF8000
000FFFFFFFE03FFFFFFF8000
000FFFFFFFE03FFFFFFF8000
000FFFFFFFE03FFFFFFF8000
000FFFFFFFC03FFFFFFF8000
001FFFFFFFC03FFFFFFF8000
001FFFFFFFC03FFFFFFF8000
001FFFFFFFC03FFFFFFF8000
001FFFFFFFC03FFFFFFFC000
001FFFFFFFC03FFFFFFFC000
001FFFFFFFC03FFFFFFFC000
001FFFFFFFC03FFFFFFFC000
001FFFFFFFC01FFFFFFFC000
001FFFFFFFC01FFFFFFFC000
003FFFFFFFC01FFFFFFFC000
003FFFFFFFC01FFFFFFFC000
003FFFFFFFC01FFFFFFFC000
003FFFFFFFC01FFFFFFFE000
003FFFFFFF801FFFFFFFE000
003FFFFFFF801FFFFFFFE000
003FFFFFFF801FFFFFFFE000
003FFFFFFF801FFFFFFFE000
007FFFFFFF801FFFFFFFE000
007FFFFFFF801FFFFFFFE000
007FFFFFFF801FFFFFFFE000
007FFFFFFF801FFFFFFFF000
007FFFFFFF801FFFFFFFF000
007FFFFFFF800FFFFFFFF000
007FFFFFFF800FFFFFFFF000
007FFFFFFF800FFFFFFFF000
007FFFFFFF800FFFFFFFF000
00FFFFFFFF800FFFFFFFF000
00FFFFFFFF800FFFFFFFF000
00FFFFFFFF000FFFFFFFF800
00FFFFFFFF000FFFFFFFF800
00FFFFFFFF000FFFFFFFF800
00FFFFFFFF000FFFFFFFF800
00FFFFFFFF000FFFFFFFF800
00FFFFFFFF000FFFFFFFF800
01FFFFFFFF000FFFFFFFF800
01FFFFFFFFFFFFFFFFFFF800
01FFFFFFFFFFFFFFFFFFFC00
01FFFFFFFFFFFFFFFFFFFC00
01FFFFFFFFFFFFFFFFFFFC00
01FFFFFFFFFFFFFFFFFFFC00
01FFFFFFFFFFFFFFFFFFFC00
01FFFFFFFFFFFFFFFFFFFC00
03FFFFFFFFFFFFFFFFFFFC00
03FFFFFFFFFFFFFFFFFFFC00
03FFFFFFFFFFFFFFFFFFFE00
03FFFFFFFFFFFFFFFFFFFE00
03FFFFFFFFFFFFFFFFFFFE00
03FFFFFFFFFFFFFFFFFFFE00
03FFFFFFFFFFFFFFFFFFFE00
03FFFFFFFFFFFFFFFFFFFE00
03FFFFFFFFFFFFFFFFFFFE00
07FFFFFFFFFFFFFFFFFFFE00
07FFFFFFFFFFFFFFFFFFFF00
07FFFFFFFFFFFFFFFFFFFF00
07FFFFFFFFFFFFFFFFFFFF00
07FFFFFFFFFFFFFFFFFFFF00
07FFFFFFFFFFFFFFFFFFFF00
07FFFFFFFFFFFFFFFFFFFF00
07FFFFFFFFFFFFFFFFFFFF00
0FFFFFFFFE0003FFFFFFFF00
0FFFFFFFFC0003FFFFFFFF80
0FFFFFFFFC0003FFFFFFFF80
0FFFFFFFFC0003FFFFFFFF80
0FFFFFFFFC0001FFFFFFFF80
0FFFFFFFFC0001FFFFFFFF80
0FFFFFFFFC0001FFFFFFFF80
0FFFFFFFFC0001FFFFFFFF80
0FFFFFFFFC0001FFFFFFFF80
1FFFFFFFFC0001FFFFFFFFC0
1FFFFFFFFC0001FFFFFFFFC0
1FFFFFFFFC0001FFFFFFFFC0
1FFFFFFFFC0001FFFFFFFFC0
1FFFFFFFFC0001FFFFFFFFC0
1FFFFFFFFC0001FFFFFFFFC0
1FFFFFFFFC0001FFFFFFFFC0
1FFFFFFFF80001FFFFFFFFC0
3FFFFFFFF80001FFFFFFFFC0
3FFFFFFFF80001FFFFFFFFE0
3FFFFFFFF80000FFFFFFFFE0
3FFFFFFFF80000FFFFFFFFE0
3FFFFFFFF80000FFFFFFFFE0
3FFFFFFFF80000FFFFFFFFE0
3FFFFFFFF80000FFFFFFFFE0
3FFFFFFFF80000FFFFFFFFE0
7FFFFFFFF80000FFFFFFFFE0
7FFFFFFFF80000FFFFFFFFF0
7FFFFFFFF80000FFFFFFFFF0
7FFFFFFFF80000FFFFFFFFF0
7FFFFFFFF80000FFFFFFFFF0
7FFFFFFFF00000FFFFFFFFF0
7FFFFFFFF00000FFFFFFFFF0
7FFFFFFFF00000FFFFFFFFF0
7FFFFFFFF000007FFFFFFFF0
FFFFFFFFF000007FFFFFFFF8
FFFFFFFFF000007FFFFFFFF8
FFFFFFFFF000007FFFFFFFF8
FFFFFFFFF000007FFFFFFFF8
ENDCHAR
STARTCHAR 0042
ENCODING 66
SWIDTH 468 0
DWIDTH 104 0
BBX 86 180 9 0
BITMAP
FFFFFFFFFFFFFF80000000
FFFFFFFFFFFFFFFF800000
FFFFFFFFFFFFFFFFF80000
FFFFFFFFFFFFFFFFFF0000
FFFFFFFFFFFFFFFFFFE000
FFFFFFFFFFFFFFFFFFF000
FFFFFFFFFFFFFFFFFFFC00
FFFFFFFFFFFFFFFFFFFE00
FFFFFFFFFFFFFFFFFFFF00
FFFFFFFFFFFFFFFFFFFF80
FFFFFFFFFFFFFFFFFFFF80
FFFFFFFFFFFFFFFFFFFFC0
FFFFFFFFFFFFFFFFFFFFC0
FFFFFFFFFFFFFFFFFFFFE0
FFFFFFFFFFFFFFFFFFFFE0
FFFFFFFFFFFFFFFFFFFFF0
FFFFFFFFFFFFFFFFFFFFF0
FFFFFFFFFFFFFFFFFFFFF0
FFFFFFFFFFFFFFFFFFFFF8
FFFFFFFFFFFFFFFFFFFFF8
FFFFFFFFFFFFFFFFFFFFF8
FFFFFFFFFFFFFFFFFFFFF8
FFFFFFFFFFFFFFFFFFFFF8
FFFFFFFFF81FFFFFFFFFF8
FFFFFFFFF803FFFFFFFFFC
FFFFFFFFF801FFFFFFFFFC
FFFFFFFFF800FFFFFFFFFC
FFFFFFFFF8007FFFFFFFFC
FFFFFFFFF8007FFFFFFFFC
FFFFFFFFF8007FFFFFFFFC
FFFFFFFFF8007FFFFFFFFC
FFFFFFFFF8007FFFFFFFFC
FFFFFFFFF8007FFFFFFFFC
FFFFFFFFF8007FFFFFFFFC
FFFFFFFFF8007FFFFFFFFC
FFFFFFFFF8007FFFFFFFFC
FFFFFFFFF8007FFFFFFFFC
FFFFFFFFF8007FFFFFFFFC
FFFFFFFFF8007FFFFFFFFC
FFFFFFFFF8007FFFFFFFFC
FFFFFFFFF8007FFFFFFFFC
FFFFFFFFF8007FFFFFFFFC
FFFFFFFFF8007FFFFFFFFC
FFFFFFFFF8007FFFFFFFFC
FFFFFFFFF8007FFFFFFFFC
FFFFFFFFF8007FFFFFFFFC
FFFFFFFFF8007FFFFFFFFC
FFFFFFFFF8007FFFFFFFFC
FFFFFFFFF8007FFFFFFFFC
FFFFFFFFF8007FFFFFFFFC
FFFFFFFFF8007FFFFFFFFC
FFFFFFFFF8007FFFFFFFFC
FFFFFFFFF8007FFFFFFFFC
FFFFFFFFF8007FFFFFFFFC
FFFFFFFFF8007FFFFFFFFC
FFFFFFFFF8007FFFFFFFFC
FFFFFFFFF8007FFFFFFFFC
FFFFFFFFF8007FFFFFFFFC
FFFFFFFFF8007FFFFFFFFC
FFFFFFFFF8007FFFFFFFFC
FFFFFFFFF8007FFFFFFFFC
FFFFFFFFF8007FFFFFFFFC
FFFFFFFFF8007FFFFFFFFC
FFFFFFFFF8007FFFFFFFF8
FFFFFFFFF8007FFFFFFFF8
FFFFFFFFF8007FFFFFFFF8
FFFFFFFFF800FFFFFFFFF8
FFFFFFFFF800FFFFFFFFF8
FFFFFFFFF801FFFFFFFFF0
FFFFFFFFF807FFFFFFFFF0
FFFFFFFFFFFFFFFFFFFFF0
FFFFFFFFFFFFFFFFFFFFE0
FFFFFFFFFFFFFFFFFFFFE0
FFFFFFFFFFFFFFFFFFFFC0
FFFFFFFFFFFFFFFFFFFFC0
FFFFFFFFFFFFFFFFFFFF80
FFFFFFFFFFFFFFFFFFFF00
FFFFFFFFFFFFFFFFFFFE00
FFFFFFFFFFFFFFFFFFFC00
FFFFFFFFFFFFFFFFFFF800
FFFFFFFFFFFFFFFFFFE000
FFFFFFFFFFFFFFFFFF8000
FFFFFFFFFFFFFFFFFC0000
FFFFFFFFFFFFFFFFFF0000
FFFFFFFFFFFFFFFFFFC000
FFFFFFFFFFFFFFFFFFF000
FFFFFFFFFFFFFFFFFFF800
FFFFFFFFFFFFFFFFFFFC00
FFFFFFFFFFFFFFFFFFFF00
FFFFFFFFFFFFFFFFFFFF00
FFFFFFFFFFFFFFFFFFFF80
FFFFFFFFFFFFFFFFFFFFC0
FFFFFFFFFFFFFFFFFFFFC0
FFFFFFFFFFFFFFFFFFFFE0
FFFFFFFFFFFFFFFFFFFFE0
FFFFFFFFFFFFFFFFFFFFF0
FFFFFFFFF80FFFFFFFFFF0
FFFFFFFFF803FFFFFFFFF0
FFFFFFFFF801FFFFFFFFF8
FFFFFFFFF800FFFFFFFFF8
FFFFFFFFF800FFFFFFFFF8
FFFFFFFFF8007FFFFFFFF8
FFFFFFFFF8007FFFFFFFF8
FFFFFFFFF8007FFFFFFFFC
FFFFFFFFF8007FFFFFFFFC
FFFFFFFFF8007FFFFFFFFC
FFFFFFFFF8007FFFFFFFFC
FFFFFFFFF8007FFFFFFFFC
FFFFFFFFF8007FFFFFFFFC
FFFFFFFFF8007FFFFFFFFC
FFFFFFFFF8007FFFFFFFFC
FFFFFFFFF8007FFFFFFFFC
FFFFFFFFF8007FFFFFFFFC
FFFFFFFFF8007FFFFFFFFC
FFFFFFFFF8007FFFFFFFFC
FFFFFFFFF8007FFFFFFFFC
FFFFFFFFF8007FFFFFFFFC
FFFFFFFFF8007FFFFFFFFC
FFFFFFFFF8007FFFFFFFFC
FFFFFFFFF8007FFFFFFFFC
FFFFFFFFF8007FFFFFFFFC
FFFFFFFFF8007FFFFFFFFC
FFFFFFFFF8007FFFFFFFFC
FFFFFFFFF8007FFFFFFFFC
FFFFFFFFF8007FFFFFFFFC
FFFFFFFFF8007FFFFFFFFC
FFFFFFFFF8007FFFFFFFFC
FFFFFFFFF8007FFFFFFFFC
FFFFFFFFF8007FFFFFFFFC
FFFFFFFFF8007FFFFFFFFC
FFFFFFFFF8007FFFFFFFFC
FFFFFFFFF8007FFFFFFFFC
FFFFFFFFF8007FFFFFFFFC
FFFFFFFFF8007FFFFFFFFC
FFFFFFFFF8007FFFFFFFFC
FFFFFFFFF8007FFFFFFFFC
FFFFFFFFF8007FFFFFFFFC
FFFFFFFFF8007FFFFFFFFC
FFFFFFFFF8007FFFFFFFFC
FFFFFFFFF8007FFFFFFFFC
FFFFFFFFF8007FFFFFFFFC
FFFFFFFFF8007FFFFFFFFC
FFFFFFFFF8007FFFFFFFFC
FFFFFFFFF8007FFFFFFFFC
FFFFFFFFF8007FFFFFFFFC
FFFFFFFFF8007FFFFFFFFC
FFFFFFFFF8007FFFFFFFFC
FFFFFFFFF8007FFFFFFFFC
FFFFFFFFF8007FFFFFFFFC
FFFFFFFFF8007FFFFFFFFC
FFFFFFFFF8007FFFFFFFFC
FFFFFFFFF800FFFFFFFFFC
FFFFFFFFF800FFFFFFFFFC
FFFFFFFFF800FFFFFFFFFC
FFFFFFFFF801FFFFFFFFF8
FFFFFFFFF803FFFFFFFFF8
FFFFFFFFFFFFFFFFFFFFF8
FFFFFFFFFFFFFFFFFFFFF8
FFFFFFFFFFFFFFFFFFFFF8
FFFFFFFFFFFFFFFFFFFFF8
FFFFFFFFFFFFFFFFFFFFF0
FFFFFFFFFFFFFFFFFFFFF0
FFFFFFFFFFFFFFFFFFFFF0
FFFFFFFFFFFFFFFFFFFFF0
FFFFFFFFFFFFFFFFFFFFE0
FFFFFFFFFFFFFFFFFFFFE0
FFFFFFFFFFFFFFFFFFFFE0
FFFFFFFFFFFFFFFFFFFFC0
FFFFFFFFFFFFFFFFFFFFC0
FFFFFFFFFFFFFFFFFFFF80
FFFFFFFFFFFFFFFFFFFF00
FFFFFFFFFFFFFFFFFFFF00
FFFFFFFFFFFFFFFFFFFE00
FFFFFFFFFFFFFFFFFFFC00
FFFFFFFFFFFFFFFFFFF000
FFFFFFFFFFFFFFFFFFC000
FFFFFFFFFFFFFFFFFF0000
FFFFFFFFFFFFFFFFF80000
FFFFFFFFFFFFFFFF000000
FFFFFFFFFFFFFF00000000
ENDCHAR
STARTCHAR 0043
ENCODING 67
SWIDTH 450 0
DWIDTH 100 0
BBX 86 182 8 -1
BITMAP
00000007FFFFFF80000000
00000FFFFFFFFFFFC00000
0000FFFFFFFFFFFFFC0000
000FFFFFFFFFFFFFFFC000
003FFFFFFFFFFFFFFFF000
00FFFFFFFFFFFFFFFFFC00
01FFFFFFFFFFFFFFFFFE00
03FFFFFFFFFFFFFFFFFF00
07FFFFFFFFFFFFFFFFFF80
07FFFFFFFFFFFFFFFFFF80
0FFFFFFFFFFFFFFFFFFFC0
0FFFFFFFFFFFFFFFFFFFC0
1FFFFFFFFFFFFFFFFFFFE0
1FFFFFFFFFFFFFFFFFFFE0
3FFFFFFFFFFFFFFFFFFFF0
3FFFFFFFFFFFFFFFFFFFF0
3FFFFFFFFFFFFFFFFFFFF0
3FFFFFFFFFFFFFFFFFFFF0
7FFFFFFFFFFFFFFFFFFFF8
7FFFFFFFFFFFFFFFFFFFF8
7FFFFFFFFFFFFFFFFFFFF8
7FFFFFFFFFFFFFFFFFFFF8
7FFFFFFFFFFFFFFFFFFFF8
7FFFFFFFFFFFFFFFFFFFF8
7FFFFFFFFE03FFFFFFFFF8
FFFFFFFFFC00FFFFFFFFFC
FFFFFFFFFC00FFFFFFFFFC
FFFFFFFFF800FFFFFFFFFC
FFFFFFFFF8007FFFFFFFFC
FFFFFFFFF8007FFFFFFFFC
FFFFFFFFF8007FFFFFFFFC
FFFFFFFFF8007FFFFFFFFC
FFFFFFFFF8007FFFFFFFFC
FFFFFFFFF8007FFFFFFFFC
FFFFFFFFF8007FFFFFFFFC
FFFFFFFFF8007FFFFFFFFC
FFFFFFFFF8007FFFFFFFFC
FFFFFFFFF8007FFFFFFFFC
FFFFFFFFF8007FFFFFFFFC
FFFFFFFFF8007FFFFFFFFC
FFFFFFFFF8007FFFFFFFFC
FFFFFFFFF8007FFFFFFFFC
FFFFFFFFF8007FFFFFFFFC
FFFFFFFFF8007FFFFFFFFC
FFFFFFFFF8007FFFFFFFFC
FFFFFFFFF8007FFFFFFFFC
FFFFFFFFF8007FFFFFFFFC
FFFFFFFFF8007FFFFFFFFC
FFFFFFFFF8007FFFFFFFFC
FFFFFFFFF8007FFFFFFFFC
FFFFFFFFF8007FFFFFFFFC
FFFFFFFFF8007FFFFFFFFC
FFFFFFFFF8007FFFFFFFFC
FFFFFFFFF8007FFFFFFFFC
FFFFFFFFF8007FFFFFFFFC
FFFFFFFFF8007FFFFFFFFC
FFFFFFFFF8007FFFFFFFFC
FFFFFFFFF8007FFFFFFFFC
FFFFFFFFF8007FFFFFFFFC
FFFFFFFFF8007FFFFFFFFC
FFFFFFFFF8007FFFFFFFFC
FFFFFFFFF8007FFFFFFFFC
FFFFFFFFF8000000000000
FFFFFFFFF8000000000000
FFFFFFFFF8000000000000
FFFFFFFFF8000000000000
FFFFFFFFF8000000000000
FFFFFFFFF8000000000000
FFFFFFFFF8000000000000
FFFFFFFFF8000000000000
FFFFFFFFF8000000000000
FFFFFFFFF8000000000000
FFFFFFFFF8000000000000
FFFFFFFFF8000000000000
FFFFFFFFF8000000000000
FFFFFFFFF8000000000000
FFFFFFFFF8000000000000
FFFFFFFFF8000000000000
FFFFFFFFF8000000000000
FFFFFFFFF8000000000000
FFFFFFFFF8000000000000
FFFFFFFFF8000000000000
FFFFFFFFF8000000000000
FFFFFFFFF8000000000000
FFFFFFFFF8000000000000
FFFFFFFFF8000000000000
FFFFFFFFF8000000000000
FFFFFFFFF8000000000000
FFFFFFFFF8000000000000
FFFFFFFFF8000000000000
FFFFFFFFF8000000000000
FFFFFFFFF8000000000000
FFFFFFFFF8000000000000
FFFFFFFFF8000000000000
FFFFFFFFF8000000000000
FFFFFFFFF8000000000000
FFFFFFFFF8000000000000
FFFFFFFFF8000000000000
FFFFFFFFF8000000000000
FFFFFFFFF8000000000000
FFFFFFFFF8000000000000
FFFFFFFFF8000000000000
FFFFFFFFF8000000000000
FFFFFFFFF8000000000000
FFFFFFFFF8000000000000
FFFFFFFFF8007FFFFFFFFC
FFFFFFFFF8007FFFFFFFFC
FFFFFFFFF8007FFFFFFFFC
FFFFFFFFF8007FFFFFFFFC
FFFFFFFFF8007FFFFFFFFC
FFFFFFFFF8007FFFFFFFFC
FFFFFFFFF8007FFFFFFFFC
FFFFFFFFF8007FFFFFFFFC
FFFFFFFFF8007FFFFFFFFC
FFFFFFFFF8007FFFFFFFFC
FFFFFFFFF8007FFFFFFFFC
FFFFFFFFF8007FFFFFFFFC
FFFFFFFFF8007FFFFFFFFC
FFFFFFFFF8007FFFFFFFFC
FFFFFFFFF8007FFFFFFFFC
FFFFFFFFF8007FFFFFFFFC
FFFFFFFFF8007FFFFFFFFC
FFFFFFFFF8007FFFFFFFFC
FFFFFFFFF8007FFFFFFFFC
FFFFFFFFF8007FFFFFFFFC
FFFFFFFFF8007FFFFFFFFC
FFFFFFFFF8007FFFFFFFFC
FFFFFFFFF8007FFFFFFFFC
FFFFFFFFF8007FFFFFFFFC
FFFFFFFFF8007FFFFFFFFC
FFFFFFFFF8007FFFFFFFFC
FFFFFFFFF8007FFFFFFFFC
FFFFFFFFF8007FFFFFFFFC
FFFFFFFFF8007FFFFFFFFC
FFFFFFFFF8007FFFFFFFFC
FFFFFFFFF8007FFFFFFFFC
FFFFFFFFF8007FFFFFFFFC
FFFFFFFFF8007FFFFFFFFC
FFFFFFFFF8007FFFFFFFFC
FFFFFFFFF8007FFFFFFFFC
FFFFFFFFF8007FFFFFFFFC
FFFFFFFFF8007FFFFFFFFC
FFFFFFFFF8007FFFFFFFFC
FFFFFFFFF8007FFFFFFFFC
FFFFFFFFF8007FFFFFFFFC
FFFFFFFFF8007FFFFFFFFC
FFFFFFFFF8007FFFFFFFFC
FFFFFFFFF8007FFFFFFFFC
FFFFFFFFF8007FFFFFFFFC
FFFFFFFFF8007FFFFFFFFC
FFFFFFFFF8007FFFFFFFFC
FFFFFFFFF8007FFFFFFFFC
FFFFFFFFF8007FFFFFFFFC
FFFFFFFFF8007FFFFFFFFC
FFFFFFFFF800FFFFFFFFFC
FFFFFFFFFC00FFFFFFFFFC
FFFFFFFFFE00FFFFFFFFFC
7FFFFFFFFF03FFFFFFFFF8
7FFFFFFFFFFFFFFFFFFFF8
7FFFFFFFFFFFFFFFFFFFF8
7FFFFFFFFFFFFFFFFFFFF8
7FFFFFFFFFFFFFFFFFFFF8
7FFFFFFFFFFFFFFFFFFFF8
3FFFFFFFFFFFFFFFFFFFF0
3FFFFFFFFFFFFFFFFFFFF0
3FFFFFFFFFFFFFFFFFFFF0
3FFFFFFFFFFFFFFFFFFFF0
1FFFFFFFFFFFFFFFFFFFE0
1FFFFFFFFFFFFFFFFFFFE0
1FFFFFFFFFFFFFFFFFFFE0
0FFFFFFFFFFFFFFFFFFFC0
0FFFFFFFFFFFFFFFFFFFC0
07FFFFFFFFFFFFFFFFFF80
03FFFFFFFFFFFFFFFFFF80
01FFFFFFFFFFFFFFFFFF00
00FFFFFFFFFFFFFFFFFE00
007FFFFFFFFFFFFFFFF800
001FFFFFFFFFFFFFFFF000
0007FFFFFFFFFFFFFF8000
0000FFFFFFFFFFFFFC0000
000007FFFFFFFFFF800000
00000003FFFFFF80000000
ENDCHAR
STARTCHAR 0044
ENCODING 68
SWIDTH 463 0
DWIDTH 103 0
BBX 86 180 9 0
BITMAP
FFFFFFFFFFFFFFE0000000
FFFFFFFFFFFFFFFFE00000
FFFFFFFFFFFFFFFFFE0000
FFFFFFFFFFFFFFFFFFC000
FFFFFFFFFFFFFFFFFFF000
FFFFFFFFFFFFFFFFFFFC00
FFFFFFFFFFFFFFFFFFFE00
FFFFFFFFFFFFFFFFFFFF00
FFFFFFFFFFFFFFFFFFFF80
FFFFFFFFFFFFFFFFFFFF80
FFFFFFFFFFFFFFFFFFFFC0
FFFFFFFFFFFFFFFFFFFFC0
FFFFFFFFFFFFFFFFFFFFE0
FFFFFFFFFFFFFFFFFFFFE0
FFFFFFFFFFFFFFFFFFFFE0
FFFFFFFFFFFFFFFFFFFFF0
FFFFFFFFFFFFFFFFFFFFF0
FFFFFFFFFFFFFFFFFFFFF0
FFFFFFFFFFFFFFFFFFFFF0
FFFFFFFFFFFFFFFFFFFFF8
FFFFFFFFFFFFFFFFFFFFF8
FFFFFFFFFFFFFFFFFFFFF8
FFFFFFFFFFFFFFFFFFFFF8
FFFFFFFFF81FFFFFFFFFF8
FFFFFFFFF801FFFFFFFFF8
FFFFFFFFF800FFFFFFFFFC
FFFFFFFFF800FFFFFFFFFC
FFFFFFFFF800FFFFFFFFFC
FFFFFFFFF8007FFFFFFFFC
FFFFFFFFF8007FFFFFFFFC
FFFFFFFFF8007FFFFFFFFC
FFFFFFFFF8007FFFFFFFFC
FFFFFFFFF8007FFFFFFFFC
FFFFFFFFF8007FFFFFFFFC
FFFFFFFFF8007FFFFFFFFC
FFFFFFFFF8007FFFFFFFFC
FFFFFFFFF8007FFFFFFFFC
FFFFFFFFF8007FFFFFFFFC
FFFFFFFFF8007FFFFFFFFC
FFFFFFFFF8007FFFFFFFFC
FFFFFFFFF8007FFFFFFFFC
FFFFFFFFF8007FFFFFFFFC
FFFFFFFFF8007FFFFFFFFC
FFFFFFFFF8007FFFFFFFFC
FFFFFFFFF8007FFFFFFFFC
FFFFFFFFF8007FFFFFFFFC
FFFFFFFFF8007FFFFFFFFC
FFFFFFFFF8007FFFFFFFFC
FFFFFFFFF8007FFFFFFFFC
FFFFFFFFF8007FFFFFFFFC
FFFFFFFFF8007FFFFFFFFC
FFFFFFFFF8007FFFFFFFFC
FFFFFFFFF8007FFFFFFFFC
FFFFFFFFF8007FFFFFFFFC
FFFFFFFFF8007FFFFFFFFC
FFFFFFFFF8007FFFFFFFFC
FFFFFFFFF8007FFFFFFFFC
FFFFFFFFF8007FFFFFFFFC
FFFFFFFFF8007FFFFFFFFC
FFFFFFFFF8007FFFFFFFFC
FFFFFFFFF8007FFFFFFFFC
FFFFFFFFF8007FFFFFFFFC
FFFFFFFFF8007FFFFFFFFC
FFFFFFFFF8007FFFFFFFFC
FFFFFFFFF8007FFFFFFFFC
FFFFFFFFF8007FFFFFFFFC
FFFFFFFFF8007FFFFFFFFC
FFFFFFFFF8007FFFFFFFFC
FFFFFFFFF8007FFFFFFFFC
FFFFFFFFF8007FFFFFFFFC
FFFFFFFFF8007FFFFFFFFC
FFFFFFFFF8007FFFFFFFFC
FFFFFFFFF8007FFFFFFFFC
FFFFFFFFF8007FFFFFFFFC
FFFFFFFFF8007FFFFFFFFC
FFFFFFFFF8007FFFFFFFFC
FFFFFFFFF8007FFFFFFFFC
FFFFFFFFF8007FFFFFFFFC
FFFFFFFFF8007FFFFFFFFC
FFFFFFFFF8007FFFFFFFFC
FFFFFFFFF8007FFFFFFFFC
FFFFFFFFF8007FFFFFFFFC
FFFFFFFFF8007FFFFFFFFC
FFFFFFFFF8007FFFFFFFFC
FFFFFFFFF8007FFFFFFFFC
FFFFFFFFF8007FFFFFFFFC
FFFFFFFFF8007FFFFFFFFC
FFFFFFFFF8007FFFFFFFFC
FFFFFFFFF8007FFFFFFFFC
FFFFFFFFF8007FFFFFFFFC
FFFFFFFFF8007FFFFFFFFC
FFFFFFFFF8007FFFFFFFFC
FFFFFFFFF8007FFFFFFFFC
FFFFFFFFF8007FFFFFFFFC
FFFFFFFFF8007FFFFFFFFC
FFFFFFFFF8007FFFFFFFFC
FFFFFFFFF8007FFFFFFFFC
FFFFFFFFF8007FFFFFFFFC
FFFFFFFFF8007FFFFFFFFC
FFFFFFFFF8007FFFFFFFFC
FFFFFFFFF8007FFFFFFFFC
FFFFFFFFF8007FFFFFFFFC
FFFFFFFFF8007FFFFFFFFC
FFFFFFFFF8007FFFFFFFFC
FFFFFFFFF8007FFFFFFFFC
FFFFFFFFF8007FFFFFFFFC
FFFFFFFFF8007FFFFFFFFC
FFFFFFFFF8007FFFFFFFFC
FFFFFFFFF8007FFFFFFFFC
FFFFFFFFF8007FFFFFFFFC
FFFFFFFFF8007FFFFFFFFC
FFFFFFFFF8007FFFFFFFFC
FFFFFFFFF8007FFFFFFFFC
FFFFFFFFF8007FFFFFFFFC
FFFFFFFFF8007FFFFFFFFC
FFFFFFFFF8007FFFFFFFFC
FFFFFFFFF8007FFFFFFFFC
FFFFFFFFF8007FFFFFFFFC
FFFFFFFFF8007FFFFFFFFC
FFFFFFFFF8007FFFFFFFFC
FFFFFFFFF8007FFFFFFFFC
FFFFFFFFF8007FFFFFFFFC
FFFFFFFFF8007FFFFFFFFC
FFFFFFFFF8007FFFFFFFFC
FFFFFFFFF8007FFFFFFFFC
FFFFFFFFF8007FFFFFFFFC
FFFFFFFFF8007FFFFFFFFC
FFFFFFFFF8007FFFFFFFFC
FFFFFFFFF8007FFFFFFFFC
FFFFFFFFF8007FFFFFFFFC
FFFFFFFFF8007FFFFFFFFC
FFFFFFFFF8007FFFFFFFFC
FFFFFFFFF8007FFFFFFFFC
FFFFFFFFF8007FFFFFFFFC
FFFFFFFFF8007FFFFFFFFC
FFFFFFFFF8007FFFFFFFFC
FFFFFFFFF8007FFFFFFFFC
FFFFFFFFF8007FFFFFFFFC
FFFFFFFFF8007FFFFFFFFC
FFFFFFFFF8007FFFFFFFFC
FFFFFFFFF8007FFFFFFFFC
FFFFFFFFF8007FFFFFFFFC
FFFFFFFFF8007FFFFFFFFC
FFFFFFFFF8007FFFFFFFFC
FFFFFFFFF8007FFFFFFFFC
FFFFFFFFF8007FFFFFFFFC
FFFFFFFFF8007FFFFFFFFC
FFFFFFFFF8007FFFFFFFFC
FFFFFFFFF8007FFFFFFFFC
FFFFFFFFF8007FFFFFFFFC
FFFFFFFFF8007FFFFFFFFC
FFFFFFFFF8007FFFFFFFFC
FFFFFFFFF800FFFFFFFFFC
FFFFFFFFF800FFFFFFFFFC
FFFFFFFFF800FFFFFFFFFC
FFFFFFFFF803FFFFFFFFF8
FFFFFFFFFFFFFFFFFFFFF8
FFFFFFFFFFFFFFFFFFFFF8
FFFFFFFFFFFFFFFFFFFFF8
FFFFFFFFFFFFFFFFFFFFF8
FFFFFFFFFFFFFFFFFFFFF8
FFFFFFFFFFFFFFFFFFFFF0
FFFFFFFFFFFFFFFFFFFFF0
FFFFFFFFFFFFFFFFFFFFF0
FFFFFFFFFFFFFFFFFFFFF0
FFFFFFFFFFFFFFFFFFFFE0
FFFFFFFFFFFFFFFFFFFFE0
FFFFFFFFFFFFFFFFFFFFE0
FFFFFFFFFFFFFFFFFFFFC0
FFFFFFFFFFFFFFFFFFFFC0
FFFFFFFFFFFFFFFFFFFF80
FFFFFFFFFFFFFFFFFFFF80
FFFFFFFFFFFFFFFFFFFF00
FFFFFFFFFFFFFFFFFFFE00
FFFFFFFFFFFFFFFFFFFC00
FFFFFFFFFFFFFFFFFFF000
FFFFFFFFFFFFFFFFFFC000
FFFFFFFFFFFFFFFFFE0000
FFFFFFFFFFFFFFFFC00000
FFFFFFFFFFFFFFC0000000
ENDCHAR
STARTCHAR 0045
ENCODING 69
SWIDTH 346 0
DWIDTH 77 0
BBX 59 180 9 0
BITMAP
FFFFFFFFFFFFFFE0
FFFFFFFFFFFFFFE0
FFFFFFFFFFFFFFE0
FFFFFFFFFFFFFFE0
FFFFFFFFFFFFFFE0
FFFFFFFFFFFFFFE0
FFFFFFFFFFFFFFE0
FFFFFFFFFFFFFFE0
FFFFFFFFFFFFFFE0
FFFFFFFFFFFFFFE0
FFFFFFFFFFFFFFE0
FFFFFFFFFFFFFFE0
FFFFFFFFFFFFFFE0
FFFFFFFFFFFFFFE0
FFFFFFFFFFFFFFE0
FFFFFFFFFFFFFFE0
FFFFFFFFFFFFFFE0
FFFFFFFFFFFFFFE0
FFFFFFFFFFFFFFE0
FFFFFFFFFFFFFFE0
FFFFFFFFFFFFFFE0
FFFFFFFFFFFFFFE0
FFFFFFFFFFFFFFE0
FFFFFFFFFFFFFFE0
FFFFFFFFF8000000
FFFFFFFFF8000000
FFFFFFFFF8000000
FFFFFFFFF8000000
FFFFFFFFF8000000
FFFFFFFFF8000000
FFFFFFFFF8000000
FFFFFFFFF8000000
FFFFFFFFF8000000
FFFFFFFFF8000000
FFFFFFFFF8000000
FFFFFFFFF8000000
FFFFFFFFF8000000
FFFFFFFFF8000000
FFFFFFFFF8000000
FFFFFFFFF8000000
FFFFFFFFF8000000
FFFFFFFFF8000000
FFFFFFFFF8000000
FFFFFFFFF8000000
FFFFFFFFF8000000
FFFFFFFFF8000000
FFFFFFFFF8000000
FFFFFFFFF8000000
FFFFFFFFF8000000
FFFFFFFFF8000000
FFFFFFFFF8000000
FFFFFFFFF8000000
FFFFFFFFF8000000
FFFFFFFFF8000000
FFFFFFFFF8000000
FFFFFFFFF8000000
FFFFFFFFF8000000
FFFFFFFFF8000000
FFFFFFFFF8000000
FFFFFFFFF8000000
FFFFFFFFF8000000
FFFFFFFFF8000000
FFFFFFFFF8000000
FFFFFFFFF8000000
FFFFFFFFF8000000
FFFFFFFFF8000000
FFFFFFFFF8000000
FFFFFFFFF8000000
FFFFFFFFF8000000
FFFFFFFFFFFFFFE0
FFFFFFFFFFFFFFE0
FFFFFFFFFFFFFFE0
FFFFFFFFFFFFFFE0
FFFFFFFFFFFFFFE0
FFFFFFFFFFFFFFE0
FFFFFFFFFFFFFFE0
FFFFFFFFFFFFFFE0
FFFFFFFFFFFFFFE0
FFFFFFFFFFFFFFE0
FFFFFFFFFFFFFFE0
FFFFFFFFFFFFFFE0
FFFFFFFFFFFFFFE0
FFFFFFFFFFFFFFE0
FFFFFFFFFFFFFFE0
FFFFFFFFFFFFFFE0
FFFFFFFFFFFFFFE0
FFFFFFFFFFFFFFE0
FFFFFFFFFFFFFFE0
FFFFFFFFFFFFFFE0
FFFFFFFFFFFFFFE0
FFFFFFFFFFFFFFE0
FFFFFFFFFFFFFFE0
FFFFFFFFFFFFFFE0
FFFFFFFFF8000000
FFFFFFFFF8000000
FFFFFFFFF8000000
FFFFFFFFF8000000
FFFFFFFFF8000000
FFFFFFFFF8000000
FFFFFFFFF8000000
FFFFFFFFF8000000
FFFFFFFFF8000000
FFFFFFFFF8000000
FFFFFFFFF8000000
FFFFFFFFF8000000
FFFFFFFFF8000000
FFFFFFFFF8000000
FFFFFFFFF8000000
FFFFFFFFF8000000
FFFFFFFFF8000000
FFFFFFFFF8000000
FFFFFFFFF8000000
FFFFFFFFF8000000
FFFFFFFFF8000000
FFFFFFFFF8000000
FFFFFFFFF8000000
FFFFFFFFF8000000
FFFFFFFFF8000000
FFFFFFFFF8000000
FFFFFFFFF8000000
FFFFFFFFF8000000
FFFFFFFFF8000000
FFFFFFFFF8000000
FFFFFFFFF8000000
FFFFFFFFF8000000
FFFFFFFFF8000000
FFFFFFFFF8000000
FFFFFFFFF8000000
FFFFFFFFF8000000
FFFFFFFFF8000000
FFFFFFFFF8000000
FFFFFFFFF8000000
FFFFFFFFF8000000
FFFFFFFFF8000000
FFFFFFFFF8000000
FFFFFFFFF8000000
FFFFFFFFF8000000
FFFFFFFFF8000000
FFFFFFFFF8000000
FFFFFFFFF8000000
FFFFFFFFF8000000
FFFFFFFFF8000000
FFFFFFFFF8000000
FFFFFFFFF8000000
FFFFFFFFF8000000
FFFFFFFFF8000000
FFFFFFFFF8000000
FFFFFFFFF8000000
FFFFFFFFF8000000
FFFFFFFFF8000000
FFFFFFFFF8000000
FFFFFFFFF8000000
FFFFFFFFF8000000
FFFFFFFFF8000000
FFFFFFFFF8000000
FFFFFFFFF8000000
FFFFFFFFFFFFFFE0
FFFFFFFFFFFFFFE0
FFFFFFFFFFFFFFE0
FFFFFFFFFFFFFFE0
FFFFFFFFFFFFFFE0
FFFFFFFFFFFFFFE0
FFFFFFFFFFFFFFE0
FFFFFFFFFFFFFFE0
FFFFFFFFFFFFFFE0
FFFFFFFFFFFFFFE0
FFFFFFFFFFFFFFE0
FFFFFFFFFFFFFFE0
FFFFFFFFFFFFFFE0
FFFFFFFFFFFFFFE0
FFFFFFFFFFFFFFE0
FFFFFFFFFFFFFFE0
FFFFFFFFFFFFFFE0
FFFFFFFFFFFFFFE0
FFFFFFFFFFFFFFE0
FFFFFFFFFFFFFFE0
FFFFFFFFFFFFFFE0
FFFFFFFFFFFFFFE0
FFFFFFFFFFFFFFE0
FFFFFFFFFFFFFFE0
ENDCHAR
STARTCHAR 0046
ENCODING 70
SWIDTH 342 0
DWIDTH 76 0
BBX 59 180 10 0
BITMAP
FFFFFFFFFFFFFFE0
FFFFFFFFFFFFFFE0
FFFFFFFFFFFFFFE0
FFFFFFFFFFFFFFE0
FFFFFFFFFFFFFFE0
FFFFFFFFFFFFFFE0
FFFFFFFFFFFFFFE0
FFFFFFFFFFFFFFE0
FFFFFFFFFFFFFFE0
FFFFFFFFFFFFFFE0
FFFFFFFFFFFFFFE0
FFFFFFFFFFFFFFE0
FFFFFFFFFFFFFFE0
FFFFFFFFFFFFFFE0
FFFFFFFFFFFFFFE0
FFFFFFFFFFFFFFE0
FFFFFFFFFFFFFFE0
FFFFFFFFFFFFFFE0
FFFFFFFFFFFFFFE0
FFFFFFFFFFFFFFE0
FFFFFFFFFFFFFFE0
FFFFFFFFFFFFFFE0
FFFFFFFFFFFFFFE0
FFFFFFFFFFFFFFE0
FFFFFFFFF8000000
FFFFFFFFF8000000
FFFFFFFFF8000000
FFFFFFFFF8000000
FFFFFFFFF8000000
FFFFFFFFF8000000
FFFFFFFFF8000000
FFFFFFFFF8000000
FFFFFFFFF8000000
FFFFFFFFF8000000
FFFFFFFFF8000000
FFFFFFFFF8000000
FFFFFFFFF8000000
FFFFFFFFF8000000
FFFFFFFFF8000000
FFFFFFFFF8000000
FFFFFFFFF8000000
FFFFFFFFF8000000
FFFFFFFFF8000000
FFFFFFFFF8000000
FFFFFFFFF8000000
FFFFFFFFF8000000
FFFFFFFFF8000000
FFFFFFFFF8000000
FFFFFFFFF8000000
FFFFFFFFF8000000
FFFFFFFFF8000000
FFFFFFFFF8000000
FFFFFFFFF8000000
FFFFFFFFF8000000
FFFFFFFFF8000000
FFFFFFFFF8000000
FFFFFFFFF8000000
FFFFFFFFF8000000
FFFFFFFFF8000000
FFFFFFFFF8000000
FFFFFFFFF8000000
FFFFFFFFF8000000
FFFFFFFFF8000000
FFFFFFFFF8000000
FFFFFFFFF8000000
FFFFFFFFF8000000
FFFFFFFFF8000000
FFFFFFFFF8000000
FFFFFFFFF8000000
FFFFFFFFFFFFFFE0
FFFFFFFFFFFFFFE0
FFFFFFFFFFFFFFE0
FFFFFFFFFFFFFFE0
FFFFFFFFFFFFFFE0
FFFFFFFFFFFFFFE0
FFFFFFFFFFFFFFE0
FFFFFFFFFFFFFFE0
FFFFFFFFFFFFFFE0
FFFFFFFFFFFFFFE0
FFFFFFFFFFFFFFE0
FFFFFFFFFFFFFFE0
FFFFFFFFFFFFFFE0
FFFFFFFFFFFFFFE0
FFFFFFFFFFFFFFE0
FFFFFFFFFFFFFFE0
FFFFFFFFFFFFFFE0
FFFFFFFFFFFFFFE0
FFFFFFFFFFFFFFE0
FFFFFFFFFFFFFFE0
FFFFFFFFFFFFFFE0
FFFFFFFFFFFFFFE0
FFFFFFFFFFFFFFE0
FFFFFFFFFFFFFFE0
FFFFFFFFF8000000
FFFFFFFFF8000000
FFFFFFFFF8000000
FFFFFFFFF8000000
FFFFFFFFF8000000
FFFFFFFFF8000000
FFFFFFFFF8000000
FFFFFFFFF8000000
FFFFFFFFF8000000
FFFFFFFFF8000000
FFFFFFFFF8000000
FFFFFFFFF8000000
FFFFFFFFF8000000
FFFFFFFFF8000000
FFFFFFFFF8000000
FFFFFFFFF8000000
FFFFFFFFF8000000
FFFFFFFFF8000000
FFFFFFFFF8000000
FFFFFFFFF8000000
FFFFFFFFF8000000
FFFFFFFFF8000000
FFFFFFFFF8000000
FFFFFFFFF8000000
FFFFFFFFF8000000
FFFFFFFFF8000000
FFFFFFFFF8000000
FFFFFFFFF8000000
FFFFFFFFF8000000
FFFFFFFFF8000000
FFFFFFFFF8000000
FFFFFFFFF8000000
FFFFFFFFF8000000
FFFFFFFFF8000000
FFFFFFFFF8000000
FFFFFFFFF8000000
FFFFFFFFF8000000
FFFFFFFFF8000000
FFFFFFFFF8000000
FFFFFFFFF8000000
FFFFFFFFF8000000
FFFFFFFFF8000000
FFFFFFFFF8000000
FFFFFFFFF8000000
FFFFFFFFF8000000
FFFFFFFFF8000000
FFFFFFFFF8000000
FFFFFFFFF8000000
FFFFFFFFF8000000
FFFFFFFFF8000000
FFFFFFFFF8000000
FFFFFFFFF8000000
FFFFFFFFF8000000
FFFFFFFFF8000000
FFFFFFFFF8000000
FFFFFFFFF8000000
FFFFFFFFF8000000
FFFFFFFFF8000000
FFFFFFFFF8000000
FFFFFFFFF8000000
FFFFFFFFF8000000
FFFFFFFFF8000000
FFFFFFFFF8000000
FFFFFFFFF8000000
FFFFFFFFF8000000
FFFFFFFFF8000000
FFFFFFFFF8000000
FFFFFFFFF8000000
FFFFFFFFF8000000
FFFFFFFFF8000000
FFFFFFFFF8000000
FFFFFFFFF8000000
FFFFFFFFF8000000
FFFFFFFFF8000000
FFFFFFFFF8000000
FFFFFFFFF8000000
FFFFFFFFF8000000
FFFFFFFFF8000000
FFFFFFFFF8000000
FFFFFFFFF8000000
FFFFFFFFF8000000
FFFFFFFFF8000000
FFFFFFFFF8000000
FFFFFFFFF8000000
FFFFFFFFF8000000
FFFFFFFFF8000000
FFFFFFFFF8000000
ENDCHAR
STARTCHAR 0047
ENCODING 71
SWIDTH 463 0
DWIDTH 103 0
BBX 87 182 8 -1
BITMAP
00000003FFFFFFC0000000
000007FFFFFFFFFFC00000
0000FFFFFFFFFFFFFE0000
0007FFFFFFFFFFFFFFC000
001FFFFFFFFFFFFFFFF000
007FFFFFFFFFFFFFFFFC00
00FFFFFFFFFFFFFFFFFF00
01FFFFFFFFFFFFFFFFFF80
03FFFFFFFFFFFFFFFFFF80
07FFFFFFFFFFFFFFFFFFC0
0FFFFFFFFFFFFFFFFFFFE0
0FFFFFFFFFFFFFFFFFFFE0
1FFFFFFFFFFFFFFFFFFFF0
1FFFFFFFFFFFFFFFFFFFF0
1FFFFFFFFFFFFFFFFFFFF0
3FFFFFFFFFFFFFFFFFFFF8
3FFFFFFFFFFFFFFFFFFFF8
3FFFFFFFFFFFFFFFFFFFF8
3FFFFFFFFFFFFFFFFFFFF8
7FFFFFFFFFFFFFFFFFFFFC
7FFFFFFFFFFFFFFFFFFFFC
7FFFFFFFFFFFFFFFFFFFFC
7FFFFFFFFFFFFFFFFFFFFC
7FFFFFFFFFFFFFFFFFFFFC
7FFFFFFFFE01FFFFFFFFFC
FFFFFFFFFC00FFFFFFFFFE
FFFFFFFFFC007FFFFFFFFE
FFFFFFFFF8007FFFFFFFFE
FFFFFFFFF8007FFFFFFFFE
FFFFFFFFF8003FFFFFFFFE
FFFFFFFFF8003FFFFFFFFE
FFFFFFFFF8003FFFFFFFFE
FFFFFFFFF8003FFFFFFFFE
FFFFFFFFF8003FFFFFFFFE
FFFFFFFFF8003FFFFFFFFE
FFFFFFFFF8003FFFFFFFFE
FFFFFFFFF8003FFFFFFFFE
FFFFFFFFF8003FFFFFFFFE
FFFFFFFFF8003FFFFFFFFE
FFFFFFFFF8003FFFFFFFFE
FFFFFFFFF8003FFFFFFFFE
FFFFFFFFF8003FFFFFFFFE
FFFFFFFFF8003FFFFFFFFE
FFFFFFFFF8003FFFFFFFFE
FFFFFFFFF8003FFFFFFFFE
FFFFFFFFF8003FFFFFFFFE
FFFFFFFFF8003FFFFFFFFE
FFFFFFFFF8003FFFFFFFFE
FFFFFFFFF8003FFFFFFFFE
FFFFFFFFF8003FFFFFFFFE
FFFFFFFFF8003FFFFFFFFE
FFFFFFFFF8003FFFFFFFFE
FFFFFFFFF8003FFFFFFFFE
FFFFFFFFF8003FFFFFFFFE
FFFFFFFFF8003FFFFFFFFE
FFFFFFFFF8003FFFFFFFFE
FFFFFFFFF8003FFFFFFFFE
FFFFFFFFF8003FFFFFFFFE
FFFFFFFFF8003FFFFFFFFE
FFFFFFFFF8003FFFFFFFFE
FFFFFFFFF8003FFFFFFFFE
FFFFFFFFF8003FFFFFFFFE
FFFFFFFFF8000000000000
FFFFFFFFF8000000000000
FFFFFFFFF8000000000000
FFFFFFFFF8000000000000
FFFFFFFFF8000000000000
FFFFFFFFF8000000000000
FFFFFFFFF8000000000000
FFFFFFFFF8000000000000
FFFFFFFFF8000000000000
FFFFFFFFF8000000000000
FFFFFFFFF8000000000000
FFFFFFFFF8000000000000
FFFFFFFFF8000000000000
FFFFFFFFF8000000000000
FFFFFFFFF8000000000000
FFFFFFFFF8000000000000
FFFFFFFFF8000000000000
FFFFFFFFF8000000000000
FFFFFFFFF8000000000000
FFFFFFFFF8000000000000
FFFFFFFFF8000000000000
FFFFFFFFF8000000000000
FFFFFFFFF8000000000000
FFFFFFFFF8000000000000
FFFFFFFFF8000000000000
FFFFFFFFF8000000000000
FFFFFFFFF80FFFFFFFFFFE
FFFFFFFFF80FFFFFFFFFFE
FFFFFFFFF80FFFFFFFFFFE
FFFFFFFFF80FFFFFFFFFFE
FFFFFFFFF80FFFFFFFFFFE
FFFFFFFFF80FFFFFFFFFFE
FFFFFFFFF80FFFFFFFFFFE
FFFFFFFFF80FFFFFFFFFFE
FFFFFFFFF80FFFFFFFFFFE
FFFFFFFFF80FFFFFFFFFFE
FFFFFFFFF80FFFFFFFFFFE
FFFFFFFFF80FFFFFFFFFFE
FFFFFFFFF80FFFFFFFFFFE
FFFFFFFFF80FFFFFFFFFFE
FFFFFFFFF80FFFFFFFFFFE
FFFFFFFFF80FFFFFFFFFFE
FFFFFFFFF80FFFFFFFFFFE
FFFFFFFFF80FFFFFFFFFFE
FFFFFFFFF80FFFFFFFFFFE
FFFFFFFFF80FFFFFFFFFFE
FFFFFFFFF80FFFFFFFFFFE
FFFFFFFFF80FFFFFFFFFFE
FFFFFFFFF80FFFFFFFFFFE
FFFFFFFFF8003FFFFFFFFE
FFFFFFFFF8003FFFFFFFFE
FFFFFFFFF8003FFFFFFFFE
FFFFFFFFF8003FFFFFFFFE
FFFFFFFFF8003FFFFFFFFE
FFFFFFFFF8003FFFFFFFFE
FFFFFFFFF8003FFFFFFFFE
FFFFFFFFF8003FFFFFFFFE
FFFFFFFFF8003FFFFFFFFE
FFFFFFFFF8003FFFFFFFFE
FFFFFFFFF8003FFFFFFFFE
FFFFFFFFF8003FFFFFFFFE
FFFFFFFFF8003FFFFFFFFE
FFFFFFFFF8003FFFFFFFFE
FFFFFFFFF8003FFFFFFFFE
FFFFFFFFF8003FFFFFFFFE
FFFFFFFFF8003FFFFFFFFE
FFFFFFFFF8003FFFFFFFFE
FFFFFFFFF8003FFFFFFFFE
FFFFFFFFF8003FFFFFFFFE
FFFFFFFFF8003FFFFFFFFE
FFFFFFFFF8003FFFFFFFFE
FFFFFFFFF8003FFFFFFFFE
FFFFFFFFF8003FFFFFFFFE
FFFFFFFFF8003FFFFFFFFE
FFFFFFFFF8003FFFFFFFFE
FFFFFFFFF8003FFFFFFFFE
FFFFFFFFF8003FFFFFFFFE
FFFFFFFFF8003FFFFFFFFE
FFFFFFFFF8003FFFFFFFFE
FFFFFFFFF8003FFFFFFFFE
FFFFFFFFF8003FFFFFFFFE
FFFFFFFFF8003FFFFFFFFE
FFFFFFFFF8003FFFFFFFFE
FFFFFFFFF8003FFFFFFFFE
FFFFFFFFF8003FFFFFFFFE
FFFFFFFFF8003FFFFFFFFE
FFFFFFFFF8003FFFFFFFFE
FFFFFFFFF8003FFFFFFFFE
FFFFFFFFF8003FFFFFFFFE
FFFFFFFFF8003FFFFFFFFE
FFFFFFFFF8003FFFFFFFFE
FFFFFFFFF8007FFFFFFFFE
FFFFFFFFF8007FFFFFFFFE
FFFFFFFFFC007FFFFFFFFE
FFFFFFFFFE00FFFFFFFFFE
FFFFFFFFFF01FFFFFFFFFE
FFFFFFFFFFFFFFFFFFFFFE
7FFFFFFFFFFFFFFFFFFFFE
7FFFFFFFFFFFFFFFFFFFFE
7FFFFFFFFFFFFFFFFFFFFE
7FFFFFFFFFFFFFFFFFFFFE
7FFFFFFFFFFFFFFFFFFFFE
3FFFFFFFFFFFFFFFFFFFFE
3FFFFFFFFFFFFFFFFFFFFE
3FFFFFFFFFFFFFFFFFFFFE
1FFFFFFFFFFFFFFFFFFFFE
1FFFFFFFFFFFFFFFFFFFFE
0FFFFFFFFFFFFFFFFFFFFE
0FFFFFFFFFFFFFFFFFFFFE
07FFFFFFFFFFFFFF3FFFFE
03FFFFFFFFFFFFFE3FFFFE
03FFFFFFFFFFFFFC1FFFFE
01FFFFFFFFFFFFF80FFFFE
007FFFFFFFFFFFF00FFFFE
003FFFFFFFFFFFC007FFFE
001FFFFFFFFFFF0007FFFE
0007FFFFFFFFFC0003FFFE
0000FFFFFFFFE00001FFFE
00001FFFFFFF000001FFFE
0000007FFFC00000000000
ENDCHAR
STARTCHAR 0048
ENCODING 72
SWIDTH 468 0
DWIDTH 104 0
BBX 86 180 9 0
BITMAP
FFFFFFFFF8007FFFFFFFFC
FFFFFFFFF8007FFFFFFFFC
FFFFFFFFF8007FFFFFFFFC
FFFFFFFFF8007FFFFFFFFC
FFFFFFFFF8007FFFFFFFFC
FFFFFFFFF8007FFFFFFFFC
FFFFFFFFF8007FFFFFFFFC
FFFFFFFFF8007FFFFFFFFC
FFFFFFFFF8007FFFFFFFFC
FFFFFFFFF8007FFFFFFFFC
FFFFFFFFF8007FFFFFFFFC
FFFFFFFFF8007FFFFFFFFC
FFFFFFFFF8007FFFFFFFFC
FFFFFFFFF8007FFFFFFFFC
FFFFFFFFF8007FFFFFFFFC
FFFFFFFFF8007FFFFFFFFC
FFFFFFFFF8007FFFFFFFFC
FFFFFFFFF8007FFFFFFFFC
FFFFFFFFF8007FFFFFFFFC
FFFFFFFFF8007FFFFFFFFC
FFFFFFFFF8007FFFFFFFFC
FFFFFFFFF8007FFFFFFFFC
FFFFFFFFF8007FFFFFFFFC
FFFFFFFFF8007FFFFFFFFC
FFFFFFFFF8007FFFFFFFFC
FFFFFFFFF8007FFFFFFFFC
FFFFFFFFF8007FFFFFFFFC
FFFFFFFFF8007FFFFFFFFC
FFFFFFFFF8007FFFFFFFFC
FFFFFFFFF8007FFFFFFFFC
FFFFFFFFF8007FFFFFFFFC
FFFFFFFFF8007FFFFFFFFC
FFFFFFFFF8007FFFFFFFFC
FFFFFFFFF8007FFFFFFFFC
FFFFFFFFF8007FFFFFFFFC
FFFFFFFFF8007FFFFFFFFC
FFFFFFFFF8007FFFFFFFFC
FFFFFFFFF8007FFFFFFFFC
FFFFFFFFF8007FFFFFFFFC
FFFFFFFFF8007FFFFFFFFC
FFFFFFFFF8007FFFFFFFFC
FFFFFFFFF8007FFFFFFFFC
FFFFFFFFF8007FFFFFFFFC
FFFFFFFFF8007FFFFFFFFC
FFFFFFFFF8007FFFFFFFFC
FFFFFFFFF8007FFFFFFFFC
FFFFFFFFF8007FFFFFFFFC
FFFFFFFFF8007FFFFFFFFC
FFFFFFFFF8007FFFFFFFFC
FFFFFFFFF8007FFFFFFFFC
FFFFFFFFF8007FFFFFFFFC
FFFFFFFFF8007FFFFFFFFC
FFFFFFFFF8007FFFFFFFFC
FFFFFFFFF8007FFFFFFFFC
FFFFFFFFF8007FFFFFFFFC
FFFFFFFFF8007FFFFFFFFC
FFFFFFFFF8007FFFFFFFFC
FFFFFFFFF8007FFFFFFFFC
FFFFFFFFF8007FFFFFFFFC
FFFFFFFFF8007FFFFFFFFC
FFFFFFFFF8007FFFFFFFFC
FFFFFFFFF8007FFFFFFFFC
FFFFFFFFF8007FFFFFFFFC
FFFFFFFFF8007FFFFFFFFC
FFFFFFFFF8007FFFFFFFFC
FFFFFFFFF8007FFFFFFFFC
FFFFFFFFF8007FFFFFFFFC
FFFFFFFFF8007FFFFFFFFC
FFFFFFFFFFFFFFFFFFFFFC
FFFFFFFFFFFFFFFFFFFFFC
FFFFFFFFFFFFFFFFFFFFFC
FFFFFFFFFFFFFFFFFFFFFC
FFFFFFFFFFFFFFFFFFFFFC
FFFFFFFFFFFFFFFFFFFFFC
FFFFFFFFFFFFFFFFFFFFFC
FFFFFFFFFFFFFFFFFFFFFC
FFFFFFFFFFFFFFFFFFFFFC
FFFFFFFFFFFFFFFFFFFFFC
FFFFFFFFFFFFFFFFFFFFFC
FFFFFFFFFFFFFFFFFFFFFC
FFFFFFFFFFFFFFFFFFFFFC
FFFFFFFFFFFFFFFFFFFFFC
FFFFFFFFFFFFFFFFFFFFFC
FFFFFFFFFFFFFFFFFFFFFC
FFFFFFFFFFFFFFFFFFFFFC
FFFFFFFFFFFFFFFFFFFFFC
FFFFFFFFFFFFFFFFFFFFFC
FFFFFFFFFFFFFFFFFFFFFC
FFFFFFFFFFFFFFFFFFFFFC
FFFFFFFFFFFFFFFFFFFFFC
FFFFFFFFFFFFFFFFFFFFFC
FFFFFFFFFFFFFFFFFFFFFC
FFFFFFFFF8007FFFFFFFFC
FFFFFFFFF8007FFFFFFFFC
FFFFFFFFF8007FFFFFFFFC
FFFFFFFFF8007FFFFFFFFC
FFFFFFFFF8007FFFFFFFFC
FFFFFFFFF8007FFFFFFFFC
FFFFFFFFF8007FFFFFFFFC
FFFFFFFFF8007FFFFFFFFC
FFFFFFFFF8007FFFFFFFFC
FFFFFFFFF8007FFFFFFFFC
FFFFFFFFF8007FFFFFFFFC
FFFFFFFFF8007FFFFFFFFC
FFFFFFFFF8007FFFFFFFFC
FFFFFFFFF8007FFFFFFFFC
FFFFFFFFF8007FFFFFFFFC
FFFFFFFFF8007FFFFFFFFC
FFFFFFFFF8007FFFFFFFFC
FFFFFFFFF8007FFFFFFFFC
FFFFFFFFF8007FFFFFFFFC
FFFFFFFFF8007FFFFFFFFC
FFFFFFFFF8007FFFFFFFFC
FFFFFFFFF8007FFFFFFFFC
FFFFFFFFF8007FFFFFFFFC
FFFFFFFFF8007FFFFFFFFC
FFFFFFFFF8007FFFFFFFFC
FFFFFFFFF8007FFFFFFFFC
FFFFFFFFF8007FFFFFFFFC
FFFFFFFFF8007FFFFFFFFC
FFFFFFFFF8007FFFFFFFFC
FFFFFFFFF8007FFFFFFFFC
FFFFFFFFF8007FFFFFFFFC
FFFFFFFFF8007FFFFFFFFC
FFFFFFFFF8007FFFFFFFFC
FFFFFFFFF8007FFFFFFFFC
FFFFFFFFF8007FFFFFFFFC
FFFFFFFFF8007FFFFFFFFC
FFFFFFFFF8007FFFFFFFFC
FFFFFFFFF8007FFFFFFFFC
FFFFFFFFF8007FFFFFFFFC
FFFFFFFFF8007FFFFFFFFC
FFFFFFFFF8007FFFFFFFFC
FFFFFFFFF8007FFFFFFFFC
FFFFFFFFF8007FFFFFFFFC
FFFFFFFFF8007FFFFFFFFC
FFFFFFFFF8007FFFFFFFFC
FFFFFFFFF8007FFFFFFFFC
FFFFFFFFF8007FFFFFFFFC
FFFFFFFFF8007FFFFFFFFC
FFFFFFFFF8007FFFFFFFFC
FFFFFFFFF8007FFFFFFFFC
FFFFFFFFF8007FFFFFFFFC
FFFFFFFFF8007FFFFFFFFC
FFFFFFFFF8007FFFFFFFFC
FFFFFFFFF8007FFFFFFFFC
FFFFFFFFF8007FFFFFFFFC
FFFFFFFFF8007FFFFFFFFC
FFFFFFFFF8007FFFFFFFFC
FFFFFFFFF8007FFFFFFFFC
FFFFFFFFF8007FFFFFFFFC
FFFFFFFFF8007FFFFFFFFC
FFFFFFFFF8007FFFFFFFFC
FFFFFFFFF8007FFFFFFFFC
FFFFFFFFF8007FFFFFFFFC
FFFFFFFFF8007FFFFFFFFC
FFFFFFFFF8007FFFFFFFFC
FFFFFFFFF8007FFFFFFFFC
FFFFFFFFF8007FFFFFFFFC
FFFFFFFFF8007FFFFFFFFC
FFFFFFFFF8007FFFFFFFFC
FFFFFFFFF8007FFFFFFFFC
FFFFFFFFF8007FFFFFFFFC
FFFFFFFFF8007FFFFFFFFC
FFFFFFFFF8007FFFFFFFFC
FFFFFFFFF8007FFFFFFFFC
FFFFFFFFF8007FFFFFFFFC
FFFFFFFFF8007FFFFFFFFC
FFFFFFFFF8007FFFFFFFFC
FFFFFFFFF8007FFFFFFFFC
FFFFFFFFF8007FFFFFFFFC
FFFFFFFFF8007FFFFFFFFC
FFFFFFFFF8007FFFFFFFFC
FFFFFFFFF8007FFFFFFFFC
FFFFFFFFF8007FFFFFFFFC
FFFFFFFFF8007FFFFFFFFC
FFFFFFFFF8007FFFFFFFFC
FFFFFFFFF8007FFFFFFFFC
FFFFFFFFF8007FFFFFFFFC
FFFFFFFFF8007FFFFFFFFC
ENDCHAR
STARTCHAR 0049
ENCODING 73
SWIDTH 252 0
DWIDTH 56 0
BBX 37 180 9 0
BITMAP
FFFFFFFFF8
FFFFFFFFF8
FFFFFFFFF8
FFFFFFFFF8
FFFFFFFFF8
FFFFFFFFF8
FFFFFFFFF8
FFFFFFFFF8
FFFFFFFFF8
FFFFFFFFF8
FFFFFFFFF8
FFFFFFFFF8
FFFFFFFFF8
FFFFFFFFF8
FFFFFFFFF8
FFFFFFFFF8
FFFFFFFFF8
FFFFFFFFF8
FFFFFFFFF8
FFFFFFFFF8
FFFFFFFFF8
FFFFFFFFF8
FFFFFFFFF8
FFFFFFFFF8
FFFFFFFFF8
FFFFFFFFF8
FFFFFFFFF8
FFFFFFFFF8
FFFFFFFFF8
FFFFFFFFF8
FFFFFFFFF8
FFFFFFFFF8
FFFFFFFFF8
FFFFFFFFF8
FFFFFFFFF8
FFFFFFFFF8
FFFFFFFFF8
FFFFFFFFF8
FFFFFFFFF8
FFFFFFFFF8
FFFFFFFFF8
FFFFFFFFF8
FFFFFFFFF8
FFFFFFFFF8
FFFFFFFFF8
FFFFFFFFF8
FFFFFFFFF8
FFFFFFFFF8
FFFFFFFFF8
FFFFFFFFF8
FFFFFFFFF8
FFFFFFFFF8
FFFFFFFFF8
FFFFFFFFF8
FFFFFFFFF8
FFFFFFFFF8
FFFFFFFFF8
FFFFFFFFF8
FFFFFFFFF8
FFFFFFFFF8
FFFFFFFFF8
FFFFFFFFF8
FFFFFFFFF8
FFFFFFFFF8
FFFFFFFFF8
FFFFFFFFF8
FFFFFFFFF8
FFFFFFFFF8
FFFFFFFFF8
FFFFFFFFF8
FFFFFFFFF8
FFFFFFFFF8
FFFFFFFFF8
FFFFFFFFF8
FFFFFFFFF8
FFFFFFFFF8
FFFFFFFFF8
FFFFFFFFF8
FFFFFFFFF8
FFFFFFFFF8
FFFFFFFFF8
FFFFFFFFF8
FFFFFFFFF8
FFFFFFFFF8
FFFFFFFFF8
FFFFFFFFF8
FFFFFFFFF8
FFFFFFFFF8
FFFFFFFFF8
FFFFFFFFF8
FFFFFFFFF8
FFFFFFFFF8
FFFFFFFFF8
FFFFFFFFF8
FFFFFFFFF8
FFFFFFFFF8
FFFFFFFFF8
FFFFFFFFF8
FFFFFFFFF8
FFFFFFFFF8
FFFFFFFFF8
FFFFFFFFF8
FFFFFFFFF8
FFFFFFFFF8
FFFFFFFFF8
FFFFFFFFF8
FFFFFFFFF8
FFFFFFFFF8
FFFFFFFFF8
FFFFFFFFF8
FFFFFFFFF8
FFFFFFFFF8
FFFFFFFFF8
FFFFFFFFF8
FFFFFFFFF8
FFFFFFFFF8
FFFFFFFFF8
FFFFFFFFF8
FFFFFFFFF8
FFFFFFFFF8
FFFFFFFFF8
FFFFFFFFF8
FFFFFFFFF8
FFFFFFFFF8
FFFFFFFFF8
FFFFFFFFF8
FFFFFFFFF8
FFFFFFFFF8
FFFFFFFFF8
FFFFFFFFF8
FFFFFFFFF8
FFFFFFFFF8
FFFFFFFFF8
FFFFFFFFF8
FFFFFFFFF8
FFFFFFFFF8
FFFFFFFFF8
FFFFFFFFF8
FFFFFFFFF8
FFFFFFFFF8
FFFFFFFFF8
FFFFFFFFF8
FFFFFFFFF8
FFFFFFFFF8
FFFFFFFFF8
FFFFFFFFF8
FFFFFFFFF8
FFFFFFFFF8
FFFFFFFFF8
FFFFFFFFF8
FFFFFFFFF8
FFFFFFFFF8
FFFFFFFFF8
FFFFFFFFF8
FFFFFFFFF8
FFFFFFFFF8
FFFFFFFFF8
FFFFFFFFF8
FFFFFFFFF8
FFFFFFFFF8
FFFFFFFFF8
FFFFFFFFF8
FFFFFFFFF8
FFFFFFFFF8
FFFFFFFFF8
FFFFFFFFF8
FFFFFFFFF8
FFFFFFFFF8
FFFFFFFFF8
FFFFFFFFF8
FFFFFFFFF8
FFFFFFFFF8
FFFFFFFFF8
FFFFFFFFF8
FFFFFFFFF8
FFFFFFFFF8
FFFFFFFFF8
FFFFFFFFF8
FFFFFFFFF8
FFFFFFFFF8
ENDCHAR
STARTCHAR 004A
ENCODING 74
SWIDTH 436 0
DWIDTH 97 0
BBX 82 181 5 -1
BITMAP
000000000007FFFFFFFFC0
000000000007FFFFFFFFC0
000000000007FFFFFFFFC0
000000000007FFFFFFFFC0
000000000007FFFFFFFFC0
000000000007FFFFFFFFC0
000000000007FFFFFFFFC0
000000000007FFFFFFFFC0
000000000007FFFFFFFFC0
000000000007FFFFFFFFC0
000000000007FFFFFFFFC0
000000000007FFFFFFFFC0
000000000007FFFFFFFFC0
000000000007FFFFFFFFC0
000000000007FFFFFFFFC0
000000000007FFFFFFFFC0
000000000007FFFFFFFFC0
000000000007FFFFFFFFC0
000000000007FFFFFFFFC0
000000000007FFFFFFFFC0
000000000007FFFFFFFFC0
000000000007FFFFFFFFC0
000000000007FFFFFFFFC0
000000000007FFFFFFFFC0
000000000007FFFFFFFFC0
000000000007FFFFFFFFC0
000000000007FFFFFFFFC0
000000000007FFFFFFFFC0
000000000007FFFFFFFFC0
000000000007FFFFFFFFC0
000000000007FFFFFFFFC0
000000000007FFFFFFFFC0
000000000007FFFFFFFFC0
000000000007FFFFFFFFC0
000000000007FFFFFFFFC0
000000000007FFFFFFFFC0
000000000007FFFFFFFFC0
000000000007FFFFFFFFC0
000000000007FFFFFFFFC0
000000000007FFFFFFFFC0
000000000007FFFFFFFFC0
000000000007FFFFFFFFC0
000000000007FFFFFFFFC0
000000000007FFFFFFFFC0
000000000007FFFFFFFFC0
000000000007FFFFFFFFC0
000000000007FFFFFFFFC0
000000000007FFFFFFFFC0
000000000007FFFFFFFFC0
000000000007FFFFFFFFC0
000000000007FFFFFFFFC0
000000000007FFFFFFFFC0
000000000007FFFFFFFFC0
000000000007FFFFFFFFC0
000000000007FFFFFFFFC0
000000000007FFFFFFFFC0
000000000007FFFFFFFFC0
000000000007FFFFFFFFC0
000000000007FFFFFFFFC0
000000000007FFFFFFFFC0
000000000007FFFFFFFFC0
000000000007FFFFFFFFC0
000000000007FFFFFFFFC0
000000000007FFFFFFFFC0
000000000007FFFFFFFFC0
000000000007FFFFFFFFC0
000000000007FFFFFFFFC0
000000000007FFFFFFFFC0
000000000007FFFFFFFFC0
000000000007FFFFFFFFC0
000000000007FFFFFFFFC0
000000000007FFFFFFFFC0
000000000007FFFFFFFFC0
000000000007FFFFFFFFC0
000000000007FFFFFFFFC0
000000000007FFFFFFFFC0
000000000007FFFFFFFFC0
000000000007FFFFFFFFC0
000000000007FFFFFFFFC0
000000000007FFFFFFFFC0
000000000007FFFFFFFFC0
000000000007FFFFFFFFC0
000000000007FFFFFFFFC0
000000000007FFFFFFFFC0
000000000007FFFFFFFFC0
000000000007FFFFFFFFC0
000000000007FFFFFFFFC0
000000000007FFFFFFFFC0
000000000007FFFFFFFFC0
000000000007FFFFFFFFC0
000000000007FFFFFFFFC0
000000000007FFFFFFFFC0
000000000007FFFFFFFFC0
000000000007FFFFFFFFC0
000000000007FFFFFFFFC0
000000000007FFFFFFFFC0
000000000007FFFFFFFFC0
000000000007FFFFFFFFC0
000000000007FFFFFFFFC0
000000000007FFFFFFFFC0
000000000007FFFFFFFFC0
000000000007FFFFFFFFC0
000000000007FFFFFFFFC0
000000000007FFFFFFFFC0
000000000007FFFFFFFFC0
FFFFFFFFC007FFFFFFFFC0
FFFFFFFFC007FFFFFFFFC0
FFFFFFFFC007FFFFFFFFC0
FFFFFFFFC007FFFFFFFFC0
FFFFFFFFC007FFFFFFFFC0
FFFFFFFFC007FFFFFFFFC0
FFFFFFFFC007FFFFFFFFC0
FFFFFFFFC007FFFFFFFFC0
FFFFFFFFC007FFFFFFFFC0
FFFFFFFFC007FFFFFFFFC0
FFFFFFFFC007FFFFFFFFC0
FFFFFFFFC007FFFFFFFFC0
FFFFFFFFC007FFFFFFFFC0
FFFFFFFFC007FFFFFFFFC0
FFFFFFFFC007FFFFFFFFC0
FFFFFFFFC007FFFFFFFFC0
FFFFFFFFC007FFFFFFFFC0
FFFFFFFFC007FFFFFFFFC0
FFFFFFFFC007FFFFFFFFC0
FFFFFFFFC007FFFFFFFFC0
FFFFFFFFC007FFFFFFFFC0
FFFFFFFFC007FFFFFFFFC0
FFFFFFFFC007FFFFFFFFC0
FFFFFFFFC007FFFFFFFFC0
FFFFFFFFC007FFFFFFFFC0
FFFFFFFFC007FFFFFFFFC0
FFFFFFFFC007FFFFFFFFC0
FFFFFFFFC007FFFFFFFFC0
FFFFFFFFC007FFFFFFFFC0
FFFFFFFFC007FFFFFFFFC0
FFFFFFFFC007FFFFFFFFC0
FFFFFFFFC007FFFFFFFFC0
FFFFFFFFC007FFFFFFFFC0
FFFFFFFFC007FFFFFFFFC0
FFFFFFFFC007FFFFFFFFC0
FFFFFFFFC007FFFFFFFFC0
FFFFFFFFC007FFFFFFFFC0
FFFFFFFFC007FFFFFFFFC0
FFFFFFFFC007FFFFFFFFC0
FFFFFFFFC007FFFFFFFFC0
FFFFFFFFC007FFFFFFFFC0
FFFFFFFFC007FFFFFFFFC0
FFFFFFFFC007FFFFFFFFC0
FFFFFFFFC007FFFFFFFFC0
FFFFFFFFC007FFFFFFFFC0
FFFFFFFFC007FFFFFFFFC0
FFFFFFFFC007FFFFFFFFC0
FFFFFFFFC007FFFFFFFFC0
FFFFFFFFC007FFFFFFFFC0
FFFFFFFFE00FFFFFFFFFC0
FFFFFFFFE00FFFFFFFFFC0
7FFFFFFFF81FFFFFFFFF80
7FFFFFFFFFFFFFFFFFFF80
7FFFFFFFFFFFFFFFFFFF80
7FFFFFFFFFFFFFFFFFFF80
7FFFFFFFFFFFFFFFFFFF80
7FFFFFFFFFFFFFFFFFFF80
7FFFFFFFFFFFFFFFFFFF80
3FFFFFFFFFFFFFFFFFFF00
3FFFFFFFFFFFFFFFFFFF00
3FFFFFFFFFFFFFFFFFFF00
1FFFFFFFFFFFFFFFFFFE00
1FFFFFFFFFFFFFFFFFFE00
1FFFFFFFFFFFFFFFFFFE00
0FFFFFFFFFFFFFFFFFFC00
0FFFFFFFFFFFFFFFFFFC00
07FFFFFFFFFFFFFFFFF800
07FFFFFFFFFFFFFFFFF800
03FFFFFFFFFFFFFFFFF000
01FFFFFFFFFFFFFFFFE000
00FFFFFFFFFFFFFFFF8000
003FFFFFFFFFFFFFFF0000
000FFFFFFFFFFFFFFC0000
0001FFFFFFFFFFFFE00000
00000FFFFFFFFFFC000000
0000000FFFFFFC00000000
ENDCHAR
STARTCHAR 004B
ENCODING 75
SWIDTH 459 0
DWIDTH 102 0
BBX 90 180 9 0
BITMAP
FFFFFFFFF0001FFFFFFFFF00
FFFFFFFFF0003FFFFFFFFE00
FFFFFFFFF0003FFFFFFFFE00
FFFFFFFFF0003FFFFFFFFE00
FFFFFFFFF0003FFFFFFFFE00
FFFFFFFFF0003FFFFFFFFC00
FFFFFFFFF0003FFFFFFFFC00
FFFFFFFFF0007FFFFFFFFC00
FFFFFFFFF0007FFFFFFFF800
FFFFFFFFF0007FFFFFFFF800
FFFFFFFFF0007FFFFFFFF800
FFFFFFFFF0007FFFFFFFF800
FFFFFFFFF000FFFFFFFFF000
FFFFFFFFF000FFFFFFFFF000
FFFFFFFFF000FFFFFFFFF000
FFFFFFFFF000FFFFFFFFF000
FFFFFFFFF000FFFFFFFFE000
FFFFFFFFF001FFFFFFFFE000
FFFFFFFFF001FFFFFFFFE000
FFFFFFFFF001FFFFFFFFE000
FFFFFFFFF001FFFFFFFFC000
FFFFFFFFF001FFFFFFFFC000
FFFFFFFFF001FFFFFFFFC000
FFFFFFFFF003FFFFFFFFC000
FFFFFFFFF003FFFFFFFF8000
FFFFFFFFF003FFFFFFFF8000
FFFFFFFFF003FFFFFFFF8000
FFFFFFFFF003FFFFFFFF0000
FFFFFFFFF007FFFFFFFF0000
FFFFFFFFF007FFFFFFFF0000
FFFFFFFFF007FFFFFFFF0000
FFFFFFFFF007FFFFFFFE0000
FFFFFFFFF007FFFFFFFE0000
FFFFFFFFF00FFFFFFFFE0000
FFFFFFFFF00FFFFFFFFE0000
FFFFFFFFF00FFFFFFFFC0000
FFFFFFFFF00FFFFFFFFC0000
FFFFFFFFF00FFFFFFFFC0000
FFFFFFFFF01FFFFFFFFC0000
FFFFFFFFF01FFFFFFFF80000
FFFFFFFFF01FFFFFFFF80000
FFFFFFFFF01FFFFFFFF80000
FFFFFFFFF01FFFFFFFF80000
FFFFFFFFF01FFFFFFFF00000
FFFFFFFFF03FFFFFFFF00000
FFFFFFFFF03FFFFFFFF00000
FFFFFFFFF03FFFFFFFE00000
FFFFFFFFF03FFFFFFFE00000
FFFFFFFFF03FFFFFFFE00000
FFFFFFFFF07FFFFFFFE00000
FFFFFFFFF07FFFFFFFC00000
FFFFFFFFF07FFFFFFFC00000
FFFFFFFFF07FFFFFFFC00000
FFFFFFFFF07FFFFFFFC00000
FFFFFFFFF0FFFFFFFF800000
FFFFFFFFF0FFFFFFFF800000
FFFFFFFFF0FFFFFFFF800000
FFFFFFFFF0FFFFFFFF800000
FFFFFFFFF0FFFFFFFF000000
FFFFFFFFF0FFFFFFFF000000
FFFFFFFFF1FFFFFFFF000000
FFFFFFFFF1FFFFFFFF000000
FFFFFFFFF1FFFFFFFE000000
FFFFFFFFF1FFFFFFFE000000
FFFFFFFFF1FFFFFFFE000000
FFFFFFFFF3FFFFFFFE000000
FFFFFFFFF3FFFFFFFC000000
FFFFFFFFF3FFFFFFFC000000
FFFFFFFFF3FFFFFFFC000000
FFFFFFFFF3FFFFFFF8000000
FFFFFFFFF7FFFFFFF8000000
FFFFFFFFF7FFFFFFF8000000
FFFFFFFFFFFFFFFFF8000000
FFFFFFFFFFFFFFFFF0000000
FFFFFFFFFFFFFFFFF0000000
FFFFFFFFFFFFFFFFF0000000
FFFFFFFFFFFFFFFFF0000000
FFFFFFFFFFFFFFFFE0000000
FFFFFFFFFFFFFFFFE0000000
FFFFFFFFFFFFFFFFE0000000
FFFFFFFFFFFFFFFFE0000000
FFFFFFFFFFFFFFFFE0000000
FFFFFFFFFFFFFFFFE0000000
FFFFFFFFFFFFFFFFF0000000
FFFFFFFFFFFFFFFFF0000000
FFFFFFFFFFFFFFFFF0000000
FFFFFFFFFFFFFFFFF0000000
FFFFFFFFFFFFFFFFF8000000
FFFFFFFFFFFFFFFFF8000000
FFFFFFFFFFFFFFFFF8000000
FFFFFFFFFFFFFFFFF8000000
FFFFFFFFFFFFFFFFFC000000
FFFFFFFFFFFFFFFFFC000000
FFFFFFFFF7FFFFFFFC000000
FFFFFFFFF3FFFFFFFC000000
FFFFFFFFF3FFFFFFFE000000
FFFFFFFFF3FFFFFFFE000000
FFFFFFFFF3FFFFFFFE000000
FFFFFFFFF3FFFFFFFE000000
FFFFFFFFF1FFFFFFFE000000
FFFFFFFFF1FFFFFFFF000000
FFFFFFFFF1FFFFFFFF000000
FFFFFFFFF1FFFFFFFF000000
FFFFFFFFF1FFFFFFFF000000
FFFFFFFFF1FFFFFFFF800000
FFFFFFFFF0FFFFFFFF800000
FFFFFFFFF0FFFFFFFF800000
FFFFFFFFF0FFFFFFFF800000
FFFFFFFFF0FFFFFFFFC00000
FFFFFFFFF0FFFFFFFFC00000
FFFFFFFFF07FFFFFFFC00000
FFFFFFFFF07FFFFFFFC00000
FFFFFFFFF07FFFFFFFE00000
FFFFFFFFF07FFFFFFFE00000
FFFFFFFFF07FFFFFFFE00000
FFFFFFFFF07FFFFFFFE00000
FFFFFFFFF03FFFFFFFE00000
FFFFFFFFF03FFFFFFFF00000
FFFFFFFFF03FFFFFFFF00000
FFFFFFFFF03FFFFFFFF00000
FFFFFFFFF03FFFFFFFF00000
FFFFFFFFF01FFFFFFFF80000
FFFFFFFFF01FFFFFFFF80000
FFFFFFFFF01FFFFFFFF80000
FFFFFFFFF01FFFFFFFF80000
FFFFFFFFF01FFFFFFFFC0000
FFFFFFFFF01FFFFFFFFC0000
FFFFFFFFF00FFFFFFFFC0000
FFFFFFFFF00FFFFFFFFC0000
FFFFFFFFF00FFFFFFFFE0000
FFFFFFFFF00FFFFFFFFE0000
FFFFFFFFF00FFFFFFFFE0000
FFFFFFFFF007FFFFFFFE0000
FFFFFFFFF007FFFFFFFE0000
FFFFFFFFF007FFFFFFFF0000
FFFFFFFFF007FFFFFFFF0000
FFFFFFFFF007FFFFFFFF0000
FFFFFFFFF007FFFFFFFF0000
FFFFFFFFF003FFFFFFFF8000
FFFFFFFFF003FFFFFFFF8000
FFFFFFFFF003FFFFFFFF8000
FFFFFFFFF003FFFFFFFF8000
FFFFFFFFF003FFFFFFFFC000
FFFFFFFFF001FFFFFFFFC000
FFFFFFFFF001FFFFFFFFC000
FFFFFFFFF001FFFFFFFFC000
FFFFFFFFF001FFFFFFFFE000
FFFFFFFFF001FFFFFFFFE000
FFFFFFFFF001FFFFFFFFE000
FFFFFFFFF000FFFFFFFFE000
FFFFFFFFF000FFFFFFFFE000
FFFFFFFFF000FFFFFFFFF000
FFFFFFFFF000FFFFFFFFF000
FFFFFFFFF000FFFFFFFFF000
FFFFFFFFF0007FFFFFFFF000
FFFFFFFFF0007FFFFFFFF800
FFFFFFFFF0007FFFFFFFF800
FFFFFFFFF0007FFFFFFFF800
FFFFFFFFF0007FFFFFFFF800
FFFFFFFFF0007FFFFFFFFC00
FFFFFFFFF0003FFFFFFFFC00
FFFFFFFFF0003FFFFFFFFC00
FFFFFFFFF0003FFFFFFFFC00
FFFFFFFFF0003FFFFFFFFE00
FFFFFFFFF0003FFFFFFFFE00
FFFFFFFFF0003FFFFFFFFE00
FFFFFFFFF0001FFFFFFFFE00
FFFFFFFFF0001FFFFFFFFE00
FFFFFFFFF0001FFFFFFFFF00
FFFFFFFFF0001FFFFFFFFF00
FFFFFFFFF0001FFFFFFFFF00
FFFFFFFFF0000FFFFFFFFF00
FFFFFFFFF0000FFFFFFFFF80
FFFFFFFFF0000FFFFFFFFF80
FFFFFFFFF0000FFFFFFFFF80
FFFFFFFFF0000FFFFFFFFF80
FFFFFFFFF0000FFFFFFFFFC0
FFFFFFFFF00007FFFFFFFFC0
FFFFFFFFF00007FFFFFFFFC0
FFFFFFFFF00007FFFFFFFFC0
ENDCHAR
STARTCHAR 004C
ENCODING 76
SWIDTH 324 0
DWIDTH 72 0
BBX 59 180 9 0
BITMAP
FFFFFFFFF8000000
FFFFFFFFF8000000
FFFFFFFFF8000000
FFFFFFFFF8000000
FFFFFFFFF8000000
FFFFFFFFF8000000
FFFFFFFFF8000000
FFFFFFFFF8000000
FFFFFFFFF8000000
FFFFFFFFF8000000
FFFFFFFFF8000000
FFFFFFFFF8000000
FFFFFFFFF8000000
FFFFFFFFF8000000
FFFFFFFFF8000000
FFFFFFFFF8000000
FFFFFFFFF8000000
FFFFFFFFF8000000
FFFFFFFFF8000000
FFFFFFFFF8000000
FFFFFFFFF8000000
FFFFFFFFF8000000
FFFFFFFFF8000000
FFFFFFFFF8000000
FFFFFFFFF8000000
FFFFFFFFF8000000
FFFFFFFFF8000000
FFFFFFFFF8000000
FFFFFFFFF8000000
FFFFFFFFF8000000
FFFFFFFFF8000000
FFFFFFFFF8000000
FFFFFFFFF8000000
FFFFFFFFF8000000
FFFFFFFFF8000000
FFFFFFFFF8000000
FFFFFFFFF8000000
FFFFFFFFF8000000
FFFFFFFFF8000000
FFFFFFFFF8000000
FFFFFFFFF8000000
FFFFFFFFF8000000
FFFFFFFFF8000000
FFFFFFFFF8000000
FFFFFFFFF8000000
FFFFFFFFF8000000
FFFFFFFFF8000000
FFFFFFFFF8000000
FFFFFFFFF8000000
FFFFFFFFF8000000
FFFFFFFFF8000000
FFFFFFFFF8000000
FFFFFFFFF8000000
FFFFFFFFF8000000
FFFFFFFFF8000000
FFFFFFFFF8000000
FFFFFFFFF8000000
FFFFFFFFF8000000
FFFFFFFFF8000000
FFFFFFFFF8000000
FFFFFFFFF8000000
FFFFFFFFF8000000
FFFFFFFFF8000000
FFFFFFFFF8000000
FFFFFFFFF8000000
FFFFFFFFF8000000
FFFFFFFFF8000000
FFFFFFFFF8000000
FFFFFFFFF8000000
FFFFFFFFF8000000
FFFFFFFFF8000000
FFFFFFFFF8000000
FFFFFFFFF8000000
FFFFFFFFF8000000
FFFFFFFFF8000000
FFFFFFFFF8000000
FFFFFFFFF8000000
FFFFFFFFF8000000
FFFFFFFFF8000000
FFFFFFFFF8000000
FFFFFFFFF8000000
FFFFFFFFF8000000
FFFFFFFFF8000000
FFFFFFFFF8000000
FFFFFFFFF8000000
FFFFFFFFF8000000
FFFFFFFFF8000000
FFFFFFFFF8000000
FFFFFFFFF8000000
FFFFFFFFF8000000
FFFFFFFFF8000000
FFFFFFFFF8000000
FFFFFFFFF8000000
FFFFFFFFF8000000
FFFFFFFFF8000000
FFFFFFFFF8000000
FFFFFFFFF8000000
FFFFFFFFF8000000
FFFFFFFFF8000000
FFFFFFFFF8000000
FFFFFFFFF8000000
FFFFFFFFF8000000
FFFFFFFFF8000000
FFFFFFFFF8000000
FFFFFFFFF8000000
FFFFFFFFF8000000
FFFFFFFFF8000000
FFFFFFFFF8000000
FFFFFFFFF8000000
FFFFFFFFF8000000
FFFFFFFFF8000000
FFFFFFFFF8000000
FFFFFFFFF8000000
FFFFFFFFF8000000
FFFFFFFFF8000000
FFFFFFFFF8000000
FFFFFFFFF8000000
FFFFFFFFF8000000
FFFFFFFFF8000000
FFFFFFFFF8000000
FFFFFFFFF8000000
FFFFFFFFF8000000
FFFFFFFFF8000000
FFFFFFFFF8000000
FFFFFFFFF8000000
FFFFFFFFF8000000
FFFFFFFFF8000000
FFFFFFFFF8000000
FFFFFFFFF8000000
FFFFFFFFF8000000
FFFFFFFFF8000000
FFFFFFFFF8000000
FFFFFFFFF8000000
FFFFFFFFF8000000
FFFFFFFFF8000000
FFFFFFFFF8000000
FFFFFFFFF8000000
FFFFFFFFF8000000
FFFFFFFFF8000000
FFFFFFFFF8000000
FFFFFFFFF8000000
FFFFFFFFF8000000
FFFFFFFFF8000000
FFFFFFFFF8000000
FFFFFFFFF8000000
FFFFFFFFF8000000
FFFFFFFFF8000000
FFFFFFFFF8000000
FFFFFFFFF8000000
FFFFFFFFF8000000
FFFFFFFFF8000000
FFFFFFFFF8000000
FFFFFFFFF8000000
FFFFFFFFF8000000
FFFFFFFFF8000000
FFFFFFFFF8000000
FFFFFFFFFFFFFFE0
FFFFFFFFFFFFFFE0
FFFFFFFFFFFFFFE0
FFFFFFFFFFFFFFE0
FFFFFFFFFFFFFFE0
FFFFFFFFFFFFFFE0
FFFFFFFFFFFFFFE0
FFFFFFFFFFFFFFE0
FFFFFFFFFFFFFFE0
FFFFFFFFFFFFFFE0
FFFFFFFFFFFFFFE0
FFFFFFFFFFFFFFE0
FFFFFFFFFFFFFFE0
FFFFFFFFFFFFFFE0
FFFFFFFFFFFFFFE0
FFFFFFFFFFFFFFE0
FFFFFFFFFFFFFFE0
FFFFFFFFFFFFFFE0
FFFFFFFFFFFFFFE0
FFFFFFFFFFFFFFE0
FFFFFFFFFFFFFFE0
FFFFFFFFFFFFFFE0
FFFFFFFFFFFFFFE0
FFFFFFFFFFFFFFE0
ENDCHAR
STARTCHAR 004D
ENCODING 77
SWIDTH 603 0
DWIDTH 134 0
BBX 115 180 10 0
BITMAP
FFFFFFFFFFE0000000FFFFFFFFFFE0
FFFFFFFFFFE0000000FFFFFFFFFFE0
FFFFFFFFFFE0000001FFFFFFFFFFE0
FFFFFFFFFFF0000001FFFFFFFFFFE0
FFFFFFFFFFF0000001FFFFFFFFFFE0
FFFFFFFFFFF0000001FFFFFFFFFFE0
FFFFFFFFFFF0000001FFFFFFFFFFE0
FFFFFFFFFFF0000001FFFFFFFFFFE0
FFFFFFFFFFF0000001FFFFFFFFFFE0
FFFFFFFFFFF0000003FFFFFFFFFFE0
FFFFFFFFFFF8000003FFFFFFFFFFE0
FFFFFFFFFFF8000003FFFFFFFFFFE0
FFFFFFFFFFF8000003FFFFFFFFFFE0
FFFFFFFFFFF8000003FFFFFFFFFFE0
FFFFFFFFFFF8000003FFFFFFFFFFE0
FFFFFFFFFFF8000007FFFFFFFFFFE0
FFFFFFFFFFFC000007FFFFFFFFFFE0
FFFFFFFFFFFC000007FFFFFFFFFFE0
FFFFFFFFFFFC000007FFFFFFFFFFE0
FFFFFFFFFFFC000007FFFFFFFFFFE0
FFFFFFFFFFFC000007FFFFFFFFFFE0
FFFFFFFFFFFC000007FFFFFFFFFFE0
FFFFFFFFFFFE00000FFFFFFFFFFFE0
FFFFFFFFFFFE00000FFFFFFFFFFFE0
FFFFFFFFFFFE00000FFFFFFFFFFFE0
FFFFFFFFFFFE00000FFFFFFFFFFFE0
FFFFFFFFFFFE00000FFFFFFFFFFFE0
FFFFFFFFFFFE00000FFFFFFFFFFFE0
FFFFFFFFFFFF00001FFFFFFFFFFFE0
FFFFFFFFFFFF00001FFFFFFFFFFFE0
FFFFFFFFFFFF00001FFFFFFFFFFFE0
FFFFFFFFFFFF00001FFFFFFFFFFFE0
FFFFFFFFFFFF00001FFFFFFFFFFFE0
FFFFFFFFFFFF00001FFFFFFFFFFFE0
FFFFFFFFFFFF00003FFFFFFFFFFFE0
FFFFFFFFFFFF80003FFFFFFFFFFFE0
FFFFFFFFFFFF80003FFFFFFFFFFFE0
FFFFFFFFFFFF80003FFFFFFFFFFFE0
FFFFFFFFFFFF80003FFFFFFFFFFFE0
FFFFFFFFFFFF80003FFFFFFFFFFFE0
FFFFFFFFFFFF80003FFFFFFFFFFFE0
FFFFFFFFFFFFC0007FFFFFFFFFFFE0
FFFFFFFFFFFFC0007FFFFFFFFFFFE0
FFFFFFFFFFFFC0007FFFFFFFFFFFE0
FFFFFFFFFFFFC0007FFFFFFFFFFFE0
FFFFFFFFFFFFC0007FFFFFFFFFFFE0
FFFFFFFFFFFFC0007FFFFFFFFFFFE0
FFFFFFFFFFFFE000FFFFFFFFFFFFE0
FFFFFFFFFFFFE000FFFFFFFFFFFFE0
FFFFFFFFFFFFE000FFFFFFFFFFFFE0
FFFFFFFFFFFFE000FFFFFFFFFFFFE0
FFFFFFFFFFFFE000FFFFFFFFFFFFE0
FFFFFFFFFFFFE000FFFFFFFFFFFFE0
FFFFFFFFFFFFF000FFFFFFFFFFFFE0
FFFFFFFFFFFFF001FFFFFFFFFFFFE0
FFFFFFFFFFFFF001FFFFFFFFFFFFE0
FFFFFFFFFFFFF001FFFFFFFFFFFFE0
FFFFFFFFFFFFF001FFFFFFFFFFFFE0
FFFFFFFFFFFFF001FFFFFFFFFFFFE0
FFFFFFFFFFFFF001FFFFFFFFFFFFE0
FFFFFFFFFFFFF803FFFFFFFFFFFFE0
FFFFFFFFFFFFF803FFFFFFFFFFFFE0
FFFFFFFFFFFFF803FFFFFFFFFFFFE0
FFFFFFFFFFFFF803FFFFFFFFFFFFE0
FFFFFFFFFFFFF803FFFFFFFFFFFFE0
FFFFFFFFFFFFF803FFFFFFFFFFFFE0
FFFFFFFFFFFFFC07FFFFFFFFFFFFE0
FFFFFFFFFFFFFC07FFFFFFFFFFFFE0
FFFFFFFFFFFFFC07FFFFFFFFFFFFE0
FFFFFFFFFFFFFC07FFFFFFFFFFFFE0
FFFFFFFFFFFFFC07FFFFFFFFFFFFE0
FFFFFFFFFFFFFC07FFFFFFFFFFFFE0
FFFFFFFFFFFFFE07FFFFFFFFFFFFE0
FFFFFFFF3FFFFE0FFFFF9FFFFFFFE0
FFFFFFFF3FFFFE0FFFFF9FFFFFFFE0
FFFFFFFF3FFFFE0FFFFF9FFFFFFFE0
FFFFFFFF3FFFFE0FFFFF9FFFFFFFE0
FFFFFFFF3FFFFE0FFFFF9FFFFFFFE0
FFFFFFFF3FFFFE0FFFFF9FFFFFFFE0
FFFFFFFF3FFFFF1FFFFF1FFFFFFFE0
FFFFFFFF1FFFFF1FFFFF1FFFFFFFE0
FFFFFFFF1FFFFF1FFFFF1FFFFFFFE0
FFFFFFFF1FFFFF1FFFFF1FFFFFFFE0
FFFFFFFF1FFFFF1FFFFF1FFFFFFFE0
FFFFFFFF1FFFFF1FFFFF1FFFFFFFE0
FFFFFFFF1FFFFFBFFFFF1FFFFFFFE0
FFFFFFFF1FFFFFFFFFFF1FFFFFFFE0
FFFFFFFF0FFFFFFFFFFE1FFFFFFFE0
FFFFFFFF0FFFFFFFFFFE1FFFFFFFE0
FFFFFFFF0FFFFFFFFFFE1FFFFFFFE0
FFFFFFFF0FFFFFFFFFFE1FFFFFFFE0
FFFFFFFF0FFFFFFFFFFE1FFFFFFFE0
FFFFFFFF0FFFFFFFFFFE1FFFFFFFE0
FFFFFFFF0FFFFFFFFFFE1FFFFFFFE0
FFFFFFFF0FFFFFFFFFFC1FFFFFFFE0
FFFFFFFF07FFFFFFFFFC1FFFFFFFE0
FFFFFFFF07FFFFFFFFFC1FFFFFFFE0
FFFFFFFF07FFFFFFFFFC1FFFFFFFE0
FFFFFFFF07FFFFFFFFFC1FFFFFFFE0
FFFFFFFF07FFFFFFFFFC1FFFFFFFE0
FFFFFFFF07FFFFFFFFFC1FFFFFFFE0
FFFFFFFF07FFFFFFFFFC1FFFFFFFE0
FFFFFFFF03FFFFFFFFF81FFFFFFFE0
FFFFFFFF03FFFFFFFFF81FFFFFFFE0
FFFFFFFF03FFFFFFFFF81FFFFFFFE0
FFFFFFFF03FFFFFFFFF81FFFFFFFE0
FFFFFFFF03FFFFFFFFF81FFFFFFFE0
FFFFFFFF03FFFFFFFFF81FFFFFFFE0
FFFFFFFF03FFFFFFFFF81FFFFFFFE0
FFFFFFFF03FFFFFFFFF81FFFFFFFE0
FFFFFFFF01FFFFFFFFF01FFFFFFFE0
FFFFFFFF01FFFFFFFFF01FFFFFFFE0
FFFFFFFF01FFFFFFFFF01FFFFFFFE0
FFFFFFFF01FFFFFFFFF01FFFFFFFE0
FFFFFFFF01FFFFFFFFF01FFFFFFFE0
FFFFFFFF01FFFFFFFFF01FFFFFFFE0
FFFFFFFF01FFFFFFFFF01FFFFFFFE0
FFFFFFFF00FFFFFFFFE01FFFFFFFE0
FFFFFFFF00FFFFFFFFE01FFFFFFFE0
FFFFFFFF00FFFFFFFFE01FFFFFFFE0
FFFFFFFF00FFFFFFFFE01FFFFFFFE0
FFFFFFFF00FFFFFFFFE01FFFFFFFE0
FFFFFFFF00FFFFFFFFE01FFFFFFFE0
FFFFFFFF00FFFFFFFFE01FFFFFFFE0
FFFFFFFF00FFFFFFFFE01FFFFFFFE0
FFFFFFFF007FFFFFFFC01FFFFFFFE0
FFFFFFFF007FFFFFFFC01FFFFFFFE0
FFFFFFFF007FFFFFFFC01FFFFFFFE0
FFFFFFFF007FFFFFFFC01FFFFFFFE0
FFFFFFFF007FFFFFFFC01FFFFFFFE0
FFFFFFFF007FFFFFFFC01FFFFFFFE0
FFFFFFFF007FFFFFFFC01FFFFFFFE0
FFFFFFFF003FFFFFFFC01FFFFFFFE0
FFFFFFFF003FFFFFFF801FFFFFFFE0
FFFFFFFF003FFFFFFF801FFFFFFFE0
FFFFFFFF003FFFFFFF801FFFFFFFE0
FFFFFFFF003FFFFFFF801FFFFFFFE0
FFFFFFFF003FFFFFFF801FFFFFFFE0
FFFFFFFF003FFFFFFF801FFFFFFFE0
FFFFFFFF003FFFFFFF801FFFFFFFE0
FFFFFFFF001FFFFFFF001FFFFFFFE0
FFFFFFFF001FFFFFFF001FFFFFFFE0
FFFFFFFF001FFFFFFF003FFFFFFFE0
FFFFFFFF001FFFFFFF003FFFFFFFE0
FFFFFFFF001FFFFFFF003FFFFFFFE0
FFFFFFFF801FFFFFFF003FFFFFFFE0
FFFFFFFF801FFFFFFF003FFFFFFFE0
FFFFFFFF800FFFFFFF003FFFFFFFE0
FFFFFFFF800FFFFFFE003FFFFFFFE0
FFFFFFFF800FFFFFFE003FFFFFFFE0
FFFFFFFF800FFFFFFE003FFFFFFFE0
FFFFFFFF800FFFFFFE003FFFFFFFE0
FFFFFFFF800FFFFFFE003FFFFFFFE0
FFFFFFFF800FFFFFFE003FFFFFFFE0
FFFFFFFF800FFFFFFE003FFFFFFFE0
FFFFFFFF8007FFFFFE003FFFFFFFE0
FFFFFFFF8007FFFFFC003FFFFFFFE0
FFFFFFFF8007FFFFFC003FFFFFFFE0
FFFFFFFF8007FFFFFC003FFFFFFFE0
FFFFFFFF8007FFFFFC003FFFFFFFE0
FFFFFFFF8007FFFFFC003FFFFFFFE0
FFFFFFFF8007FFFFFC003FFFFFFFE0
FFFFFFFF8003FFFFFC003FFFFFFFE0
FFFFFFFF8003FFFFF8003FFFFFFFE0
FFFFFFFF8003FFFFF8003FFFFFFFE0
FFFFFFFF8003FFFFF8003FFFFFFFE0
FFFFFFFF8003FFFFF8003FFFFFFFE0
FFFFFFFF8003FFFFF8003FFFFFFFE0
FFFFFFFF8003FFFFF8003FFFFFFFE0
FFFFFFFF8003FFFFF8003FFFFFFFE0
FFFFFFFF8001FFFFF8003FFFFFFFE0
FFFFFFFF8001FFFFF0003FFFFFFFE0
FFFFFFFF8001FFFFF0003FFFFFFFE0
FFFFFFFF8001FFFFF0003FFFFFFFE0
FFFFFFFF8001FFFFF0003FFFFFFFE0
FFFFFFFF8001FFFFF0003FFFFFFFE0
FFFFFFFF8001FFFFF0003FFFFFFFE0
FFFFFFFF8001FFFFF0003FFFFFFFE0
FFFFFFFF8000FFFFF0003FFFFFFFE0
FFFFFFFF8000FFFFE0003FFFFFFFE0
ENDCHAR
STARTCHAR 004E
ENCODING 78
SWIDTH 472 0
DWIDTH 105 0
BBX 87 180 9 0
BITMAP
FFFFFFFF800001FFFFFFFE
FFFFFFFF800001FFFFFFFE
FFFFFFFF800001FFFFFFFE
FFFFFFFFC00001FFFFFFFE
FFFFFFFFC00001FFFFFFFE
FFFFFFFFC00001FFFFFFFE
FFFFFFFFC00001FFFFFFFE
FFFFFFFFE00001FFFFFFFE
FFFFFFFFE00001FFFFFFFE
FFFFFFFFE00001FFFFFFFE
FFFFFFFFE00001FFFFFFFE
FFFFFFFFF00001FFFFFFFE
FFFFFFFFF00001FFFFFFFE
FFFFFFFFF00001FFFFFFFE
FFFFFFFFF00001FFFFFFFE
FFFFFFFFF00001FFFFFFFE
FFFFFFFFF80001FFFFFFFE
FFFFFFFFF80001FFFFFFFE
FFFFFFFFF80001FFFFFFFE
FFFFFFFFF80001FFFFFFFE
FFFFFFFFFC0001FFFFFFFE
FFFFFFFFFC0001FFFFFFFE
FFFFFFFFFC0001FFFFFFFE
FFFFFFFFFC0001FFFFFFFE
FFFFFFFFFE0001FFFFFFFE
FFFFFFFFFE0001FFFFFFFE
FFFFFFFFFE0001FFFFFFFE
FFFFFFFFFE0001FFFFFFFE
FFFFFFFFFE0001FFFFFFFE
FFFFFFFFFF0001FFFFFFFE
FFFFFFFFFF0001FFFFFFFE
FFFFFFFFFF0001FFFFFFFE
FFFFFFFFFF0001FFFFFFFE
FFFFFFFFFF8001FFFFFFFE
FFFFFFFFFF8001FFFFFFFE
FFFFFFFFFF8001FFFFFFFE
FFFFFFFFFF8001FFFFFFFE
FFFFFFFFFF8001FFFFFFFE
FFFFFFFFFFC001FFFFFFFE
FFFFFFFFFFC001FFFFFFFE
FFFFFFFFFFC001FFFFFFFE
FFFFFFFFFFC001FFFFFFFE
FFFFFFFFFFE001FFFFFFFE
FFFFFFFFFFE001FFFFFFFE
FFFFFFFFFFE001FFFFFFFE
FFFFFFFFFFE001FFFFFFFE
FFFFFFFFFFF001FFFFFFFE
FFFFFFFFFFF001FFFFFFFE
FFFFFFFFFFF001FFFFFFFE
FFFFFFFFFFF001FFFFFFFE
FFFFFFFFFFF001FFFFFFFE
FFFFFFFFFFF801FFFFFFFE
FFFFFFFFFFF801FFFFFFFE
FFFFFFFFFFF801FFFFFFFE
FFFFFFFFFFF801FFFFFFFE
FFFFFFFFFFFC01FFFFFFFE
FFFFFFFFFFFC01FFFFFFFE
FFFFFFFFFFFC01FFFFFFFE
FFFFFFFFFFFC01FFFFFFFE
FFFFFFFFFFFE01FFFFFFFE
FFFFFFFFFFFE01FFFFFFFE
FFFFFFFFFFFE01FFFFFFFE
FFFFFFFFFFFE01FFFFFFFE
FFFFFFFFFFFE01FFFFFFFE
FFFFFFFFFFFF01FFFFFFFE
FFFFFFFFFFFF01FFFFFFFE
FFFFFFFFFFFF01FFFFFFFE
FFFFFFFFFFFF01FFFFFFFE
FFFFFFFFFFFF81FFFFFFFE
FFFFFFFFFFFF81FFFFFFFE
FFFFFFFFFFFF81FFFFFFFE
FFFFFFFFFFFF81FFFFFFFE
FFFFFFFFFFFFC1FFFFFFFE
FFFFFFFFFFFFC1FFFFFFFE
FFFFFFFFFFFFC1FFFFFFFE
FFFFFFFFFFFFC1FFFFFFFE
FFFFFFFFFFFFC1FFFFFFFE
FFFFFFFFFFFFE1FFFFFFFE
FFFFFFFFFFFFE1FFFFFFFE
FFFFFFFFFFFFE1FFFFFFFE
FFFFFFFFFFFFE1FFFFFFFE
FFFFFFFFFFFFF1FFFFFFFE
FFFFFFFFFFFFF1FFFFFFFE
FFFFFFFFFFFFF1FFFFFFFE
FFFFFFFFFFFFF1FFFFFFFE
FFFFFFFFFFFFF9FFFFFFFE
FFFFFFFFFFFFF9FFFFFFFE
FFFFFFFFFFFFF9FFFFFFFE
FFFFFFFE7FFFF9FFFFFFFE
FFFFFFFE7FFFF9FFFFFFFE
FFFFFFFE3FFFFFFFFFFFFE
FFFFFFFE3FFFFFFFFFFFFE
FFFFFFFE3FFFFFFFFFFFFE
FFFFFFFE3FFFFFFFFFFFFE
FFFFFFFE3FFFFFFFFFFFFE
FFFFFFFE1FFFFFFFFFFFFE
FFFFFFFE1FFFFFFFFFFFFE
FFFFFFFE1FFFFFFFFFFFFE
FFFFFFFE1FFFFFFFFFFFFE
FFFFFFFE0FFFFFFFFFFFFE
FFFFFFFE0FFFFFFFFFFFFE
FFFFFFFE0FFFFFFFFFFFFE
FFFFFFFE0FFFFFFFFFFFFE
FFFFFFFE0FFFFFFFFFFFFE
FFFFFFFE07FFFFFFFFFFFE
FFFFFFFE07FFFFFFFFFFFE
FFFFFFFE07FFFFFFFFFFFE
FFFFFFFE07FFFFFFFFFFFE
FFFFFFFE03FFFFFFFFFFFE
FFFFFFFE03FFFFFFFFFFFE
FFFFFFFF03FFFFFFFFFFFE
FFFFFFFF03FFFFFFFFFFFE
FFFFFFFF03FFFFFFFFFFFE
FFFFFFFF01FFFFFFFFFFFE
FFFFFFFF01FFFFFFFFFFFE
FFFFFFFF01FFFFFFFFFFFE
FFFFFFFF01FFFFFFFFFFFE
FFFFFFFF00FFFFFFFFFFFE
FFFFFFFF00FFFFFFFFFFFE
FFFFFFFF00FFFFFFFFFFFE
FFFFFFFF00FFFFFFFFFFFE
FFFFFFFF00FFFFFFFFFFFE
FFFFFFFF007FFFFFFFFFFE
FFFFFFFF007FFFFFFFFFFE
FFFFFFFF007FFFFFFFFFFE
FFFFFFFF007FFFFFFFFFFE
FFFFFFFF003FFFFFFFFFFE
FFFFFFFF003FFFFFFFFFFE
FFFFFFFF003FFFFFFFFFFE
FFFFFFFF003FFFFFFFFFFE
FFFFFFFF003FFFFFFFFFFE
FFFFFFFF001FFFFFFFFFFE
FFFFFFFF001FFFFFFFFFFE
FFFFFFFF001FFFFFFFFFFE
FFFFFFFF001FFFFFFFFFFE
FFFFFFFF000FFFFFFFFFFE
FFFFFFFF000FFFFFFFFFFE
FFFFFFFF000FFFFFFFFFFE
FFFFFFFF000FFFFFFFFFFE
FFFFFFFF0007FFFFFFFFFE
FFFFFFFF0007FFFFFFFFFE
FFFFFFFF0007FFFFFFFFFE
FFFFFFFF0007FFFFFFFFFE
FFFFFFFF0007FFFFFFFFFE
FFFFFFFF0003FFFFFFFFFE
FFFFFFFF0003FFFFFFFFFE
FFFFFFFF0003FFFFFFFFFE
FFFFFFFF0003FFFFFFFFFE
FFFFFFFF0001FFFFFFFFFE
FFFFFFFF0001FFFFFFFFFE
FFFFFFFF0001FFFFFFFFFE
FFFFFFFF0001FFFFFFFFFE
FFFFFFFF0001FFFFFFFFFE
FFFFFFFF0000FFFFFFFFFE
FFFFFFFF0000FFFFFFFFFE
FFFFFFFF0000FFFFFFFFFE
FFFFFFFF0000FFFFFFFFFE
FFFFFFFF00007FFFFFFFFE
FFFFFFFF00007FFFFFFFFE
FFFFFFFF00007FFFFFFFFE
FFFFFFFF00007FFFFFFFFE
FFFFFFFF00007FFFFFFFFE
FFFFFFFF00003FFFFFFFFE
FFFFFFFF00003FFFFFFFFE
FFFFFFFF00003FFFFFFFFE
FFFFFFFF00003FFFFFFFFE
FFFFFFFF00001FFFFFFFFE
FFFFFFFF00001FFFFFFFFE
FFFFFFFF00001FFFFFFFFE
FFFFFFFF00001FFFFFFFFE
FFFFFFFF00001FFFFFFFFE
FFFFFFFF00000FFFFFFFFE
FFFFFFFF00000FFFFFFFFE
FFFFFFFF00000FFFFFFFFE
FFFFFFFF00000FFFFFFFFE
FFFFFFFF000007FFFFFFFE
FFFFFFFF000007FFFFFFFE
FFFFFFFF000007FFFFFFFE
FFFFFFFF000007FFFFFFFE
FFFFFFFF000007FFFFFFFE
ENDCHAR
STARTCHAR 004F
ENCODING 79
SWIDTH 459 0
DWIDTH 102 0
BBX 86 182 8 -1
BITMAP
00000007FFFFFF80000000
00000FFFFFFFFFFFC00000
0000FFFFFFFFFFFFFC0000
000FFFFFFFFFFFFFFFC000
003FFFFFFFFFFFFFFFF000
00FFFFFFFFFFFFFFFFFC00
01FFFFFFFFFFFFFFFFFE00
03FFFFFFFFFFFFFFFFFF00
07FFFFFFFFFFFFFFFFFF80
07FFFFFFFFFFFFFFFFFF80
0FFFFFFFFFFFFFFFFFFFC0
0FFFFFFFFFFFFFFFFFFFC0
1FFFFFFFFFFFFFFFFFFFE0
1FFFFFFFFFFFFFFFFFFFE0
3FFFFFFFFFFFFFFFFFFFF0
3FFFFFFFFFFFFFFFFFFFF0
3FFFFFFFFFFFFFFFFFFFF0
3FFFFFFFFFFFFFFFFFFFF0
7FFFFFFFFFFFFFFFFFFFF8
7FFFFFFFFFFFFFFFFFFFF8
7FFFFFFFFFFFFFFFFFFFF8
7FFFFFFFFFFFFFFFFFFFF8
7FFFFFFFFFFFFFFFFFFFF8
7FFFFFFFFFFFFFFFFFFFF8
7FFFFFFFFE03FFFFFFFFF8
FFFFFFFFFC00FFFFFFFFFC
FFFFFFFFFC00FFFFFFFFFC
FFFFFFFFF800FFFFFFFFFC
FFFFFFFFF8007FFFFFFFFC
FFFFFFFFF8007FFFFFFFFC
FFFFFFFFF8007FFFFFFFFC
FFFFFFFFF8007FFFFFFFFC
FFFFFFFFF8007FFFFFFFFC
FFFFFFFFF8007FFFFFFFFC
FFFFFFFFF8007FFFFFFFFC
FFFFFFFFF8007FFFFFFFFC
FFFFFFFFF8007FFFFFFFFC
FFFFFFFFF8007FFFFFFFFC
FFFFFFFFF8007FFFFFFFFC
FFFFFFFFF8007FFFFFFFFC
FFFFFFFFF8007FFFFFFFFC
FFFFFFFFF8007FFFFFFFFC
FFFFFFFFF8007FFFFFFFFC
FFFFFFFFF8007FFFFFFFFC
FFFFFFFFF8007FFFFFFFFC
FFFFFFFFF8007FFFFFFFFC
FFFFFFFFF8007FFFFFFFFC
FFFFFFFFF8007FFFFFFFFC
FFFFFFFFF8007FFFFFFFFC
FFFFFFFFF8007FFFFFFFFC
FFFFFFFFF8007FFFFFFFFC
FFFFFFFFF8007FFFFFFFFC
FFFFFFFFF8007FFFFFFFFC
FFFFFFFFF8007FFFFFFFFC
FFFFFFFFF8007FFFFFFFFC
FFFFFFFFF8007FFFFFFFFC
FFFFFFFFF8007FFFFFFFFC
FFFFFFFFF8007FFFFFFFFC
FFFFFFFFF8007FFFFFFFFC
FFFFFFFFF8007FFFFFFFFC
FFFFFFFFF8007FFFFFFFFC
FFFFFFFFF8007FFFFFFFFC
FFFFFFFFF8007FFFFFFFFC
FFFFFFFFF8007FFFFFFFFC
FFFFFFFFF8007FFFFFFFFC
FFFFFFFFF8007FFFFFFFFC
FFFFFFFFF8007FFFFFFFFC
FFFFFFFFF8007FFFFFFFFC
FFFFFFFFF8007FFFFFFFFC
FFFFFFFFF8007FFFFFFFFC
FFFFFFFFF8007FFFFFFFFC
FFFFFFFFF8007FFFFFFFFC
FFFFFFFFF8007FFFFFFFFC
FFFFFFFFF8007FFFFFFFFC
FFFFFFFFF8007FFFFFFFFC
FFFFFFFFF8007FFFFFFFFC
FFFFFFFFF8007FFFFFFFFC
FFFFFFFFF8007FFFFFFFFC
FFFFFFFFF8007FFFFFFFFC
FFFFFFFFF8007FFFFFFFFC
FFFFFFFFF8007FFFFFFFFC
FFFFFFFFF8007FFFFFFFFC
FFFFFFFFF8007FFFFFFFFC
FFFFFFFFF8007FFFFFFFFC
FFFFFFFFF8007FFFFFFFFC
FFFFFFFFF8007FFFFFFFFC
FFFFFFFFF8007FFFFFFFFC
FFFFFFFFF8007FFFFFFFFC
FFFFFFFFF8007FFFFFFFFC
FFFFFFFFF8007FFFFFFFFC
FFFFFFFFF8007FFFFFFFFC
FFFFFFFFF8007FFFFFFFFC
FFFFFFFFF8007FFFFFFFFC
FFFFFFFFF8007FFFFFFFFC
FFFFFFFFF8007FFFFFFFFC
FFFFFFFFF8007FFFFFFFFC
FFFFFFFFF8007FFFFFFFFC
FFFFFFFFF8007FFFFFFFFC
FFFFFFFFF8007FFFFFFFFC
FFFFFFFFF8007FFFFFFFFC
FFFFFFFFF8007FFFFFFFFC
FFFFFFFFF8007FFFFFFFFC
FFFFFFFFF8007FFFFFFFFC
FFFFFFFFF8007FFFFFFFFC
FFFFFFFFF8007FFFFFFFFC
FFFFFFFFF8007FFFFFFFFC
FFFFFFFFF8007FFFFFFFFC
FFFFFFFFF8007FFFFFFFFC
FFFFFFFFF8007FFFFFFFFC
FFFFFFFFF8007FFFFFFFFC
FFFFFFFFF8007FFFFFFFFC
FFFFFFFFF8007FFFFFFFFC
FFFFFFFFF8007FFFFFFFFC
FFFFFFFFF8007FFFFFFFFC
FFFFFFFFF8007FFFFFFFFC
FFFFFFFFF8007FFFFFFFFC
FFFFFFFFF8007FFFFFFFFC
FFFFFFFFF8007FFFFFFFFC
FFFFFFFFF8007FFFFFFFFC
FFFFFFFFF8007FFFFFFFFC
FFFFFFFFF8007FFFFFFFFC
FFFFFFFFF8007FFFFFFFFC
FFFFFFFFF8007FFFFFFFFC
FFFFFFFFF8007FFFFFFFFC
FFFFFFFFF8007FFFFFFFFC
FFFFFFFFF8007FFFFFFFFC
FFFFFFFFF8007FFFFFFFFC
FFFFFFFFF8007FFFFFFFFC
FFFFFFFFF8007FFFFFFFFC
FFFFFFFFF8007FFFFFFFFC
FFFFFFFFF8007FFFFFFFFC
FFFFFFFFF8007FFFFFFFFC
FFFFFFFFF8007FFFFFFFFC
FFFFFFFFF8007FFFFFFFFC
FFFFFFFFF8007FFFFFFFFC
FFFFFFFFF8007FFFFFFFFC
FFFFFFFFF8007FFFFFFFFC
FFFFFFFFF8007FFFFFFFFC
FFFFFFFFF8007FFFFFFFFC
FFFFFFFFF8007FFFFFFFFC
FFFFFFFFF8007FFFFFFFFC
FFFFFFFFF8007FFFFFFFFC
FFFFFFFFF8007FFFFFFFFC
FFFFFFFFF8007FFFFFFFFC
FFFFFFFFF8007FFFFFFFFC
FFFFFFFFF8007FFFFFFFFC
FFFFFFFFF8007FFFFFFFFC
FFFFFFFFF8007FFFFFFFFC
FFFFFFFFF8007FFFFFFFFC
FFFFFFFFF8007FFFFFFFFC
FFFFFFFFF8007FFFFFFFFC
FFFFFFFFF8007FFFFFFFFC
FFFFFFFFF8007FFFFFFFFC
FFFFFFFFF8007FFFFFFFFC
FFFFFFFFF800FFFFFFFFFC
FFFFFFFFFC00FFFFFFFFFC
FFFFFFFFFE00FFFFFFFFFC
7FFFFFFFFF03FFFFFFFFF8
7FFFFFFFFFFFFFFFFFFFF8
7FFFFFFFFFFFFFFFFFFFF8
7FFFFFFFFFFFFFFFFFFFF8
7FFFFFFFFFFFFFFFFFFFF8
7FFFFFFFFFFFFFFFFFFFF8
3FFFFFFFFFFFFFFFFFFFF0
3FFFFFFFFFFFFFFFFFFFF0
3FFFFFFFFFFFFFFFFFFFF0
3FFFFFFFFFFFFFFFFFFFF0
1FFFFFFFFFFFFFFFFFFFE0
1FFFFFFFFFFFFFFFFFFFE0
1FFFFFFFFFFFFFFFFFFFE0
0FFFFFFFFFFFFFFFFFFFC0
0FFFFFFFFFFFFFFFFFFFC0
07FFFFFFFFFFFFFFFFFF80
03FFFFFFFFFFFFFFFFFF80
01FFFFFFFFFFFFFFFFFF00
00FFFFFFFFFFFFFFFFFE00
007FFFFFFFFFFFFFFFF800
001FFFFFFFFFFFFFFFF000
0007FFFFFFFFFFFFFF8000
0000FFFFFFFFFFFFFC0000
000007FFFFFFFFFF800000
00000003FFFFFF80000000
ENDCHAR
STARTCHAR 0050
ENCODING 80
SWIDTH 454 0
DWIDTH 101 0
BBX 86 180 9 0
BITMAP
FFFFFFFFFFFFFFC0000000
FFFFFFFFFFFFFFFFC00000
FFFFFFFFFFFFFFFFFE0000
FFFFFFFFFFFFFFFFFFC000
FFFFFFFFFFFFFFFFFFF000
FFFFFFFFFFFFFFFFFFFC00
FFFFFFFFFFFFFFFFFFFE00
FFFFFFFFFFFFFFFFFFFF00
FFFFFFFFFFFFFFFFFFFF80
FFFFFFFFFFFFFFFFFFFF80
FFFFFFFFFFFFFFFFFFFFC0
FFFFFFFFFFFFFFFFFFFFC0
FFFFFFFFFFFFFFFFFFFFE0
FFFFFFFFFFFFFFFFFFFFE0
FFFFFFFFFFFFFFFFFFFFE0
FFFFFFFFFFFFFFFFFFFFF0
FFFFFFFFFFFFFFFFFFFFF0
FFFFFFFFFFFFFFFFFFFFF0
FFFFFFFFFFFFFFFFFFFFF0
FFFFFFFFFFFFFFFFFFFFF8
FFFFFFFFFFFFFFFFFFFFF8
FFFFFFFFFFFFFFFFFFFFF8
FFFFFFFFFFFFFFFFFFFFF8
FFFFFFFFF81FFFFFFFFFF8
FFFFFFFFF801FFFFFFFFF8
FFFFFFFFF801FFFFFFFFF8
FFFFFFFFF800FFFFFFFFFC
FFFFFFFFF800FFFFFFFFFC
FFFFFFFFF8007FFFFFFFFC
FFFFFFFFF8007FFFFFFFFC
FFFFFFFFF8007FFFFFFFFC
FFFFFFFFF8007FFFFFFFFC
FFFFFFFFF8007FFFFFFFFC
FFFFFFFFF8007FFFFFFFFC
FFFFFFFFF8007FFFFFFFFC
FFFFFFFFF8007FFFFFFFFC
FFFFFFFFF8007FFFFFFFFC
FFFFFFFFF8007FFFFFFFFC
FFFFFFFFF8007FFFFFFFFC
FFFFFFFFF8007FFFFFFFFC
FFFFFFFFF8007FFFFFFFFC
FFFFFFFFF8007FFFFFFFFC
FFFFFFFFF8007FFFFFFFFC
FFFFFFFFF8007FFFFFFFFC
FFFFFFFFF8007FFFFFFFFC
FFFFFFFFF8007FFFFFFFFC
FFFFFFFFF8007FFFFFFFFC
FFFFFFFFF8007FFFFFFFFC
FFFFFFFFF8007FFFFFFFFC
FFFFFFFFF8007FFFFFFFFC
FFFFFFFFF8007FFFFFFFFC
FFFFFFFFF8007FFFFFFFFC
FFFFFFFFF8007FFFFFFFFC
FFFFFFFFF8007FFFFFFFFC
FFFFFFFFF8007FFFFFFFFC
FFFFFFFFF8007FFFFFFFFC
FFFFFFFFF8007FFFFFFFFC
FFFFFFFFF8007FFFFFFFFC
FFFFFFFFF8007FFFFFFFFC
FFFFFFFFF8007FFFFFFFFC
FFFFFFFFF8007FFFFFFFFC
FFFFFFFFF8007FFFFFFFFC
FFFFFFFFF8007FFFFFFFFC
FFFFFFFFF8007FFFFFFFFC
FFFFFFFFF8007FFFFFFFFC
FFFFFFFFF8007FFFFFFFFC
FFFFFFFFF8007FFFFFFFFC
FFFFFFFFF8007FFFFFFFFC
FFFFFFFFF8007FFFFFFFFC
FFFFFFFFF8007FFFFFFFFC
FFFFFFFFF8007FFFFFFFFC
FFFFFFFFF8007FFFFFFFFC
FFFFFFFFF8007FFFFFFFFC
FFFFFFFFF8007FFFFFFFFC
FFFFFFFFF8007FFFFFFFFC
FFFFFFFFF8007FFFFFFFFC
FFFFFFFFF8007FFFFFFFFC
FFFFFFFFF8007FFFFFFFFC
FFFFFFFFF8007FFFFFFFFC
FFFFFFFFF8007FFFFFFFFC
FFFFFFFFF8007FFFFFFFFC
FFFFFFFFF8007FFFFFFFFC
FFFFFFFFF8007FFFFFFFFC
FFFFFFFFF8007FFFFFFFFC
FFFFFFFFF8007FFFFFFFFC
FFFFFFFFF8007FFFFFFFFC
FFFFFFFFF800FFFFFFFFFC
FFFFFFFFF800FFFFFFFFFC
FFFFFFFFF800FFFFFFFFFC
FFFFFFFFF800FFFFFFFFFC
FFFFFFFFF801FFFFFFFFFC
FFFFFFFFF803FFFFFFFFF8
FFFFFFFFF8FFFFFFFFFFF8
FFFFFFFFFFFFFFFFFFFFF8
FFFFFFFFFFFFFFFFFFFFF8
FFFFFFFFFFFFFFFFFFFFF8
FFFFFFFFFFFFFFFFFFFFF8
FFFFFFFFFFFFFFFFFFFFF8
FFFFFFFFFFFFFFFFFFFFF0
FFFFFFFFFFFFFFFFFFFFF0
FFFFFFFFFFFFFFFFFFFFF0
FFFFFFFFFFFFFFFFFFFFF0
FFFFFFFFFFFFFFFFFFFFE0
FFFFFFFFFFFFFFFFFFFFE0
FFFFFFFFFFFFFFFFFFFFC0
FFFFFFFFFFFFFFFFFFFFC0
FFFFFFFFFFFFFFFFFFFF80
FFFFFFFFFFFFFFFFFFFF80
FFFFFFFFFFFFFFFFFFFF00
FFFFFFFFFFFFFFFFFFFE00
FFFFFFFFFFFFFFFFFFFC00
FFFFFFFFFFFFFFFFFFF000
FFFFFFFFFFFFFFFFFFC000
FFFFFFFFFFFFFFFFFF0000
FFFFFFFFFFFFFFFFF00000
FFFFFFFFFFFFFFFC000000
FFFFFFFFF8000000000000
FFFFFFFFF8000000000000
FFFFFFFFF8000000000000
FFFFFFFFF8000000000000
FFFFFFFFF8000000000000
FFFFFFFFF8000000000000
FFFFFFFFF8000000000000
FFFFFFFFF8000000000000
FFFFFFFFF8000000000000
FFFFFFFFF8000000000000
FFFFFFFFF8000000000000
FFFFFFFFF8000000000000
FFFFFFFFF8000000000000
FFFFFFFFF8000000000000
FFFFFFFFF8000000000000
FFFFFFFFF8000000000000
FFFFFFFFF8000000000000
FFFFFFFFF8000000000000
FFFFFFFFF8000000000000
FFFFFFFFF8000000000000
FFFFFFFFF8000000000000
FFFFFFFFF8000000000000
FFFFFFFFF8000000000000
FFFFFFFFF8000000000000
FFFFFFFFF8000000000000
FFFFFFFFF8000000000000
FFFFFFFFF8000000000000
FFFFFFFFF8000000000000
FFFFFFFFF8000000000000
FFFFFFFFF8000000000000
FFFFFFFFF8000000000000
FFFFFFFFF8000000000000
FFFFFFFFF8000000000000
FFFFFFFFF8000000000000
FFFFFFFFF8000000000000
FFFFFFFFF8000000000000
FFFFFFFFF8000000000000
FFFFFFFFF8000000000000
FFFFFFFFF8000000000000
FFFFFFFFF8000000000000
FFFFFFFFF8000000000000
FFFFFFFFF8000000000000
FFFFFFFFF8000000000000
FFFFFFFFF8000000000000
FFFFFFFFF8000000000000
FFFFFFFFF8000000000000
FFFFFFFFF8000000000000
FFFFFFFFF8000000000000
FFFFFFFFF8000000000000
FFFFFFFFF8000000000000
FFFFFFFFF8000000000000
FFFFFFFFF8000000000000
FFFFFFFFF8000000000000
FFFFFFFFF8000000000000
FFFFFFFFF8000000000000
FFFFFFFFF8000000000000
FFFFFFFFF8000000000000
FFFFFFFFF8000000000000
FFFFFFFFF8000000000000
FFFFFFFFF8000000000000
FFFFFFFFF8000000000000
FFFFFFFFF8000000000000
FFFFFFFFF8000000000000
FFFFFFFFF8000000000000
ENDCHAR
STARTCHAR 0051
ENCODING 81
SWIDTH 459 0
DWIDTH 102 0
BBX 86 203 8 -22
BITMAP
00000007FFFFFF80000000
000007FFFFFFFFFF800000
0000FFFFFFFFFFFFF80000
0007FFFFFFFFFFFFFF8000
003FFFFFFFFFFFFFFFE000
007FFFFFFFFFFFFFFFF800
01FFFFFFFFFFFFFFFFFC00
03FFFFFFFFFFFFFFFFFE00
03FFFFFFFFFFFFFFFFFF00
07FFFFFFFFFFFFFFFFFF80
0FFFFFFFFFFFFFFFFFFF80
0FFFFFFFFFFFFFFFFFFFC0
1FFFFFFFFFFFFFFFFFFFC0
1FFFFFFFFFFFFFFFFFFFE0
1FFFFFFFFFFFFFFFFFFFE0
3FFFFFFFFFFFFFFFFFFFF0
3FFFFFFFFFFFFFFFFFFFF0
3FFFFFFFFFFFFFFFFFFFF0
3FFFFFFFFFFFFFFFFFFFF0
7FFFFFFFFFFFFFFFFFFFF8
7FFFFFFFFFFFFFFFFFFFF8
7FFFFFFFFFFFFFFFFFFFF8
7FFFFFFFFFFFFFFFFFFFF8
7FFFFFFFFFFFFFFFFFFFF8
7FFFFFFFFE03FFFFFFFFF8
FFFFFFFFFC00FFFFFFFFFC
FFFFFFFFFC00FFFFFFFFFC
FFFFFFFFF800FFFFFFFFFC
FFFFFFFFF8007FFFFFFFFC
FFFFFFFFF8007FFFFFFFFC
FFFFFFFFF8007FFFFFFFFC
FFFFFFFFF8007FFFFFFFFC
FFFFFFFFF8007FFFFFFFFC
FFFFFFFFF8007FFFFFFFFC
FFFFFFFFF8007FFFFFFFFC
FFFFFFFFF8007FFFFFFFFC
FFFFFFFFF8007FFFFFFFFC
FFFFFFFFF8007FFFFFFFFC
FFFFFFFFF8007FFFFFFFFC
FFFFFFFFF8007FFFFFFFFC
FFFFFFFFF8007FFFFFFFFC
FFFFFFFFF8007FFFFFFFFC
FFFFFFFFF8007FFFFFFFFC
FFFFFFFFF8007FFFFFFFFC
FFFFFFFFF8007FFFFFFFFC
FFFFFFFFF8007FFFFFFFFC
FFFFFFFFF8007FFFFFFFFC
FFFFFFFFF8007FFFFFFFFC
FFFFFFFFF8007FFFFFFFFC
FFFFFFFFF8007FFFFFFFFC
FFFFFFFFF8007FFFFFFFFC
FFFFFFFFF8007FFFFFFFFC
FFFFFFFFF8007FFFFFFFFC
FFFFFFFFF8007FFFFFFFFC
FFFFFFFFF8007FFFFFFFFC
FFFFFFFFF8007FFFFFFFFC
FFFFFFFFF8007FFFFFFFFC
FFFFFFFFF8007FFFFFFFFC
FFFFFFFFF8007FFFFFFFFC
FFFFFFFFF8007FFFFFFFFC
FFFFFFFFF8007FFFFFFFFC
FFFFFFFFF8007FFFFFFFFC
FFFFFFFFF8007FFFFFFFFC
FFFFFFFFF8007FFFFFFFFC
FFFFFFFFF8007FFFFFFFFC
FFFFFFFFF8007FFFFFFFFC
FFFFFFFFF8007FFFFFFFFC
FFFFFFFFF8007FFFFFFFFC
FFFFFFFFF8007FFFFFFFFC
FFFFFFFFF8007FFFFFFFFC
FFFFFFFFF8007FFFFFFFFC
FFFFFFFFF8007FFFFFFFFC
FFFFFFFFF8007FFFFFFFFC
FFFFFFFFF8007FFFFFFFFC
FFFFFFFFF8007FFFFFFFFC
FFFFFFFFF8007FFFFFFFFC
FFFFFFFFF8007FFFFFFFFC
FFFFFFFFF8007FFFFFFFFC
FFFFFFFFF8007FFFFFFFFC
FFFFFFFFF8007FFFFFFFFC
FFFFFFFFF8007FFFFFFFFC
FFFFFFFFF8007FFFFFFFFC
FFFFFFFFF8007FFFFFFFFC
FFFFFFFFF8007FFFFFFFFC
FFFFFFFFF8007FFFFFFFFC
FFFFFFFFF8007FFFFFFFFC
FFFFFFFFF8007FFFFFFFFC
FFFFFFFFF8007FFFFFFFFC
FFFFFFFFF8007FFFFFFFFC
FFFFFFFFF8007FFFFFFFFC
FFFFFFFFF8007FFFFFFFFC
FFFFFFFFF8007FFFFFFFFC
FFFFFFFFF8007FFFFFFFFC
FFFFFFFFF8007FFFFFFFFC
FFFFFFFFF8007FFFFFFFFC
FFFFFFFFF8007FFFFFFFFC
FFFFFFFFF8007FFFFFFFFC
FFFFFFFFF8007FFFFFFFFC
FFFFFFFFF8007FFFFFFFFC
FFFFFFFFF8007FFFFFFFFC
FFFFFFFFF8007FFFFFFFFC
FFFFFFFFF8007FFFFFFFFC
FFFFFFFFF8007FFFFFFFFC
FFFFFFFFF8007FFFFFFFFC
FFFFFFFFF8007FFFFFFFFC
FFFFFFFFF8007FFFFFFFFC
FFFFFFFFF8007FFFFFFFFC
FFFFFFFFF8007FFFFFFFFC
FFFFFFFFF8007FFFFFFFFC
FFFFFFFFF8007FFFFFFFFC
FFFFFFFFF8007FFFFFFFFC
FFFFFFFFF8007FFFFFFFFC
FFFFFFFFF8007FFFFFFFFC
FFFFFFFFF8007FFFFFFFFC
FFFFFFFFF8007FFFFFFFFC
FFFFFFFFF8007FFFFFFFFC
FFFFFFFFF8007FFFFFFFFC
FFFFFFFFF8007FFFFFFFFC
FFFFFFFFF8007FFFFFFFFC
FFFFFFFFF8007FFFFFFFFC
FFFFFFFFF8007FFFFFFFFC
FFFFFFFFF8007FFFFFFFFC
FFFFFFFFF8007FFFFFFFFC
FFFFFFFFF8007FFFFFFFFC
FFFFFFFFF8007FFFFFFFFC
FFFFFFFFF8007FFFFFFFFC
FFFFFFFFF8007FFFFFFFFC
FFFFFFFFF8007FFFFFFFFC
FFFFFFFFF8007FFFFFFFFC
FFFFFFFFF8007FFFFFFFFC
FFFFFFFFF8007FFFFFFFFC
FFFFFFFFF8007FFFFFFFFC
FFFFFFFFF8007FFFFFFFFC
FFFFFFFFF8007FFFFFFFFC
FFFFFFFFF8007FFFFFFFFC
FFFFFFFFF8007FFFFFFFFC
FFFFFFFFF8007FFFFFFFFC
FFFFFFFFF8007FFFFFFFFC
FFFFFFFFF8007FFFFFFFFC
FFFFFFFFF8007FFFFFFFFC
FFFFFFFFF8007FFFFFFFFC
FFFFFFFFF8007FFFFFFFFC
FFFFFFFFF8007FFFFFFFFC
FFFFFFFFF8007FFFFFFFFC
FFFFFFFFF8007FFFFFFFFC
FFFFFFFFF8007FFFFFFFFC
FFFFFFFFF8007FFFFFFFFC
FFFFFFFFF8007FFFFFFFFC
FFFFFFFFF8007FFFFFFFFC
FFFFFFFFF8007FFFFFFFFC
FFFFFFFFF8007FFFFFFFFC
FFFFFFFFF8007FFFFFFFFC
FFFFFFFFF8007FFFFFFFFC
FFFFFFFFF8007FFFFFFFFC
FFFFFFFFFC00FFFFFFFFFC
FFFFFFFFFC00FFFFFFFFFC
FFFFFFFFFE01FFFFFFFFFC
7FFFFFFFFF83FFFFFFFFF8
7FFFFFFFFFFFFFFFFFFFF8
7FFFFFFFFFFFFFFFFFFFF8
7FFFFFFFFFFFFFFFFFFFF8
7FFFFFFFFFFFFFFFFFFFF8
7FFFFFFFFFFFFFFFFFFFF8
7FFFFFFFFFFFFFFFFFFFF8
3FFFFFFFFFFFFFFFFFFFF0
3FFFFFFFFFFFFFFFFFFFF0
3FFFFFFFFFFFFFFFFFFFF0
3FFFFFFFFFFFFFFFFFFFF0
1FFFFFFFFFFFFFFFFFFFE0
1FFFFFFFFFFFFFFFFFFFE0
0FFFFFFFFFFFFFFFFFFFC0
0FFFFFFFFFFFFFFFFFFFC0
07FFFFFFFFFFFFFFFFFF80
03FFFFFFFFFFFFFFFFFF80
01FFFFFFFFFFFFFFFFFF00
00FFFFFFFFFFFFFFFFFE00
007FFFFFFFFFFFFFFFF800
001FFFFFFFFFFFFFFFF000
0007FFFFFFFFFFFFFF8000
0001FFFFFFFFFFFFFE0000
00003FFFFFFFFFFFE00000
000000FFFFFFFF00000000
00000007FFFFFFE0000000
00000003FFFFFFFFF00010
00000001FFFFFFFFFFFFE0
00000000FFFFFFFFFFFFE0
000000003FFFFFFFFFFFC0
000000001FFFFFFFFFFF80
000000000FFFFFFFFFFF00
0000000003FFFFFFFFFF00
0000000001FFFFFFFFFE00
0000000000FFFFFFFFFC00
00000000003FFFFFFFF800
00000000000FFFFFFFF000
000000000007FFFFFFF000
000000000001FFFFFFE000
0000000000007FFFFFC000
0000000000001FFFFF8000
00000000000003FFFF8000
00000000000000FFFF0000
000000000000001FFE0000
0000000000000001FC0000
00000000000000000C0000
ENDCHAR
STARTCHAR 0052
ENCODING 82
SWIDTH 468 0
DWIDTH 104 0
BBX 86 180 9 0
BITMAP
FFFFFFFFFFFFFFC0000000
FFFFFFFFFFFFFFFF800000
FFFFFFFFFFFFFFFFF80000
FFFFFFFFFFFFFFFFFF0000
FFFFFFFFFFFFFFFFFFE000
FFFFFFFFFFFFFFFFFFF800
FFFFFFFFFFFFFFFFFFFC00
FFFFFFFFFFFFFFFFFFFE00
FFFFFFFFFFFFFFFFFFFF00
FFFFFFFFFFFFFFFFFFFF80
FFFFFFFFFFFFFFFFFFFF80
FFFFFFFFFFFFFFFFFFFFC0
FFFFFFFFFFFFFFFFFFFFC0
FFFFFFFFFFFFFFFFFFFFE0
FFFFFFFFFFFFFFFFFFFFE0
FFFFFFFFFFFFFFFFFFFFE0
FFFFFFFFFFFFFFFFFFFFF0
FFFFFFFFFFFFFFFFFFFFF0
FFFFFFFFFFFFFFFFFFFFF0
FFFFFFFFFFFFFFFFFFFFF0
FFFFFFFFFFFFFFFFFFFFF8
FFFFFFFFFFFFFFFFFFFFF8
FFFFFFFFFFFFFFFFFFFFF8
FFFFFFFFF81FFFFFFFFFF8
FFFFFFFFF801FFFFFFFFF8
FFFFFFFFF800FFFFFFFFF8
FFFFFFFFF800FFFFFFFFFC
FFFFFFFFF800FFFFFFFFFC
FFFFFFFFF8007FFFFFFFFC
FFFFFFFFF8007FFFFFFFFC
FFFFFFFFF8007FFFFFFFFC
FFFFFFFFF8007FFFFFFFFC
FFFFFFFFF8007FFFFFFFFC
FFFFFFFFF8007FFFFFFFFC
FFFFFFFFF8007FFFFFFFFC
FFFFFFFFF8007FFFFFFFFC
FFFFFFFFF8007FFFFFFFFC
FFFFFFFFF8007FFFFFFFFC
FFFFFFFFF8007FFFFFFFFC
FFFFFFFFF8007FFFFFFFFC
FFFFFFFFF8007FFFFFFFFC
FFFFFFFFF8007FFFFFFFFC
FFFFFFFFF8007FFFFFFFFC
FFFFFFFFF8007FFFFFFFFC
FFFFFFFFF8007FFFFFFFFC
FFFFFFFFF8007FFFFFFFFC
FFFFFFFFF8007FFFFFFFFC
FFFFFFFFF8007FFFFFFFFC
FFFFFFFFF8007FFFFFFFFC
FFFFFFFFF8007FFFFFFFFC
FFFFFFFFF8007FFFFFFFFC
FFFFFFFFF8007FFFFFFFFC
FFFFFFFFF8007FFFFFFFFC
FFFFFFFFF8007FFFFFFFFC
FFFFFFFFF8007FFFFFFFFC
FFFFFFFFF8007FFFFFFFFC
FFFFFFFFF8007FFFFFFFFC
FFFFFFFFF8007FFFFFFFFC
FFFFFFFFF8007FFFFFFFFC
FFFFFFFFF8007FFFFFFFFC
FFFFFFFFF8007FFFFFFFFC
FFFFFFFFF8007FFFFFFFFC
FFFFFFFFF8007FFFFFFFFC
FFFFFFFFF8007FFFFFFFFC
FFFFFFFFF8007FFFFFFFFC
FFFFFFFFF8007FFFFFFFFC
FFFFFFFFF8007FFFFFFFFC
FFFFFFFFF8007FFFFFFFFC
FFFFFFFFF8007FFFFFFFFC
FFFFFFFFF8007FFFFFFFFC
FFFFFFFFF8007FFFFFFFF8
FFFFFFFFF8007FFFFFFFF8
FFFFFFFFF800FFFFFFFFF8
FFFFFFFFF800FFFFFFFFF8
FFFFFFFFF800FFFFFFFFF8
FFFFFFFFF800FFFFFFFFF8
FFFFFFFFF801FFFFFFFFF0
FFFFFFFFF803FFFFFFFFF0
FFFFFFFFFFFFFFFFFFFFF0
FFFFFFFFFFFFFFFFFFFFE0
FFFFFFFFFFFFFFFFFFFFE0
FFFFFFFFFFFFFFFFFFFFC0
FFFFFFFFFFFFFFFFFFFF80
FFFFFFFFFFFFFFFFFFFF80
FFFFFFFFFFFFFFFFFFFF00
FFFFFFFFFFFFFFFFFFFE00
FFFFFFFFFFFFFFFFFFFC00
FFFFFFFFFFFFFFFFFFF000
FFFFFFFFFFFFFFFFFFE000
FFFFFFFFFFFFFFFFFF8000
FFFFFFFFFFFFFFFFFE0000
FFFFFFFFFFFFFFFFFC0000
FFFFFFFFFFFFFFFFFF8000
FFFFFFFFFFFFFFFFFFE000
FFFFFFFFFFFFFFFFFFF000
FFFFFFFFFFFFFFFFFFFC00
FFFFFFFFFFFFFFFFFFFE00
FFFFFFFFFFFFFFFFFFFF00
FFFFFFFFFFFFFFFFFFFF80
FFFFFFFFFFFFFFFFFFFFC0
FFFFFFFFFFFFFFFFFFFFC0
FFFFFFFFFFFFFFFFFFFFE0
FFFFFFFFFFFFFFFFFFFFE0
FFFFFFFFFFFFFFFFFFFFF0
FFFFFFFFFFFFFFFFFFFFF0
FFFFFFFFF80FFFFFFFFFF0
FFFFFFFFF803FFFFFFFFF8
FFFFFFFFF801FFFFFFFFF8
FFFFFFFFF800FFFFFFFFF8
FFFFFFFFF800FFFFFFFFF8
FFFFFFFFF8007FFFFFFFF8
FFFFFFFFF8007FFFFFFFFC
FFFFFFFFF8007FFFFFFFFC
FFFFFFFFF8007FFFFFFFFC
FFFFFFFFF8007FFFFFFFFC
FFFFFFFFF8007FFFFFFFFC
FFFFFFFFF8007FFFFFFFFC
FFFFFFFFF8007FFFFFFFFC
FFFFFFFFF8007FFFFFFFFC
FFFFFFFFF8007FFFFFFFFC
FFFFFFFFF8007FFFFFFFFC
FFFFFFFFF8007FFFFFFFFC
FFFFFFFFF8007FFFFFFFFC
FFFFFFFFF8007FFFFFFFFC
FFFFFFFFF8007FFFFFFFFC
FFFFFFFFF8007FFFFFFFFC
FFFFFFFFF8007FFFFFFFFC
FFFFFFFFF8007FFFFFFFFC
FFFFFFFFF8007FFFFFFFFC
FFFFFFFFF8007FFFFFFFFC
FFFFFFFFF8007FFFFFFFFC
FFFFFFFFF8007FFFFFFFFC
FFFFFFFFF8007FFFFFFFFC
FFFFFFFFF8007FFFFFFFFC
FFFFFFFFF8007FFFFFFFFC
FFFFFFFFF8007FFFFFFFFC
FFFFFFFFF8007FFFFFFFFC
FFFFFFFFF8007FFFFFFFFC
FFFFFFFFF8007FFFFFFFFC
FFFFFFFFF8007FFFFFFFFC
FFFFFFFFF8007FFFFFFFFC
FFFFFFFFF8007FFFFFFFFC
FFFFFFFFF8007FFFFFFFFC
FFFFFFFFF8007FFFFFFFFC
FFFFFFFFF8007FFFFFFFFC
FFFFFFFFF8007FFFFFFFFC
FFFFFFFFF8007FFFFFFFFC
FFFFFFFFF8007FFFFFFFFC
FFFFFFFFF8007FFFFFFFFC
FFFFFFFFF8007FFFFFFFFC
FFFFFFFFF8007FFFFFFFFC
FFFFFFFFF8007FFFFFFFFC
FFFFFFFFF8007FFFFFFFFC
FFFFFFFFF8007FFFFFFFFC
FFFFFFFFF8007FFFFFFFFC
FFFFFFFFF8007FFFFFFFFC
FFFFFFFFF8007FFFFFFFFC
FFFFFFFFF8007FFFFFFFFC
FFFFFFFFF8007FFFFFFFFC
FFFFFFFFF8007FFFFFFFFC
FFFFFFFFF8007FFFFFFFFC
FFFFFFFFF8007FFFFFFFFC
FFFFFFFFF8007FFFFFFFFC
FFFFFFFFF8007FFFFFFFFC
FFFFFFFFF8007FFFFFFFFC
FFFFFFFFF8007FFFFFFFFC
FFFFFFFFF8007FFFFFFFFC
FFFFFFFFF8007FFFFFFFFC
FFFFFFFFF8007FFFFFFFFC
FFFFFFFFF8007FFFFFFFFC
FFFFFFFFF8007FFFFFFFFC
FFFFFFFFF8007FFFFFFFFC
FFFFFFFFF8007FFFFFFFFC
FFFFFFFFF8007FFFFFFFFC
FFFFFFFFF8007FFFFFFFFC
FFFFFFFFF8007FFFFFFFFC
FFFFFFFFF8007FFFFFFFFC
FFFFFFFFF8007FFFFFFFFC
FFFFFFFFF8007FFFFFFFFC
FFFFFFFFF8007FFFFFFFFC
ENDCHAR
STARTCHAR 0053
ENCODING 83
SWIDTH 454 0
DWIDTH 101 0
BBX 85 182 8 -1
BITMAP
00000007FFFFFF00000000
00000FFFFFFFFFFF800000
0000FFFFFFFFFFFFF80000
0007FFFFFFFFFFFFFF8000
003FFFFFFFFFFFFFFFE000
007FFFFFFFFFFFFFFFF800
01FFFFFFFFFFFFFFFFFC00
03FFFFFFFFFFFFFFFFFE00
03FFFFFFFFFFFFFFFFFF00
07FFFFFFFFFFFFFFFFFF00
0FFFFFFFFFFFFFFFFFFF80
0FFFFFFFFFFFFFFFFFFF80
1FFFFFFFFFFFFFFFFFFFC0
1FFFFFFFFFFFFFFFFFFFC0
1FFFFFFFFFFFFFFFFFFFE0
3FFFFFFFFFFFFFFFFFFFE0
3FFFFFFFFFFFFFFFFFFFE0
3FFFFFFFFFFFFFFFFFFFE0
7FFFFFFFFFFFFFFFFFFFF0
7FFFFFFFFFFFFFFFFFFFF0
7FFFFFFFFFFFFFFFFFFFF0
7FFFFFFFFFFFFFFFFFFFF0
7FFFFFFFFFFFFFFFFFFFF0
7FFFFFFFFFFFFFFFFFFFF0
7FFFFFFFFE07FFFFFFFFF0
FFFFFFFFFC01FFFFFFFFF8
FFFFFFFFF801FFFFFFFFF8
FFFFFFFFF800FFFFFFFFF8
FFFFFFFFF800FFFFFFFFF8
FFFFFFFFF800FFFFFFFFF8
FFFFFFFFF800FFFFFFFFF8
FFFFFFFFF800FFFFFFFFF8
FFFFFFFFF800FFFFFFFFF8
FFFFFFFFF800FFFFFFFFF8
FFFFFFFFF800FFFFFFFFF8
FFFFFFFFF800FFFFFFFFF8
FFFFFFFFF800FFFFFFFFF8
FFFFFFFFF800FFFFFFFFF8
FFFFFFFFF800FFFFFFFFF8
FFFFFFFFF800FFFFFFFFF8
FFFFFFFFF800FFFFFFFFF8
FFFFFFFFF800FFFFFFFFF8
FFFFFFFFF800FFFFFFFFF8
FFFFFFFFF800FFFFFFFFF8
FFFFFFFFF800FFFFFFFFF8
FFFFFFFFF800FFFFFFFFF8
FFFFFFFFF800FFFFFFFFF8
FFFFFFFFF800FFFFFFFFF8
FFFFFFFFF800FFFFFFFFF8
FFFFFFFFF800FFFFFFFFF8
FFFFFFFFF800FFFFFFFFF8
FFFFFFFFF800FFFFFFFFF8
FFFFFFFFF800FFFFFFFFF8
FFFFFFFFF800FFFFFFFFF8
FFFFFFFFF800FFFFFFFFF8
FFFFFFFFF800FFFFFFFFF8
FFFFFFFFF800FFFFFFFFF8
FFFFFFFFF800FFFFFFFFF8
FFFFFFFFF800FFFFFFFFF8
FFFFFFFFF800FFFFFFFFF8
FFFFFFFFF800FFFFFFFFF8
FFFFFFFFF800FFFFFFFFF8
FFFFFFFFF800FFFFFFFFF8
FFFFFFFFF8000000000000
FFFFFFFFFC000000000000
FFFFFFFFFC000000000000
FFFFFFFFFE000000000000
FFFFFFFFFF000000000000
FFFFFFFFFFC00000000000
7FFFFFFFFFE00000000000
7FFFFFFFFFF80000000000
7FFFFFFFFFFE0000000000
7FFFFFFFFFFF8000000000
7FFFFFFFFFFFE000000000
3FFFFFFFFFFFF800000000
3FFFFFFFFFFFFE00000000
1FFFFFFFFFFFFFC0000000
1FFFFFFFFFFFFFF0000000
1FFFFFFFFFFFFFFC000000
0FFFFFFFFFFFFFFF000000
07FFFFFFFFFFFFFFC00000
03FFFFFFFFFFFFFFF00000
03FFFFFFFFFFFFFFFC0000
01FFFFFFFFFFFFFFFF0000
00FFFFFFFFFFFFFFFFC000
003FFFFFFFFFFFFFFFE000
001FFFFFFFFFFFFFFFF000
0007FFFFFFFFFFFFFFFC00
0003FFFFFFFFFFFFFFFE00
0000FFFFFFFFFFFFFFFF00
00003FFFFFFFFFFFFFFF00
00000FFFFFFFFFFFFFFF80
000003FFFFFFFFFFFFFFC0
000000FFFFFFFFFFFFFFC0
0000003FFFFFFFFFFFFFE0
0000000FFFFFFFFFFFFFE0
00000001FFFFFFFFFFFFE0
000000007FFFFFFFFFFFF0
000000001FFFFFFFFFFFF0
0000000007FFFFFFFFFFF0
0000000001FFFFFFFFFFF0
00000000007FFFFFFFFFF0
00000000001FFFFFFFFFF8
00000000000FFFFFFFFFF8
000000000003FFFFFFFFF8
000000000001FFFFFFFFF8
000000000001FFFFFFFFF8
FFFFFFFFF801FFFFFFFFF8
FFFFFFFFF800FFFFFFFFF8
FFFFFFFFF800FFFFFFFFF8
FFFFFFFFF800FFFFFFFFF8
FFFFFFFFF800FFFFFFFFF8
FFFFFFFFF800FFFFFFFFF8
FFFFFFFFF800FFFFFFFFF8
FFFFFFFFF800FFFFFFFFF8
FFFFFFFFF800FFFFFFFFF8
FFFFFFFFF800FFFFFFFFF8
FFFFFFFFF800FFFFFFFFF8
FFFFFFFFF800FFFFFFFFF8
FFFFFFFFF800FFFFFFFFF8
FFFFFFFFF800FFFFFFFFF8
FFFFFFFFF800FFFFFFFFF8
FFFFFFFFF800FFFFFFFFF8
FFFFFFFFF800FFFFFFFFF8
FFFFFFFFF800FFFFFFFFF8
FFFFFFFFF800FFFFFFFFF8
FFFFFFFFF800FFFFFFFFF8
FFFFFFFFF800FFFFFFFFF8
FFFFFFFFF800FFFFFFFFF8
FFFFFFFFF800FFFFFFFFF8
FFFFFFFFF800FFFFFFFFF8
FFFFFFFFF800FFFFFFFFF8
FFFFFFFFF800FFFFFFFFF8
FFFFFFFFF800FFFFFFFFF8
FFFFFFFFF800FFFFFFFFF8
FFFFFFFFF800FFFFFFFFF8
FFFFFFFFF800FFFFFFFFF8
FFFFFFFFF800FFFFFFFFF8
FFFFFFFFF800FFFFFFFFF8
FFFFFFFFF800FFFFFFFFF8
FFFFFFFFF800FFFFFFFFF8
FFFFFFFFF800FFFFFFFFF8
FFFFFFFFF800FFFFFFFFF8
FFFFFFFFF800FFFFFFFFF8
FFFFFFFFF800FFFFFFFFF8
FFFFFFFFF800FFFFFFFFF8
FFFFFFFFF800FFFFFFFFF8
FFFFFFFFF800FFFFFFFFF8
FFFFFFFFF800FFFFFFFFF8
FFFFFFFFF800FFFFFFFFF8
FFFFFFFFF800FFFFFFFFF8
FFFFFFFFF800FFFFFFFFF8
FFFFFFFFF800FFFFFFFFF8
FFFFFFFFF800FFFFFFFFF8
FFFFFFFFF800FFFFFFFFF8
FFFFFFFFFC01FFFFFFFFF8
FFFFFFFFFC01FFFFFFFFF8
7FFFFFFFFF03FFFFFFFFF0
7FFFFFFFFFFFFFFFFFFFF0
7FFFFFFFFFFFFFFFFFFFF0
7FFFFFFFFFFFFFFFFFFFF0
7FFFFFFFFFFFFFFFFFFFF0
7FFFFFFFFFFFFFFFFFFFF0
3FFFFFFFFFFFFFFFFFFFF0
3FFFFFFFFFFFFFFFFFFFE0
3FFFFFFFFFFFFFFFFFFFE0
3FFFFFFFFFFFFFFFFFFFE0
1FFFFFFFFFFFFFFFFFFFE0
1FFFFFFFFFFFFFFFFFFFC0
1FFFFFFFFFFFFFFFFFFFC0
0FFFFFFFFFFFFFFFFFFFC0
0FFFFFFFFFFFFFFFFFFF80
07FFFFFFFFFFFFFFFFFF80
03FFFFFFFFFFFFFFFFFF00
01FFFFFFFFFFFFFFFFFE00
00FFFFFFFFFFFFFFFFFC00
007FFFFFFFFFFFFFFFF800
001FFFFFFFFFFFFFFFE000
0007FFFFFFFFFFFFFF8000
0000FFFFFFFFFFFFFC0000
000007FFFFFFFFFF800000
00000007FFFFFF00000000
ENDCHAR
ENDFONT
